<?xml version="1.0" encoding="utf-8"?>
<!-- Generator: Adobe Illustrator 16.0.0, SVG Export Plug-In . SVG Version: 6.00 Build 0)  -->
<!DOCTYPE svg PUBLIC "-//W3C//DTD SVG 1.1 Tiny//EN" "http://www.w3.org/Graphics/SVG/1.1/DTD/svg11-tiny.dtd">
<svg version="1.1" baseProfile="tiny" id="Layer_1" xmlns="http://www.w3.org/2000/svg" xmlns:xlink="http://www.w3.org/1999/xlink"
	 x="0px" y="0px" width="130px" height="130px" viewBox="0 0 130 130" xml:space="preserve">
<g>
	<path fill="#CCCCCC" d="M65,111.381c-25.574,0-46.38-20.807-46.38-46.381S39.426,18.62,65,18.62c25.575,0,46.38,20.806,46.38,46.38
		S90.575,111.381,65,111.381z M65,19.62c-25.023,0-45.38,20.357-45.38,45.38c0,25.023,20.357,45.381,45.38,45.381
		c25.021,0,45.38-20.357,45.38-45.381C110.38,39.977,90.021,19.62,65,19.62z"/>
	<path fill="#F15A24" d="M65,104.838c-21.967,0-39.838-17.871-39.838-39.838S43.033,25.162,65,25.162
		c21.968,0,39.839,17.871,39.839,39.838S86.968,104.838,65,104.838z M65,26.162c-21.416,0-38.838,17.423-38.838,38.838
		c0,21.417,17.422,38.838,38.838,38.838c21.415,0,38.839-17.422,38.839-38.838S86.415,26.162,65,26.162z"/>
	<g>
		<g>
			<path fill="#CCCCCC" d="M88.249,88.428H36.54l-0.068-0.42c-0.071-0.441-1.677-10.857,3.86-17.715
				c2.815-3.486,6.98-5.398,12.377-5.679l0.222-0.012l0.157,0.157c5.575,5.575,8.438,8.331,9.37,9.22l9.53-9.367h0.205
				c0.277,0,6.853,0.061,11.605,5.293c3.732,4.104,5.242,10.186,4.488,18.067L88.249,88.428z M37.404,87.428h49.933
				c0.629-7.371-0.81-13.037-4.272-16.848c-4.019-4.422-9.562-4.908-10.672-4.96l-9.917,9.748l-0.35-0.328
				c-0.027-0.024-2.729-2.563-9.583-9.415c-4.991,0.307-8.835,2.086-11.427,5.293C36.461,76.674,37.168,85.418,37.404,87.428z"/>
		</g>
		<g>
			<path fill="#CCCCCC" d="M88.249,88.428H36.54l-0.068-0.42c-0.071-0.441-1.677-10.857,3.86-17.715
				c2.815-3.486,6.98-5.398,12.377-5.679l0.222-0.012l0.157,0.157c5.575,5.575,8.438,8.331,9.37,9.22l9.53-9.367h0.205
				c0.277,0,6.853,0.061,11.605,5.293c3.732,4.104,5.242,10.186,4.488,18.067L88.249,88.428z M37.404,87.428h49.933
				c0.629-7.371-0.81-13.037-4.272-16.848c-4.019-4.422-9.562-4.908-10.672-4.96l-9.917,9.748l-0.35-0.328
				c-0.027-0.024-2.729-2.563-9.583-9.415c-4.991,0.307-8.835,2.086-11.427,5.293C36.461,76.674,37.168,85.418,37.404,87.428z"/>
		</g>
	</g>
	<g>
		<g>
			<path fill="#CCCCCC" d="M93.665,81.287c-1.744,0-2.955-0.074-2.976-0.076l0.062-0.998c0.022,0.002,2.431,0.146,5.338,0.023
				c-0.069-7.365-1.896-12.631-5.428-15.653c-3.486-2.984-7.619-2.78-8.562-2.691l-1.649,2.229l-0.806-0.596l1.9-2.565l0.201-0.032
				c0.213-0.034,5.25-0.784,9.547,2.885c3.848,3.285,5.795,8.969,5.793,16.901v0.476l-0.475,0.022
				C95.557,81.268,94.544,81.287,93.665,81.287z"/>
		</g>
		<g>
			<path fill="#CCCCCC" d="M93.665,81.287c-1.744,0-2.955-0.074-2.976-0.076l0.062-0.998c0.022,0.002,2.431,0.146,5.338,0.023
				c-0.069-7.365-1.896-12.631-5.428-15.653c-3.486-2.984-7.619-2.78-8.562-2.691l-1.649,2.229l-0.806-0.596l1.9-2.565l0.201-0.032
				c0.213-0.034,5.25-0.784,9.547,2.885c3.848,3.285,5.795,8.969,5.793,16.901v0.476l-0.475,0.022
				C95.557,81.268,94.544,81.287,93.665,81.287z"/>
		</g>
	</g>
	<g>
		<g>
			<path fill="#CCCCCC" d="M79.003,59.918l-0.414-0.91c4.604-2.094,7.576-6.709,7.576-11.759c0-7.123-5.795-12.918-12.92-12.918
				c-1.447,0-2.873,0.242-4.236,0.719l-0.329-0.943c1.469-0.515,3.006-0.775,4.565-0.775c7.676,0,13.92,6.243,13.92,13.918
				C87.165,52.691,83.962,57.664,79.003,59.918z"/>
		</g>
		<g>
			<path fill="#CCCCCC" d="M79.003,59.918l-0.414-0.91c4.604-2.094,7.576-6.709,7.576-11.759c0-7.123-5.795-12.918-12.92-12.918
				c-1.447,0-2.873,0.242-4.236,0.719l-0.329-0.943c1.469-0.515,3.006-0.775,4.565-0.775c7.676,0,13.92,6.243,13.92,13.918
				C87.165,52.691,83.962,57.664,79.003,59.918z"/>
		</g>
	</g>
	<g>
		<g>
			<path fill="#CCCCCC" d="M62.347,65.779c-7.676,0-13.92-6.244-13.92-13.919c0-7.676,6.245-13.921,13.92-13.921
				c7.674,0,13.918,6.245,13.918,13.921C76.268,59.535,70.021,65.779,62.347,65.779z M62.347,38.939
				c-7.125,0-12.92,5.796-12.92,12.921c0,7.123,5.796,12.919,12.92,12.919c7.124,0,12.918-5.796,12.918-12.919
				C75.268,44.735,69.473,38.939,62.347,38.939z"/>
		</g>
		<g>
			<path fill="#CCCCCC" d="M62.347,65.779c-7.676,0-13.92-6.244-13.92-13.919c0-7.676,6.245-13.921,13.92-13.921
				c7.674,0,13.918,6.245,13.918,13.921C76.268,59.535,70.021,65.779,62.347,65.779z M62.347,38.939
				c-7.125,0-12.92,5.796-12.92,12.921c0,7.123,5.796,12.919,12.92,12.919c7.124,0,12.918-5.796,12.918-12.919
				C75.268,44.735,69.473,38.939,62.347,38.939z"/>
		</g>
	</g>
</g>
</svg>