<?xml version="1.0" encoding="utf-8"?>
<!-- Generator: Adobe Illustrator 16.0.0, SVG Export Plug-In . SVG Version: 6.00 Build 0)  -->
<!DOCTYPE svg PUBLIC "-//W3C//DTD SVG 1.1 Tiny//EN" "http://www.w3.org/Graphics/SVG/1.1/DTD/svg11-tiny.dtd">
<svg version="1.1" baseProfile="tiny" id="Layer_1" xmlns="http://www.w3.org/2000/svg" xmlns:xlink="http://www.w3.org/1999/xlink"
	 x="0px" y="0px" width="130px" height="130px" viewBox="0 0 130 130" xml:space="preserve">
<g>
	<polygon fill="#F15A24" points="18.673,96.367 19.24,96.947 76.303,96.947 76.303,38.594 18.093,38.594 18.093,96.947 
		18.673,96.947 18.673,96.367 19.254,96.367 19.254,39.752 75.143,39.752 75.143,95.787 18.673,95.787 18.673,96.367 19.254,96.367 
			"/>
	<rect x="41.082" y="22.786" fill="#FFFFFF" width="70" height="61.999"/>
	<polyline fill="#F15A24" points="40.272,21.728 39.677,22.196 40.296,22.981 40.892,22.513 	"/>
	<path fill="#F15A24" d="M21.315,36.662l-1.223,0.964l0.618,0.786l1.224-0.965L21.315,36.662z M23.765,34.733l-1.225,0.964
		l0.619,0.786l1.225-0.965L23.765,34.733z M26.212,32.805l-1.224,0.964l0.618,0.786l1.225-0.965L26.212,32.805z M28.66,30.876
		l-1.224,0.964l0.619,0.786l1.224-0.965L28.66,30.876z M31.108,28.947l-1.225,0.964l0.619,0.786l1.225-0.965L31.108,28.947z
		 M33.557,27.019l-1.224,0.964l0.618,0.786l1.224-0.965L33.557,27.019z M36.005,25.09l-1.225,0.964l0.619,0.785l1.225-0.964
		L36.005,25.09z M38.452,23.161l-1.224,0.964l0.619,0.785l1.224-0.964L38.452,23.161z"/>
	<polyline fill="#F15A24" points="18.868,38.591 18.272,39.061 18.892,39.846 19.487,39.376 	"/>
	<polyline fill="#F15A24" points="111.469,83.99 110.749,84.23 111.064,85.18 111.785,84.939 	"/>
	<path fill="#F15A24" d="M78.912,94.818l-1.385,0.459l0.312,0.949l1.389-0.459L78.912,94.818z M81.682,93.896l-1.385,0.461
		l0.314,0.949l1.386-0.461L81.682,93.896z M84.449,92.977l-1.385,0.461l0.312,0.949l1.387-0.461L84.449,92.977z M87.218,92.057
		l-1.384,0.459l0.314,0.949l1.385-0.461L87.218,92.057z M89.986,91.135l-1.385,0.461l0.312,0.949l1.384-0.461L89.986,91.135z
		 M92.755,90.215l-1.384,0.459l0.314,0.949l1.385-0.459L92.755,90.215z M95.523,89.293l-1.385,0.461l0.312,0.949l1.384-0.461
		L95.523,89.293z M98.292,88.373l-1.385,0.461l0.315,0.947l1.385-0.459L98.292,88.373z M101.061,87.453l-1.385,0.459l0.315,0.949
		l1.385-0.461L101.061,87.453z M103.829,86.531l-1.386,0.461l0.312,0.949l1.389-0.461L103.829,86.531z M106.598,85.611l-1.385,0.459
		l0.314,0.949l1.386-0.459L106.598,85.611z M109.365,84.689l-1.385,0.461l0.312,0.949l1.389-0.461L109.365,84.689z"/>
	<polyline fill="#F15A24" points="76.145,95.738 75.424,95.979 75.74,96.928 76.46,96.688 	"/>
	<path fill="#B3B3B3" d="M47.35,28.843v19.972h56.732V28.843H47.35z M53.725,31.312c1.393,0,2.527,1.141,2.527,2.531
		c0,1.395-1.135,2.537-2.527,2.537c-1.402,0-2.527-1.143-2.527-2.537C51.197,32.452,52.322,31.312,53.725,31.312z M50.537,46.421
		l3.287-5.503l1.04,1.751l2.244,3.752H50.537z M59.219,46.421l-2.732-4.705l4.277-4.793l9.449,9.498H59.219z"/>
	<polygon fill="#B3B3B3" points="40.673,85.002 40.673,85.584 111.907,85.584 111.907,21.56 40.093,21.56 40.093,85.584 
		40.673,85.584 40.673,85.002 41.254,85.002 41.254,22.718 110.746,22.718 110.746,84.422 40.673,84.422 40.673,85.002 
		41.254,85.002 	"/>
	<polygon fill="#B3B3B3" points="44.957,51.521 44.957,52.103 107.316,52.103 107.316,26.212 44.377,26.212 44.377,52.103 
		44.957,52.103 44.957,51.521 45.537,51.521 45.537,27.37 106.156,27.37 106.156,50.941 44.957,50.941 44.957,51.521 45.537,51.521 
			"/>
	<polygon fill="#B3B3B3" points="77.825,80.389 77.825,80.971 107.021,80.971 107.021,54.511 77.245,54.511 77.245,80.971 
		77.825,80.971 77.825,80.389 78.406,80.389 78.406,55.669 105.861,55.669 105.861,79.809 77.825,79.809 77.825,80.389 
		78.406,80.389 	"/>
	<polygon fill="#B3B3B3" points="45.227,80.389 45.227,80.971 74.424,80.971 74.424,54.511 44.646,54.511 44.646,80.971 
		45.227,80.971 45.227,80.389 45.807,80.389 45.807,55.669 73.264,55.669 73.264,79.809 45.227,79.809 45.227,80.389 45.807,80.389 
			"/>
	<rect x="47.816" y="58.343" fill="#B3B3B3" width="20.743" height="3.483"/>
	<rect x="47.816" y="73.648" fill="#B3B3B3" width="20.743" height="3.48"/>
	<rect x="47.816" y="63.564" fill="#B3B3B3" width="23.266" height="3.48"/>
	<rect x="47.816" y="68.787" fill="#B3B3B3" width="14.854" height="3.482"/>
	<rect x="80.484" y="58.343" fill="#B3B3B3" width="20.74" height="3.483"/>
	<rect x="80.484" y="73.648" fill="#B3B3B3" width="20.74" height="3.48"/>
	<rect x="80.484" y="63.564" fill="#B3B3B3" width="23.264" height="3.48"/>
	<rect x="80.484" y="68.787" fill="#B3B3B3" width="14.854" height="3.482"/>
</g>
</svg>
