<?xml version="1.0" encoding="utf-8"?>
<!-- Generator: Adobe Illustrator 16.0.0, SVG Export Plug-In . SVG Version: 6.00 Build 0)  -->
<!DOCTYPE svg PUBLIC "-//W3C//DTD SVG 1.1 Tiny//EN" "http://www.w3.org/Graphics/SVG/1.1/DTD/svg11-tiny.dtd">
<svg version="1.1" baseProfile="tiny" id="Layer_1" xmlns="http://www.w3.org/2000/svg" xmlns:xlink="http://www.w3.org/1999/xlink"
	 x="0px" y="0px" width="130px" height="130px" viewBox="0 0 130 130" xml:space="preserve">
<g>
	<g>
		<polygon fill="#CCCCCC" points="110.555,108.34 110.555,107.76 20.026,107.76 20.026,22.24 109.975,22.24 109.975,108.34 
			110.555,108.34 110.555,107.76 110.555,108.34 111.137,108.34 111.137,21.08 18.865,21.08 18.865,108.92 111.137,108.92 
			111.137,108.34 		"/>
	</g>
	<g>
		<rect x="24.156" y="28.687" fill="none" width="81.751" height="13"/>
		<path fill="#B3B3B3" d="M25.144,37.046v-7.853h1.665v6.478h3.185v1.375H25.144z"/>
		<path fill="#B3B3B3" d="M33.837,37.153c-0.967,0-1.722-0.267-2.267-0.801c-0.544-0.533-0.816-1.289-0.816-2.266
			c0-1.007,0.251-1.784,0.755-2.334c0.503-0.55,1.198-0.824,2.086-0.824c0.849,0,1.509,0.241,1.982,0.725
			c0.473,0.484,0.709,1.151,0.709,2.004v0.795h-3.873c0.018,0.465,0.156,0.828,0.414,1.09c0.258,0.262,0.62,0.393,1.085,0.393
			c0.362,0,0.704-0.038,1.026-0.113c0.322-0.075,0.659-0.195,1.01-0.359v1.268c-0.287,0.143-0.593,0.249-0.918,0.319
			C34.704,37.118,34.307,37.153,33.837,37.153z M33.606,32.094c-0.347,0-0.62,0.11-0.816,0.33c-0.197,0.221-0.31,0.533-0.338,0.938
			h2.299c-0.007-0.404-0.113-0.717-0.317-0.938C34.229,32.204,33.954,32.094,33.606,32.094z"/>
		<path fill="#B3B3B3" d="M41.322,37.046l-0.317-0.816h-0.043c-0.276,0.348-0.56,0.588-0.851,0.723
			c-0.292,0.134-0.672,0.201-1.142,0.201c-0.577,0-1.03-0.165-1.361-0.494c-0.332-0.329-0.497-0.799-0.497-1.407
			c0-0.638,0.223-1.107,0.669-1.41c0.445-0.303,1.118-0.47,2.017-0.502l1.042-0.032v-0.264c0-0.608-0.312-0.912-0.935-0.912
			c-0.48,0-1.044,0.145-1.692,0.435l-0.542-1.106c0.691-0.361,1.458-0.543,2.299-0.543c0.806,0,1.423,0.176,1.853,0.527
			c0.43,0.351,0.645,0.884,0.645,1.6v4.002h-1.145V37.046z M40.838,34.264l-0.634,0.021c-0.476,0.015-0.831,0.101-1.063,0.258
			s-0.349,0.397-0.349,0.72c0,0.462,0.265,0.693,0.795,0.693c0.379,0,0.683-0.109,0.911-0.328c0.227-0.219,0.341-0.509,0.341-0.87
			L40.838,34.264L40.838,34.264z"/>
		<path fill="#B3B3B3" d="M45.471,37.046l-2.288-6.005h1.713l1.16,3.421c0.129,0.434,0.209,0.844,0.242,1.23h0.032
			c0.018-0.344,0.099-0.754,0.242-1.23l1.155-3.421h1.713l-2.288,6.005H45.471z"/>
		<path fill="#B3B3B3" d="M52.908,37.153c-0.967,0-1.722-0.267-2.267-0.801c-0.544-0.533-0.816-1.289-0.816-2.266
			c0-1.007,0.251-1.784,0.755-2.334c0.503-0.55,1.198-0.824,2.086-0.824c0.849,0,1.509,0.241,1.982,0.725
			c0.473,0.484,0.709,1.151,0.709,2.004v0.795h-3.873c0.018,0.465,0.156,0.828,0.414,1.09c0.258,0.262,0.62,0.393,1.085,0.393
			c0.362,0,0.704-0.038,1.026-0.113c0.322-0.075,0.659-0.195,1.01-0.359v1.268c-0.287,0.143-0.593,0.249-0.918,0.319
			C53.774,37.118,53.377,37.153,52.908,37.153z M52.677,32.094c-0.347,0-0.62,0.11-0.816,0.33c-0.197,0.221-0.31,0.533-0.338,0.938
			h2.299c-0.007-0.404-0.113-0.717-0.317-0.938C53.3,32.204,53.024,32.094,52.677,32.094z"/>
		<path fill="#B3B3B3" d="M63.14,37.046l-0.317-0.816H62.78c-0.276,0.348-0.56,0.588-0.852,0.723
			c-0.292,0.134-0.672,0.201-1.141,0.201c-0.577,0-1.03-0.165-1.362-0.494c-0.331-0.329-0.497-0.799-0.497-1.407
			c0-0.638,0.223-1.107,0.668-1.41c0.446-0.303,1.118-0.47,2.017-0.502l1.042-0.032v-0.264c0-0.608-0.312-0.912-0.935-0.912
			c-0.48,0-1.044,0.145-1.692,0.435l-0.542-1.106c0.691-0.361,1.458-0.543,2.299-0.543c0.806,0,1.423,0.176,1.853,0.527
			c0.43,0.351,0.645,0.884,0.645,1.6v4.002H63.14V37.046z M62.656,34.264l-0.634,0.021c-0.476,0.015-0.831,0.101-1.063,0.258
			s-0.349,0.397-0.349,0.72c0,0.462,0.265,0.693,0.795,0.693c0.379,0,0.683-0.109,0.91-0.328c0.228-0.219,0.341-0.509,0.341-0.87
			V34.264z"/>
		<path fill="#B3B3B3" d="M70.4,34.032v3.014h-1.664v-7.853h2.287c1.065,0,1.855,0.194,2.369,0.583
			c0.512,0.389,0.769,0.979,0.769,1.77c0,0.462-0.127,0.873-0.382,1.232c-0.254,0.36-0.613,0.643-1.079,0.846
			c1.182,1.766,1.952,2.906,2.312,3.422h-1.849l-1.875-3.014H70.4z M70.4,32.679h0.537c0.525,0,0.916-0.087,1.166-0.263
			s0.377-0.451,0.377-0.827c0-0.372-0.129-0.638-0.385-0.795c-0.258-0.157-0.652-0.236-1.188-0.236H70.4V32.679z"/>
		<path fill="#B3B3B3" d="M78.479,37.153c-0.968,0-1.724-0.267-2.269-0.801c-0.544-0.533-0.815-1.289-0.815-2.266
			c0-1.007,0.252-1.784,0.756-2.334c0.502-0.55,1.197-0.824,2.086-0.824c0.851,0,1.512,0.241,1.981,0.725
			c0.472,0.484,0.709,1.151,0.709,2.004v0.795h-3.872c0.02,0.465,0.155,0.828,0.413,1.09c0.259,0.262,0.619,0.393,1.084,0.393
			c0.362,0,0.704-0.038,1.026-0.113c0.322-0.075,0.658-0.195,1.01-0.359v1.268c-0.286,0.143-0.593,0.249-0.919,0.319
			C79.344,37.118,78.945,37.153,78.479,37.153z M78.246,32.094c-0.348,0-0.62,0.11-0.816,0.33c-0.195,0.221-0.31,0.533-0.339,0.938
			h2.3c-0.008-0.404-0.113-0.717-0.314-0.938C78.869,32.204,78.593,32.094,78.246,32.094z"/>
		<path fill="#B3B3B3" d="M85.445,37.153c-0.704,0-1.258-0.256-1.659-0.768H83.7c0.058,0.501,0.086,0.791,0.086,0.869v2.434h-1.638
			v-8.647h1.332l0.229,0.778h0.074c0.384-0.594,0.949-0.891,1.701-0.891c0.709,0,1.266,0.273,1.664,0.821
			c0.402,0.548,0.604,1.309,0.604,2.282c0,0.642-0.095,1.198-0.28,1.671c-0.188,0.473-0.455,0.833-0.805,1.079
			C86.323,37.03,85.915,37.153,85.445,37.153z M84.963,32.239c-0.404,0-0.699,0.124-0.886,0.373s-0.283,0.659-0.291,1.232v0.178
			c0,0.645,0.096,1.105,0.287,1.385c0.192,0.279,0.495,0.42,0.911,0.42c0.73,0,1.101-0.605,1.101-1.816
			c0-0.59-0.09-1.033-0.271-1.329C85.634,32.387,85.35,32.239,84.963,32.239z"/>
		<path fill="#B3B3B3" d="M90.639,37.046h-1.64v-8.357h1.64V37.046z"/>
		<path fill="#B3B3B3" d="M91.389,31.041h1.793l1.133,3.378c0.1,0.294,0.164,0.642,0.199,1.043h0.032
			c0.039-0.369,0.115-0.717,0.229-1.043l1.109-3.378h1.76l-2.541,6.772c-0.232,0.627-0.564,1.096-0.996,1.408
			c-0.434,0.311-0.938,0.467-1.512,0.467c-0.283,0-0.562-0.03-0.836-0.092v-1.299c0.197,0.046,0.412,0.069,0.646,0.069
			c0.291,0,0.544-0.089,0.76-0.266c0.217-0.178,0.389-0.445,0.508-0.804l0.1-0.295L91.389,31.041z"/>
	</g>
	<rect x="24.667" y="91" fill="#B3B3B3" width="79" height="12"/>
	<g>
		<path fill="#FFFFFF" d="M51.691,97.922c0,0.616-0.222,1.102-0.665,1.455s-1.06,0.531-1.85,0.531c-0.728,0-1.371-0.137-1.931-0.41
			v-1.344c0.46,0.205,0.849,0.351,1.168,0.434c0.318,0.085,0.61,0.127,0.875,0.127c0.317,0,0.56-0.061,0.73-0.183
			c0.169-0.12,0.254-0.302,0.254-0.542c0-0.133-0.038-0.252-0.112-0.355c-0.075-0.104-0.184-0.205-0.329-0.302
			c-0.144-0.097-0.439-0.25-0.884-0.462c-0.417-0.195-0.729-0.385-0.938-0.564c-0.208-0.18-0.375-0.389-0.5-0.629
			c-0.124-0.238-0.187-0.52-0.187-0.84c0-0.604,0.205-1.078,0.614-1.423s0.974-0.519,1.696-0.519c0.354,0,0.692,0.043,1.015,0.127
			c0.321,0.082,0.658,0.201,1.01,0.354l-0.466,1.124c-0.364-0.149-0.665-0.253-0.903-0.312c-0.237-0.062-0.472-0.09-0.702-0.09
			c-0.273,0-0.484,0.062-0.629,0.189c-0.146,0.127-0.22,0.295-0.22,0.5c0,0.127,0.03,0.234,0.089,0.332
			c0.059,0.096,0.152,0.188,0.282,0.273c0.128,0.088,0.435,0.248,0.917,0.479c0.638,0.306,1.075,0.61,1.311,0.917
			C51.573,97.102,51.691,97.477,51.691,97.922z"/>
		<path fill="#FFFFFF" d="M56.415,99.814l-0.191-0.668h-0.075c-0.152,0.242-0.369,0.432-0.648,0.562
			c-0.28,0.132-0.599,0.196-0.957,0.196c-0.612,0-1.074-0.162-1.386-0.491c-0.311-0.327-0.466-0.799-0.466-1.415V94.6h1.423v3.047
			c0,0.377,0.066,0.658,0.2,0.848c0.134,0.188,0.347,0.281,0.639,0.281c0.398,0,0.686-0.133,0.863-0.396
			c0.178-0.27,0.266-0.708,0.266-1.322V94.6h1.423v5.217h-1.091V99.814L56.415,99.814z"/>
		<path fill="#FFFFFF" d="M61.805,94.501c0.616,0,1.099,0.241,1.446,0.722c0.349,0.48,0.523,1.143,0.523,1.979
			c0,0.858-0.18,1.524-0.539,2c-0.359,0.473-0.848,0.709-1.467,0.709c-0.612,0-1.093-0.224-1.441-0.667h-0.098l-0.238,0.572h-1.087
			v-7.26h1.423v1.689c0,0.214-0.019,0.559-0.056,1.031h0.056C60.659,94.761,61.152,94.501,61.805,94.501z M61.348,95.641
			c-0.352,0-0.608,0.107-0.77,0.323c-0.162,0.218-0.246,0.573-0.252,1.071v0.152c0,0.561,0.083,0.963,0.25,1.205
			c0.166,0.24,0.43,0.361,0.791,0.361c0.292,0,0.525-0.135,0.697-0.4c0.172-0.271,0.259-0.662,0.259-1.174
			c0-0.517-0.087-0.898-0.261-1.156C61.888,95.77,61.649,95.641,61.348,95.641z"/>
		<path fill="#FFFFFF" d="M69.523,99.814H68.1V96.77c0-0.377-0.062-0.66-0.188-0.848c-0.125-0.188-0.323-0.283-0.596-0.283
			c-0.362,0-0.627,0.137-0.793,0.402c-0.164,0.268-0.246,0.707-0.246,1.32v2.453h-1.422V94.6h1.086l0.189,0.668h0.08
			c0.141-0.238,0.344-0.428,0.605-0.562c0.266-0.138,0.565-0.204,0.91-0.204c0.779,0,1.31,0.256,1.586,0.768h0.127
			c0.14-0.242,0.347-0.432,0.617-0.563c0.271-0.136,0.58-0.201,0.922-0.201c0.59,0,1.037,0.152,1.342,0.456
			c0.304,0.305,0.455,0.789,0.455,1.458v3.399H71.35v-3.045c0-0.377-0.062-0.659-0.188-0.85c-0.125-0.188-0.324-0.281-0.598-0.281
			c-0.349,0-0.605,0.125-0.779,0.373c-0.174,0.25-0.26,0.646-0.26,1.188v2.613h-0.002V99.814L69.523,99.814z"/>
		<path fill="#FFFFFF" d="M74.079,93.252c0-0.463,0.258-0.695,0.774-0.695c0.516,0,0.771,0.232,0.771,0.695
			c0,0.223-0.062,0.393-0.191,0.516s-0.322,0.188-0.58,0.188C74.337,93.952,74.079,93.718,74.079,93.252z M75.562,99.814h-1.422
			V94.6h1.424v5.215H75.562L75.562,99.814z"/>
		<path fill="#FFFFFF" d="M79.157,98.773c0.25,0,0.547-0.053,0.896-0.162v1.059c-0.354,0.16-0.791,0.238-1.307,0.238
			c-0.57,0-0.984-0.145-1.244-0.432s-0.389-0.721-0.389-1.295v-2.516h-0.682v-0.604l0.78-0.477l0.412-1.104h0.908v1.111h1.461v1.067
			h-1.461v2.514c0,0.203,0.057,0.353,0.17,0.448C78.818,98.727,78.973,98.773,79.157,98.773z"/>
	</g>
	<rect x="25.167" y="43.5" fill="#F2F2F2" stroke="#B3B3B3" stroke-miterlimit="10" width="78" height="44"/>
</g>
</svg>
