<?xml version="1.0" encoding="utf-8"?>
<!-- Generator: Adobe Illustrator 16.0.0, SVG Export Plug-In . SVG Version: 6.00 Build 0)  -->
<!DOCTYPE svg PUBLIC "-//W3C//DTD SVG 1.1 Tiny//EN" "http://www.w3.org/Graphics/SVG/1.1/DTD/svg11-tiny.dtd">
<svg version="1.1" baseProfile="tiny" id="Layer_1" xmlns="http://www.w3.org/2000/svg" xmlns:xlink="http://www.w3.org/1999/xlink"
	 x="0px" y="0px" width="130px" height="130px" viewBox="0 0 130 130" xml:space="preserve">
<g>
	<polygon fill="#F15A24" points="26.834,104.982 26.834,105.562 100.531,105.562 100.531,46.789 26.254,46.789 26.254,105.562 
		26.834,105.562 26.834,104.982 27.415,104.982 27.415,47.947 99.371,47.947 99.371,104.402 26.834,104.402 26.834,104.982 
		27.415,104.982 	"/>
	<g>
		<rect x="30.326" y="51.332" fill="none" width="69.984" height="27.35"/>
		<path fill="#B3B3B3" d="M34.531,59.483l-1.844-6.007H32.64c0.066,1.222,0.1,2.037,0.1,2.445v3.562h-1.45v-7.656h2.21l1.812,5.854
			h0.031l1.922-5.854h2.21v7.656h-1.514v-3.624c0-0.171,0.002-0.368,0.008-0.592c0.006-0.224,0.029-0.817,0.071-1.78h-0.047
			l-1.974,5.996H34.531z"/>
		<path fill="#B3B3B3" d="M40.332,53.627h1.749l1.105,3.295c0.095,0.286,0.159,0.625,0.194,1.016h0.032
			c0.038-0.359,0.113-0.698,0.225-1.016l1.084-3.295h1.712l-2.477,6.604c-0.227,0.61-0.551,1.068-0.971,1.372
			c-0.421,0.304-0.913,0.456-1.475,0.456c-0.276,0-0.546-0.03-0.812-0.09v-1.267c0.192,0.045,0.401,0.067,0.628,0.067
			c0.283,0,0.53-0.086,0.741-0.259c0.211-0.173,0.376-0.434,0.495-0.783l0.094-0.288L40.332,53.627z"/>
		<path fill="#B3B3B3" d="M33.542,70.312c-1.823,0-2.734-1-2.734-3c0-0.996,0.248-1.754,0.744-2.279
			c0.496-0.525,1.206-0.788,2.131-0.788c0.677,0,1.285,0.133,1.823,0.397l-0.472,1.236c-0.251-0.103-0.485-0.187-0.702-0.249
			s-0.433-0.097-0.649-0.097c-0.831,0-1.247,0.589-1.247,1.771c0,1.146,0.416,1.717,1.247,1.717c0.307,0,0.592-0.041,0.854-0.123
			c0.262-0.082,0.524-0.211,0.786-0.385v1.366c-0.258,0.164-0.519,0.276-0.783,0.341C34.276,70.281,33.943,70.312,33.542,70.312z"/>
		<path fill="#B3B3B3" d="M40.719,70.209l-0.215-0.75H40.42c-0.171,0.273-0.414,0.482-0.728,0.631
			c-0.314,0.149-0.672,0.223-1.074,0.223c-0.688,0-1.207-0.184-1.556-0.553c-0.349-0.367-0.523-0.896-0.523-1.588v-3.819h1.597v3.42
			c0,0.422,0.075,0.735,0.225,0.951c0.15,0.211,0.39,0.312,0.718,0.312c0.447,0,0.77-0.146,0.969-0.447
			c0.199-0.299,0.298-0.795,0.298-1.482v-2.754h1.598v5.856H40.719z"/>
		<path fill="#B3B3B3" d="M47.598,68.471c0,0.6-0.208,1.057-0.626,1.371c-0.417,0.314-1.041,0.471-1.872,0.471
			c-0.426,0-0.789-0.023-1.089-0.086c-0.3-0.057-0.582-0.143-0.843-0.254v-1.32c0.297,0.145,0.631,0.262,1.003,0.354
			c0.372,0.097,0.699,0.144,0.982,0.144c0.58,0,0.87-0.166,0.87-0.502c0-0.125-0.039-0.229-0.115-0.31
			c-0.077-0.078-0.209-0.168-0.398-0.271c-0.189-0.101-0.44-0.215-0.754-0.349c-0.45-0.188-0.781-0.362-0.992-0.521
			c-0.211-0.159-0.365-0.348-0.461-0.555c-0.096-0.207-0.144-0.463-0.144-0.768c0-0.521,0.202-0.923,0.605-1.207
			c0.403-0.285,0.975-0.427,1.715-0.427c0.706,0,1.392,0.153,2.058,0.461l-0.481,1.149c-0.293-0.125-0.567-0.229-0.822-0.311
			s-0.515-0.12-0.78-0.12c-0.472,0-0.707,0.127-0.707,0.382c0,0.146,0.076,0.27,0.228,0.373c0.152,0.104,0.484,0.26,0.998,0.465
			c0.458,0.188,0.793,0.358,1.006,0.521s0.37,0.35,0.471,0.559C47.551,67.932,47.598,68.18,47.598,68.471z"/>
		<path fill="#B3B3B3" d="M51.204,69.041c0.279,0,0.614-0.061,1.005-0.184v1.188c-0.398,0.18-0.887,0.268-1.466,0.268
			c-0.639,0-1.104-0.16-1.396-0.482s-0.438-0.809-0.438-1.453v-2.82h-0.765v-0.678l0.88-0.534l0.461-1.236h1.021v1.246h1.64v1.202
			h-1.64v2.82c0,0.229,0.064,0.396,0.191,0.504C50.826,68.986,50.995,69.041,51.204,69.041z"/>
		<path fill="#B3B3B3" d="M58.606,67.27c0,0.953-0.251,1.699-0.754,2.236c-0.503,0.539-1.203,0.807-2.1,0.807
			c-0.562,0-1.058-0.123-1.487-0.369c-0.43-0.243-0.759-0.6-0.99-1.061s-0.346-0.998-0.346-1.613c0-0.955,0.25-1.699,0.749-2.229
			c0.499-0.531,1.201-0.796,2.105-0.796c0.562,0,1.058,0.122,1.487,0.366c0.43,0.244,0.76,0.596,0.99,1.053
			C58.491,66.119,58.606,66.656,58.606,67.27z M54.558,67.27c0,0.58,0.095,1.021,0.286,1.316c0.19,0.295,0.5,0.443,0.93,0.443
			c0.426,0,0.732-0.146,0.919-0.441s0.28-0.734,0.28-1.318c0-0.578-0.094-1.014-0.283-1.303c-0.188-0.289-0.498-0.436-0.927-0.436
			c-0.426,0-0.733,0.145-0.921,0.433C54.653,66.252,54.558,66.688,54.558,67.27z"/>
		<path fill="#B3B3B3" d="M65.062,70.209h-1.598v-3.42c0-0.422-0.071-0.74-0.212-0.951c-0.142-0.212-0.364-0.316-0.668-0.316
			c-0.408,0-0.705,0.149-0.89,0.449c-0.185,0.301-0.278,0.795-0.278,1.482v2.756h-1.597v-5.856h1.22l0.215,0.749h0.089
			c0.157-0.269,0.384-0.479,0.681-0.631c0.296-0.152,0.637-0.228,1.021-0.228c0.876,0,1.47,0.286,1.781,0.858h0.141
			c0.157-0.272,0.389-0.483,0.694-0.634c0.305-0.149,0.649-0.225,1.034-0.225c0.662,0,1.164,0.17,1.506,0.511
			c0.34,0.34,0.51,0.886,0.51,1.636v3.818h-1.604v-3.42c0-0.422-0.07-0.74-0.211-0.951c-0.146-0.212-0.364-0.316-0.668-0.316
			c-0.395,0-0.687,0.143-0.877,0.418c-0.194,0.279-0.291,0.726-0.291,1.33v2.941H65.062z"/>
		<path fill="#B3B3B3" d="M75.391,69.041c0.278,0,0.613-0.061,1.006-0.184v1.188c-0.396,0.18-0.888,0.268-1.467,0.268
			c-0.64,0-1.104-0.16-1.396-0.482s-0.438-0.809-0.438-1.453v-2.82H72.33v-0.678l0.88-0.534l0.461-1.236h1.021v1.246h1.645v1.202
			h-1.645v2.82c0,0.229,0.064,0.396,0.191,0.504C75.012,68.986,75.182,69.041,75.391,69.041z"/>
		<path fill="#B3B3B3" d="M76.634,64.353h1.748l1.104,3.295c0.096,0.285,0.16,0.625,0.193,1.016h0.029
			c0.038-0.359,0.113-0.699,0.229-1.016l1.084-3.295h1.713l-2.479,6.604c-0.228,0.611-0.551,1.068-0.971,1.373
			c-0.423,0.303-0.912,0.455-1.476,0.455c-0.274,0-0.549-0.029-0.812-0.09V71.43c0.191,0.045,0.4,0.066,0.628,0.066
			c0.283,0,0.53-0.086,0.742-0.258c0.211-0.174,0.375-0.434,0.493-0.783l0.095-0.289L76.634,64.353z"/>
		<path fill="#B3B3B3" d="M86.682,70.312c-0.688,0-1.228-0.248-1.619-0.748H84.98c0.055,0.486,0.082,0.771,0.082,0.85v2.373h-1.6
			v-8.432h1.303l0.225,0.76h0.072c0.375-0.579,0.928-0.869,1.66-0.869c0.688,0,1.23,0.267,1.625,0.801
			c0.391,0.534,0.586,1.276,0.586,2.227c0,0.625-0.096,1.168-0.274,1.629c-0.185,0.463-0.444,0.812-0.783,1.055
			C87.536,70.193,87.139,70.312,86.682,70.312z M86.21,65.521c-0.396,0-0.685,0.121-0.864,0.36
			c-0.182,0.244-0.275,0.646-0.283,1.203v0.172c0,0.632,0.098,1.078,0.28,1.354c0.188,0.271,0.482,0.408,0.888,0.408
			c0.72,0,1.074-0.59,1.074-1.771c0-0.576-0.089-1.008-0.265-1.296C86.863,65.666,86.587,65.521,86.21,65.521z"/>
		<path fill="#B3B3B3" d="M92.796,70.312c-0.942,0-1.68-0.262-2.211-0.777c-0.53-0.521-0.795-1.26-0.795-2.212
			c0-0.979,0.244-1.738,0.735-2.274c0.49-0.536,1.168-0.804,2.033-0.804c0.828,0,1.474,0.235,1.934,0.707
			c0.461,0.471,0.691,1.121,0.691,1.953v0.774h-3.776c0.018,0.451,0.151,0.807,0.403,1.062c0.252,0.254,0.604,0.383,1.058,0.383
			c0.354,0,0.688-0.037,1.001-0.108c0.314-0.072,0.643-0.188,0.984-0.353V69.9c-0.279,0.139-0.578,0.242-0.896,0.311
			C93.641,70.279,93.253,70.312,92.796,70.312z M92.57,65.379c-0.34,0-0.604,0.107-0.797,0.322c-0.191,0.215-0.303,0.52-0.33,0.914
			h2.242c-0.011-0.396-0.11-0.699-0.312-0.914C93.178,65.487,92.909,65.379,92.57,65.379z"/>
	</g>
	<g>
		<circle fill="#FFFFFF" stroke="#F15A24" stroke-miterlimit="10" cx="27.459" cy="22.019" r="16"/>
		<g>
			<path fill="#F05A29" d="M32.348,14.365v-3.401h-3.401v3.401H25.55v-3.401h-3.401v3.401H18.75v16.998h17V14.365H32.348z
				 M21.205,22.906c0,0,5.483-7.463,12.227,0C33.432,22.906,27.948,30.545,21.205,22.906z"/>
			<path fill="#F05A29" d="M27.317,20.641c-1.271,0-2.303,1.033-2.303,2.306c0,1.27,1.031,2.303,2.303,2.303
				c1.274,0,2.306-1.033,2.306-2.303C29.623,21.674,28.592,20.641,27.317,20.641z M27.317,24.464c-0.837,0-1.518-0.681-1.518-1.518
				c0-0.841,0.681-1.521,1.518-1.521c0.84,0,1.521,0.68,1.521,1.521C28.838,23.784,28.157,24.464,27.317,24.464z"/>
		</g>
	</g>
	<path fill="#B3B3B3" d="M63.35,75.404v11.098h14.207V75.404H63.35z M66.893,76.775c0.773,0,1.404,0.633,1.404,1.406
		c0,0.771-0.631,1.406-1.404,1.406c-0.779,0-1.406-0.635-1.406-1.406C65.486,77.408,66.113,76.775,66.893,76.775z M65.12,85.172
		l1.827-3.059l0.578,0.975l1.246,2.084H65.12z M69.945,85.172l-1.521-2.615l2.378-2.662l5.253,5.277H69.945z"/>
	<path fill="#B3B3B3" d="M79.85,75.404v11.098h14.209V75.404H79.85z M83.393,76.775c0.773,0,1.404,0.633,1.404,1.406
		c0,0.771-0.631,1.406-1.404,1.406c-0.779,0-1.406-0.635-1.406-1.406C81.986,77.408,82.613,76.775,83.393,76.775z M81.621,85.172
		l1.826-3.059l0.578,0.975l1.246,2.084H81.621z M86.445,85.172l-1.521-2.615l2.378-2.662l5.253,5.277H86.445z"/>
	<path fill="#B3B3B3" d="M60.932,86.625v-10.9c0-0.225-0.184-0.41-0.41-0.41H31.696c-0.227,0-0.409,0.188-0.409,0.41V99.73
		c0,0.225,0.183,0.41,0.409,0.41h28.825c0.227,0,0.41-0.188,0.41-0.41V86.633c0,0,0.002-0.002,0.002-0.004L60.932,86.625z
		 M47.805,86.219h-4.688v-4.578h4.688V86.219z M60.113,86.219H48.625v-4.578h11.488V86.219z M42.298,86.219h-4.687v-4.578h4.687
		V86.219z M37.611,87.039h4.687v4.793h-4.687V87.039z M37.611,92.65h4.687v6.67h-4.687V92.65z M43.118,92.65h4.688v6.67h-4.688
		V92.65z M43.118,87.039h4.688v4.793h-4.688V87.039z M48.625,87.039h11.488v4.793H48.625V87.039z M60.113,80.82H37.612v-4.688
		h22.501V80.82z M36.792,80.82h-4.686v-4.688h4.686V80.82z M32.106,81.641h4.686v17.68h-4.686V81.641z M48.625,92.65h11.488v6.67
		H48.625V92.65z"/>
	<rect x="63.625" y="88.92" fill="#B3B3B3" width="27.324" height="2.488"/>
	<rect x="63.625" y="93.215" fill="#B3B3B3" width="30.445" height="2.486"/>
	<rect x="63.625" y="97.512" fill="#B3B3B3" width="23.068" height="2.486"/>
</g>
</svg>
