<?xml version="1.0" encoding="utf-8"?>
<!-- Generator: Adobe Illustrator 16.0.0, SVG Export Plug-In . SVG Version: 6.00 Build 0)  -->
<!DOCTYPE svg PUBLIC "-//W3C//DTD SVG 1.1 Tiny//EN" "http://www.w3.org/Graphics/SVG/1.1/DTD/svg11-tiny.dtd">
<svg version="1.1" baseProfile="tiny" id="Layer_1" xmlns="http://www.w3.org/2000/svg" xmlns:xlink="http://www.w3.org/1999/xlink"
	 x="0px" y="0px" width="130px" height="130px" viewBox="0 0 130 130" xml:space="preserve">
<g>
	<polygon fill="#F15A24" points="57.437,66.451 57.437,67.033 93.15,67.033 93.15,38.593 56.856,38.593 56.856,67.033 
		57.437,67.033 57.437,66.451 58.018,66.451 58.018,39.751 91.99,39.751 91.99,65.872 57.437,65.872 57.437,66.451 58.018,66.451 	
		"/>
	<polygon fill="#F15A24" points="19.437,66.451 19.437,67.033 55.151,67.033 55.151,38.593 18.856,38.593 18.856,67.033 
		19.437,67.033 19.437,66.451 20.018,66.451 20.018,39.751 53.99,39.751 53.99,65.872 19.437,65.872 19.437,66.451 20.018,66.451 	
		"/>
	<polygon fill="#F15A24" points="57.437,96.619 57.437,97.199 93.15,97.199 93.15,68.76 56.856,68.76 56.856,97.199 57.437,97.199 
		57.437,96.619 58.018,96.619 58.018,69.918 91.99,69.918 91.99,96.039 57.437,96.039 57.437,96.619 58.018,96.619 	"/>
	<polygon fill="#F15A24" points="19.437,96.619 19.437,97.199 55.151,97.199 55.151,68.76 18.856,68.76 18.856,97.199 
		19.437,97.199 19.437,96.619 20.018,96.619 20.018,69.918 53.99,69.918 53.99,96.039 19.437,96.039 19.437,96.619 20.018,96.619 	
		"/>
</g>
</svg>
