<?xml version="1.0" encoding="utf-8"?>
<!-- Generator: Adobe Illustrator 16.0.0, SVG Export Plug-In . SVG Version: 6.00 Build 0)  -->
<!DOCTYPE svg PUBLIC "-//W3C//DTD SVG 1.1 Tiny//EN" "http://www.w3.org/Graphics/SVG/1.1/DTD/svg11-tiny.dtd">
<svg version="1.1" baseProfile="tiny" id="Layer_1" xmlns="http://www.w3.org/2000/svg" xmlns:xlink="http://www.w3.org/1999/xlink"
	 x="0px" y="0px" width="130px" height="130px" viewBox="0 0 130 130" xml:space="preserve">
<g>
	<polygon fill="#CCCCCC" points="110.562,36.27 110.562,35.69 20.035,35.69 20.035,15.375 109.982,15.375 109.982,36.27 
		110.562,36.27 110.562,35.69 110.562,36.27 111.145,36.27 111.145,14.214 18.873,14.214 18.873,36.85 111.145,36.85 111.145,36.27 
			"/>
	<polygon fill="#CCCCCC" points="110.562,115.205 110.562,114.625 20.021,114.625 20.021,100.115 109.982,100.115 109.982,115.205 
		110.562,115.205 110.562,114.625 110.562,115.205 111.145,115.205 111.145,98.953 18.859,98.953 18.859,115.785 111.145,115.785 
		111.145,115.205 	"/>
	<polygon fill="#CCCCCC" points="95.473,96.633 96.055,96.633 96.055,39.751 109.982,39.751 109.982,96.053 95.473,96.053 
		95.473,96.633 96.055,96.633 95.473,96.633 95.473,97.213 111.145,97.213 111.145,38.593 94.893,38.593 94.893,97.213 
		95.473,97.213 	"/>
	<polygon fill="#F15A24" points="57.437,66.451 57.437,67.033 93.15,67.033 93.15,38.593 56.856,38.593 56.856,67.033 
		57.437,67.033 57.437,66.451 58.018,66.451 58.018,39.751 91.99,39.751 91.99,65.872 57.437,65.872 57.437,66.451 58.018,66.451 	
		"/>
	<polygon fill="#F15A24" points="19.437,66.451 19.437,67.033 55.151,67.033 55.151,38.593 18.856,38.593 18.856,67.033 
		19.437,67.033 19.437,66.451 20.018,66.451 20.018,39.751 53.99,39.751 53.99,65.872 19.437,65.872 19.437,66.451 20.018,66.451 	
		"/>
	<polygon fill="#F15A24" points="57.437,96.619 57.437,97.199 93.15,97.199 93.15,68.76 56.856,68.76 56.856,97.199 57.437,97.199 
		57.437,96.619 58.018,96.619 58.018,69.918 91.99,69.918 91.99,96.039 57.437,96.039 57.437,96.619 58.018,96.619 	"/>
	<polygon fill="#F15A24" points="19.437,96.619 19.437,97.199 55.151,97.199 55.151,68.76 18.856,68.76 18.856,97.199 
		19.437,97.199 19.437,96.619 20.018,96.619 20.018,69.918 53.99,69.918 53.99,96.039 19.437,96.039 19.437,96.619 20.018,96.619 	
		"/>
</g>
</svg>
