<?xml version="1.0" encoding="utf-8"?>
<!-- Generator: Adobe Illustrator 16.0.0, SVG Export Plug-In . SVG Version: 6.00 Build 0)  -->
<!DOCTYPE svg PUBLIC "-//W3C//DTD SVG 1.1 Tiny//EN" "http://www.w3.org/Graphics/SVG/1.1/DTD/svg11-tiny.dtd">
<svg version="1.1" baseProfile="tiny" id="Layer_1" xmlns="http://www.w3.org/2000/svg" xmlns:xlink="http://www.w3.org/1999/xlink"
	 x="0px" y="0px" width="132px" height="120px" viewBox="0 0 132 120" xml:space="preserve">
<g>
	<g>
		<g>
			<path fill="#CCCCCC" d="M104.667,99h-77V22h77V99z M28.667,98h75V23h-75V98z"/>
		</g>
		<g>
			<path fill="#CCCCCC" d="M104.667,99h-77V22h77V99z M28.667,98h75V23h-75V98z"/>
		</g>
		<g>
			<path fill="none" stroke="#CCCCCC" stroke-width="0.5" stroke-miterlimit="10" d="M104.667,99h-77V22h77V99z M28.667,98h75V23
				h-75V98z"/>
		</g>
	</g>
	<g>
		<g>
			<path fill="#CCCCCC" d="M95.667,89h-59V30h59V89z M37.667,88h57V31h-57V88z"/>
		</g>
		<g>
			<path fill="#CCCCCC" d="M95.667,89h-59V30h59V89z M37.667,88h57V31h-57V88z"/>
		</g>
		<g>
			<path fill="none" stroke="#CCCCCC" stroke-width="0.5" stroke-miterlimit="10" d="M95.667,89h-59V30h59V89z M37.667,88h57V31h-57
				V88z"/>
		</g>
	</g>
	<polygon fill="#CCCCCC" stroke="#CCCCCC" stroke-width="0.5" stroke-miterlimit="10" points="37.364,89.064 36.523,88.523 
		52.796,63.2 68.128,88.068 67.275,88.594 52.778,65.077 	"/>
	<polygon fill="#CCCCCC" stroke="#CCCCCC" stroke-width="0.5" stroke-miterlimit="10" points="94.57,87.896 72.018,50.918 
		57.841,71.999 57.011,71.439 72.059,49.064 95.425,87.374 	"/>
	<path fill="#CCCCCC" stroke="#CCCCCC" stroke-width="0.5" stroke-miterlimit="10" d="M53.019,47.244
		c-3.089,0-5.602-2.514-5.602-5.603c0-3.089,2.513-5.603,5.602-5.603c3.09,0,5.604,2.514,5.604,5.603
		C58.623,44.73,56.108,47.244,53.019,47.244z M53.019,37.039c-2.537,0-4.602,2.064-4.602,4.603s2.064,4.603,4.602,4.603
		c2.539,0,4.604-2.064,4.604-4.603S55.558,37.039,53.019,37.039z"/>
</g>
</svg>
