<?xml version="1.0" encoding="utf-8"?>
<!-- Generator: Adobe Illustrator 16.0.0, SVG Export Plug-In . SVG Version: 6.00 Build 0)  -->
<!DOCTYPE svg PUBLIC "-//W3C//DTD SVG 1.1//EN" "http://www.w3.org/Graphics/SVG/1.1/DTD/svg11.dtd">
<svg version="1.1" id="Layer_1" xmlns="http://www.w3.org/2000/svg" xmlns:xlink="http://www.w3.org/1999/xlink" x="0px" y="0px"
	 width="130px" height="130px" viewBox="0 0 130 130" enable-background="new 0 0 130 130" xml:space="preserve">
<g>
	<g>
		<g>
			<rect x="19.667" y="17" fill="#FFFFFF" width="93" height="27"/>
			<polygon fill="#F15A24" points="113.016,44.958 113.016,44.346 20.613,44.346 20.613,17.937 112.402,17.937 112.402,44.958 
				113.016,44.958 113.016,44.346 113.016,44.958 113.628,44.958 113.628,16.714 19.389,16.714 19.389,45.569 113.628,45.569 
				113.628,44.958 			"/>
			<line fill="none" stroke="#B3B3B3" stroke-width="3" stroke-miterlimit="10" x1="23.667" y1="24.5" x2="42.667" y2="24.5"/>
			<line fill="none" stroke="#B3B3B3" stroke-width="3" stroke-miterlimit="10" x1="47.667" y1="24.5" x2="63.667" y2="24.5"/>
			<line fill="none" stroke="#B3B3B3" stroke-width="2" stroke-miterlimit="10" x1="47.667" y1="30" x2="59.667" y2="30"/>
			<line fill="none" stroke="#B3B3B3" stroke-width="2" stroke-miterlimit="10" x1="47.667" y1="34" x2="60.667" y2="34"/>
			<line fill="none" stroke="#B3B3B3" stroke-width="2" stroke-miterlimit="10" x1="47.667" y1="38" x2="57.667" y2="38"/>
			<line fill="none" stroke="#B3B3B3" stroke-width="3" stroke-miterlimit="10" x1="68.667" y1="24.5" x2="85.667" y2="24.5"/>
			<line fill="none" stroke="#B3B3B3" stroke-width="3" stroke-miterlimit="10" x1="90.667" y1="24.5" x2="108.667" y2="24.5"/>
		</g>
	</g>
	<polygon fill="#F15A24" points="70.604,27.94 62.899,23.959 63.379,32.599 66.118,30.794 68.238,34.194 69.757,33.286 
		67.479,30.023 	"/>
</g>
</svg>
