<?xml version="1.0" encoding="utf-8"?>
<!-- Generator: Adobe Illustrator 16.0.0, SVG Export Plug-In . SVG Version: 6.00 Build 0)  -->
<!DOCTYPE svg PUBLIC "-//W3C//DTD SVG 1.1 Tiny//EN" "http://www.w3.org/Graphics/SVG/1.1/DTD/svg11-tiny.dtd">
<svg version="1.1" baseProfile="tiny" id="Layer_1" xmlns="http://www.w3.org/2000/svg" xmlns:xlink="http://www.w3.org/1999/xlink"
	 x="0px" y="0px" width="130px" height="130px" viewBox="0 0 130 130" xml:space="preserve">
<path fill="#B3B3B3" d="M-875.293-194.602v15.423h19.744v-15.423H-875.293z M-870.371-192.697c1.077,0,1.953,0.882,1.953,1.956
	c0,1.077-0.876,1.959-1.953,1.959c-1.082,0-1.952-0.882-1.952-1.959C-872.323-191.815-871.453-192.697-870.371-192.697z
	 M-872.833-181.026l2.538-4.25l0.804,1.352l1.733,2.898H-872.833z M-866.128-181.026l-2.11-3.635l3.303-3.701l7.298,7.336H-866.128z
	"/>
<g>
	<g>
		<polygon fill="#CCCCCC" points="108.079,112.705 108.079,112.125 17.537,112.125 17.537,97.615 107.499,97.615 107.499,112.705 
			108.079,112.705 108.079,112.125 108.079,112.705 108.659,112.705 108.659,96.453 16.375,96.453 16.375,113.285 108.659,113.285 
			108.659,112.705 		"/>
		<polygon fill="#CCCCCC" points="92.988,94.133 93.568,94.133 93.568,37.251 107.499,37.251 107.499,93.553 92.988,93.553 
			92.988,94.133 93.568,94.133 92.988,94.133 92.988,94.713 108.659,94.713 108.659,36.093 92.408,36.093 92.408,94.713 
			92.988,94.713 		"/>
		<polygon fill="#CCCCCC" points="16.952,94.287 16.952,94.867 90.648,94.867 90.648,36.093 16.372,36.093 16.372,94.867 
			16.952,94.867 16.952,94.287 17.533,94.287 17.533,37.251 89.488,37.251 89.488,93.707 16.952,93.707 16.952,94.287 
			17.533,94.287 		"/>
		<g>
			<rect x="19.667" y="17" fill="#FFFFFF" width="93" height="27"/>
			<polygon fill="#F15A24" points="113.016,44.958 113.016,44.346 20.613,44.346 20.613,17.937 112.402,17.937 112.402,44.958 
				113.016,44.958 113.016,44.346 113.016,44.958 113.628,44.958 113.628,16.714 19.389,16.714 19.389,45.569 113.628,45.569 
				113.628,44.958 			"/>
			<line fill="none" stroke="#B3B3B3" stroke-width="3" stroke-miterlimit="10" x1="23.667" y1="24.5" x2="42.667" y2="24.5"/>
			<line fill="none" stroke="#B3B3B3" stroke-width="3" stroke-miterlimit="10" x1="47.667" y1="24.5" x2="63.667" y2="24.5"/>
			<line fill="none" stroke="#B3B3B3" stroke-width="2" stroke-miterlimit="10" x1="47.667" y1="30" x2="59.667" y2="30"/>
			<line fill="none" stroke="#B3B3B3" stroke-width="2" stroke-miterlimit="10" x1="47.667" y1="34" x2="60.667" y2="34"/>
			<line fill="none" stroke="#B3B3B3" stroke-width="2" stroke-miterlimit="10" x1="47.667" y1="38" x2="57.667" y2="38"/>
			<line fill="none" stroke="#B3B3B3" stroke-width="3" stroke-miterlimit="10" x1="68.667" y1="24.5" x2="85.667" y2="24.5"/>
			<line fill="none" stroke="#B3B3B3" stroke-width="3" stroke-miterlimit="10" x1="90.667" y1="24.5" x2="108.667" y2="24.5"/>
		</g>
	</g>
	<polygon fill="#F15A24" points="70.604,27.94 62.899,23.959 63.379,32.599 66.118,30.794 68.238,34.194 69.757,33.286 
		67.479,30.023 	"/>
</g>
</svg>
