<?xml version="1.0" encoding="utf-8"?>
<!-- Generator: Adobe Illustrator 16.0.0, SVG Export Plug-In . SVG Version: 6.00 Build 0)  -->
<!DOCTYPE svg PUBLIC "-//W3C//DTD SVG 1.1 Tiny//EN" "http://www.w3.org/Graphics/SVG/1.1/DTD/svg11-tiny.dtd">
<svg version="1.1" baseProfile="tiny" id="Layer_1" xmlns="http://www.w3.org/2000/svg" xmlns:xlink="http://www.w3.org/1999/xlink"
	 x="0px" y="0px" width="130px" height="130px" viewBox="0 0 130 130" xml:space="preserve">
<g>
	<polygon fill="#CCCCCC" points="110.562,36.27 110.562,35.69 20.035,35.69 20.035,15.375 109.982,15.375 109.982,36.27 
		110.562,36.27 110.562,35.69 110.562,36.27 111.145,36.27 111.145,14.214 18.873,14.214 18.873,36.85 111.145,36.85 111.145,36.27 
			"/>
	<polygon fill="#CCCCCC" points="110.562,115.205 110.562,114.625 20.021,114.625 20.021,100.115 109.982,100.115 109.982,115.205 
		110.562,115.205 110.562,114.625 110.562,115.205 111.145,115.205 111.145,98.953 18.859,98.953 18.859,115.785 111.145,115.785 
		111.145,115.205 	"/>
	<polygon fill="#CCCCCC" points="95.473,96.633 96.055,96.633 96.055,39.751 109.982,39.751 109.982,96.053 95.473,96.053 
		95.473,96.633 96.055,96.633 95.473,96.633 95.473,97.213 111.145,97.213 111.145,38.593 94.893,38.593 94.893,97.213 
		95.473,97.213 	"/>
	<polygon fill="#F15A24" points="19.437,96.787 19.437,97.367 93.134,97.367 93.134,38.593 18.856,38.593 18.856,97.367 
		19.437,97.367 19.437,96.787 20.018,96.787 20.018,39.751 91.975,39.751 91.975,96.207 19.437,96.207 19.437,96.787 20.018,96.787 
			"/>
	<g>
		<rect x="23.779" y="45.119" fill="none" width="65.25" height="25.5"/>
		<path fill="#B3B3B3" d="M24.677,45.579h2.222c1.012,0,1.747,0.145,2.205,0.432c0.458,0.289,0.686,0.747,0.686,1.375
			c0,0.427-0.1,0.776-0.3,1.05c-0.2,0.274-0.466,0.438-0.798,0.493v0.049c0.453,0.101,0.779,0.29,0.979,0.566
			c0.2,0.276,0.3,0.645,0.3,1.104c0,0.651-0.235,1.159-0.706,1.523c-0.471,0.364-1.109,0.547-1.917,0.547h-2.671V45.579z
			 M26.19,48.406h0.879c0.41,0,0.707-0.063,0.891-0.19s0.276-0.337,0.276-0.63c0-0.273-0.1-0.47-0.3-0.589
			c-0.2-0.118-0.517-0.178-0.95-0.178H26.19V48.406z M26.19,49.607v1.86h0.986c0.417,0,0.724-0.08,0.923-0.239
			c0.199-0.159,0.298-0.403,0.298-0.732c0-0.593-0.423-0.889-1.27-0.889H26.19z"/>
		<path fill="#B3B3B3" d="M31.295,52.717v-7.139h1.514v5.889h2.896v1.25H31.295z"/>
		<path fill="#B3B3B3" d="M43.324,49.138c0,1.182-0.293,2.09-0.879,2.725c-0.586,0.635-1.426,0.952-2.52,0.952
			c-1.094,0-1.934-0.317-2.52-0.952c-0.586-0.635-0.879-1.546-0.879-2.734s0.294-2.096,0.881-2.722
			c0.587-0.627,1.43-0.94,2.527-0.94c1.097,0,1.936,0.315,2.517,0.947S43.324,47.954,43.324,49.138z M38.114,49.138
			c0,0.798,0.151,1.398,0.454,1.802c0.303,0.404,0.755,0.605,1.357,0.605c1.208,0,1.812-0.803,1.812-2.407
			c0-1.608-0.601-2.412-1.802-2.412c-0.602,0-1.056,0.202-1.362,0.608C38.267,47.739,38.114,48.34,38.114,49.138z"/>
		<path fill="#B3B3B3" d="M47.414,48.708h2.832v3.701c-0.459,0.149-0.891,0.255-1.296,0.315c-0.405,0.06-0.819,0.09-1.243,0.09
			c-1.078,0-1.9-0.316-2.468-0.949c-0.568-0.634-0.852-1.543-0.852-2.728c0-1.152,0.33-2.051,0.989-2.695s1.573-0.967,2.742-0.967
			c0.732,0,1.439,0.146,2.119,0.439l-0.503,1.211c-0.521-0.261-1.063-0.391-1.626-0.391c-0.654,0-1.178,0.22-1.572,0.659
			s-0.591,1.03-0.591,1.772c0,0.774,0.159,1.366,0.476,1.774c0.317,0.409,0.779,0.613,1.384,0.613c0.316,0,0.636-0.032,0.962-0.098
			v-1.489h-1.353V48.708z"/>
	</g>
	<g>
		<rect x="24.812" y="58.024" fill="#B3B3B3" width="55.75" height="2.488"/>
		<rect x="24.812" y="61.753" fill="#B3B3B3" width="62" height="2.485"/>
	</g>
	<g>
		<rect x="24.812" y="85.307" fill="#B3B3B3" width="61.965" height="2.488"/>
		<rect x="24.812" y="89.037" fill="#B3B3B3" width="39.25" height="2.484"/>
	</g>
	<g>
		<rect x="24.812" y="69.457" fill="#B3B3B3" width="55.75" height="2.488"/>
		<rect x="24.812" y="73.188" fill="#B3B3B3" width="62" height="2.484"/>
		<rect x="24.812" y="76.916" fill="#B3B3B3" width="49.25" height="2.486"/>
	</g>
</g>
</svg>
