<?xml version="1.0" encoding="utf-8"?>
<!-- Generator: Adobe Illustrator 16.0.0, SVG Export Plug-In . SVG Version: 6.00 Build 0)  -->
<!DOCTYPE svg PUBLIC "-//W3C//DTD SVG 1.1 Tiny//EN" "http://www.w3.org/Graphics/SVG/1.1/DTD/svg11-tiny.dtd">
<svg version="1.1" baseProfile="tiny" id="Layer_1" xmlns="http://www.w3.org/2000/svg" xmlns:xlink="http://www.w3.org/1999/xlink"
	 x="0px" y="0px" width="130px" height="130px" viewBox="0 0 130 130" xml:space="preserve">
<g>
	<polygon fill="#F15A24" points="19.437,96.787 19.437,97.367 93.134,97.367 93.134,38.593 18.856,38.593 18.856,97.367 
		19.437,97.367 19.437,96.787 20.018,96.787 20.018,39.751 91.975,39.751 91.975,96.207 19.437,96.207 19.437,96.787 20.018,96.787 
			"/>
	<g>
		<path fill="#B3B3B3" d="M29.677,53.285h-1.509v-3.081h-2.827v3.081h-1.514v-7.139h1.514v2.798h2.827v-2.798h1.509V53.285z"/>
		<path fill="#B3B3B3" d="M33.732,53.383c-0.879,0-1.565-0.242-2.061-0.728c-0.495-0.485-0.742-1.172-0.742-2.062
			c0-0.915,0.229-1.622,0.687-2.122c0.457-0.5,1.089-0.75,1.896-0.75c0.771,0,1.372,0.22,1.802,0.659s0.645,1.047,0.645,1.821v0.723
			h-3.521c0.017,0.423,0.142,0.754,0.376,0.991c0.234,0.238,0.563,0.356,0.986,0.356c0.329,0,0.64-0.034,0.933-0.103
			s0.599-0.177,0.918-0.327v1.152c-0.261,0.13-0.539,0.227-0.835,0.291C34.52,53.348,34.159,53.383,33.732,53.383z M33.522,48.783
			c-0.315,0-0.563,0.1-0.742,0.3c-0.179,0.2-0.281,0.484-0.308,0.852h2.09c-0.007-0.368-0.103-0.652-0.288-0.852
			S33.838,48.783,33.522,48.783z"/>
		<path fill="#B3B3B3" d="M38.559,53.285H37.07v-7.598h1.489V53.285z"/>
		<path fill="#B3B3B3" d="M41.521,53.285h-1.489v-7.598h1.489V53.285z"/>
		<path fill="#B3B3B3" d="M47.944,50.546c0,0.889-0.234,1.584-0.703,2.085c-0.469,0.501-1.121,0.752-1.958,0.752
			c-0.524,0-0.986-0.115-1.387-0.344s-0.708-0.559-0.923-0.989c-0.215-0.43-0.322-0.931-0.322-1.504c0-0.892,0.232-1.585,0.698-2.08
			c0.466-0.495,1.12-0.742,1.963-0.742c0.524,0,0.986,0.114,1.387,0.342c0.4,0.228,0.708,0.555,0.923,0.981
			C47.837,49.474,47.944,49.973,47.944,50.546z M44.17,50.546c0,0.541,0.089,0.949,0.267,1.226c0.177,0.277,0.466,0.415,0.866,0.415
			c0.397,0,0.683-0.138,0.856-0.413c0.175-0.275,0.262-0.684,0.262-1.228c0-0.54-0.088-0.945-0.264-1.216
			c-0.176-0.27-0.464-0.405-0.864-0.405c-0.397,0-0.684,0.134-0.859,0.403C44.259,49.597,44.17,50.002,44.17,50.546z"/>
		<path fill="#B3B3B3" d="M56.06,53.285l-0.42-1.909l-0.566-2.412H55.04l-0.996,4.321h-1.602l-1.553-5.459h1.484l0.63,2.417
			c0.101,0.433,0.203,1.03,0.308,1.792h0.029c0.013-0.247,0.07-0.64,0.171-1.177l0.078-0.415l0.674-2.617h1.641l0.64,2.617
			c0.013,0.072,0.033,0.178,0.062,0.317c0.027,0.14,0.054,0.289,0.08,0.447s0.05,0.313,0.07,0.464
			c0.021,0.151,0.034,0.273,0.037,0.364h0.029c0.029-0.234,0.081-0.556,0.156-0.964c0.075-0.408,0.129-0.684,0.161-0.828
			l0.654-2.417h1.46l-1.572,5.459H56.06z"/>
		<path fill="#B3B3B3" d="M64.992,50.546c0,0.889-0.234,1.584-0.703,2.085c-0.469,0.501-1.121,0.752-1.958,0.752
			c-0.524,0-0.986-0.115-1.387-0.344c-0.401-0.229-0.708-0.559-0.923-0.989c-0.215-0.43-0.322-0.931-0.322-1.504
			c0-0.892,0.232-1.585,0.698-2.08c0.466-0.495,1.12-0.742,1.963-0.742c0.524,0,0.986,0.114,1.387,0.342
			c0.4,0.228,0.708,0.555,0.923,0.981C64.885,49.474,64.992,49.973,64.992,50.546z M61.218,50.546c0,0.541,0.089,0.949,0.266,1.226
			c0.178,0.277,0.467,0.415,0.867,0.415c0.397,0,0.683-0.138,0.857-0.413s0.261-0.684,0.261-1.228c0-0.54-0.088-0.945-0.264-1.216
			c-0.176-0.27-0.464-0.405-0.864-0.405c-0.397,0-0.684,0.134-0.859,0.403C61.307,49.597,61.218,50.002,61.218,50.546z"/>
		<path fill="#B3B3B3" d="M69.18,47.724c0.202,0,0.369,0.015,0.504,0.044l-0.113,1.396c-0.117-0.032-0.266-0.049-0.438-0.049
			c-0.476,0-0.846,0.122-1.109,0.366c-0.267,0.244-0.396,0.586-0.396,1.025v2.778h-1.488v-5.459h1.129l0.219,0.918h0.074
			c0.168-0.306,0.396-0.553,0.687-0.74C68.527,47.817,68.841,47.724,69.18,47.724z"/>
		<path fill="#B3B3B3" d="M72.062,53.285h-1.487v-7.598h1.487V53.285z"/>
		<path fill="#B3B3B3" d="M75.254,53.383c-0.643,0-1.146-0.249-1.511-0.747c-0.367-0.498-0.55-1.188-0.55-2.07
			c0-0.895,0.187-1.593,0.56-2.092c0.372-0.5,0.886-0.75,1.54-0.75c0.688,0,1.211,0.267,1.572,0.801h0.049
			c-0.075-0.407-0.112-0.77-0.112-1.089v-1.748h1.494v7.598h-1.144l-0.287-0.708h-0.063C76.463,53.114,75.947,53.383,75.254,53.383z
			 M75.775,52.196c0.382,0,0.66-0.11,0.838-0.332c0.178-0.221,0.273-0.597,0.291-1.128v-0.161c0-0.586-0.092-1.006-0.271-1.26
			c-0.182-0.254-0.475-0.381-0.882-0.381c-0.332,0-0.59,0.141-0.774,0.422c-0.184,0.282-0.272,0.691-0.272,1.228
			s0.093,0.94,0.276,1.208C75.165,52.06,75.432,52.196,75.775,52.196z"/>
		<path fill="#B3B3B3" d="M79.544,52.587c0-0.273,0.073-0.48,0.22-0.62c0.146-0.14,0.359-0.21,0.641-0.21
			c0.271,0,0.479,0.072,0.629,0.215c0.146,0.144,0.223,0.349,0.223,0.615c0,0.257-0.072,0.46-0.227,0.608
			c-0.148,0.148-0.356,0.222-0.625,0.222c-0.271,0-0.483-0.072-0.635-0.217C79.619,53.055,79.544,52.851,79.544,52.587z
			 M81.004,50.917h-1.191l-0.248-4.771h1.688L81.004,50.917z"/>
	</g>
	<rect x="23.845" y="59.52" fill="#B3B3B3" width="63.5" height="2.488"/>
	<rect x="23.845" y="64.02" fill="#B3B3B3" width="63.5" height="2.488"/>
	<rect x="23.845" y="68.52" fill="#B3B3B3" width="63.5" height="2.488"/>
	<rect x="23.845" y="73.02" fill="#B3B3B3" width="63.5" height="2.488"/>
	<rect x="23.845" y="77.52" fill="#B3B3B3" width="63.5" height="2.488"/>
	<rect x="23.845" y="82.02" fill="#B3B3B3" width="63.5" height="2.488"/>
	<rect x="23.845" y="86.52" fill="#B3B3B3" width="19.75" height="2.488"/>
</g>
</svg>
