<?xml version="1.0" encoding="utf-8"?>
<!-- Generator: Adobe Illustrator 16.0.0, SVG Export Plug-In . SVG Version: 6.00 Build 0)  -->
<!DOCTYPE svg PUBLIC "-//W3C//DTD SVG 1.1 Tiny//EN" "http://www.w3.org/Graphics/SVG/1.1/DTD/svg11-tiny.dtd">
<svg version="1.1" baseProfile="tiny" id="Layer_1" xmlns="http://www.w3.org/2000/svg" xmlns:xlink="http://www.w3.org/1999/xlink"
	 x="0px" y="0px" width="132px" height="120px" viewBox="0 0 132 120" xml:space="preserve">
<g>
	<g>
		<g>
			<g>
				<path fill="#CCCCCC" d="M105.667,98h-84V23h84V98z M22.667,97h82V24h-82V97z"/>
			</g>
			<g>
				<path fill="#CCCCCC" d="M105.667,98h-84V23h84V98z M22.667,97h82V24h-82V97z"/>
			</g>
			<g>
				<path fill="none" stroke="#CCCCCC" stroke-width="0.5" stroke-miterlimit="10" d="M105.667,98h-84V23h84V98z M22.667,97h82V24
					h-82V97z"/>
			</g>
		</g>
		<g>
			<circle fill="#B3B3B3" cx="53.426" cy="84.49" r="2.893"/>
			<circle fill="#B3B3B3" cx="63.946" cy="84.49" r="2.893"/>
			<circle fill="#B3B3B3" cx="74.468" cy="84.49" r="2.894"/>
		</g>
	</g>
	<g>
		<path fill="#B3B3B3" d="M69.848,34.973v23.642h30.264V34.973H69.848z M77.393,37.893c1.65,0,2.994,1.352,2.994,2.998
			c0,1.65-1.344,3.003-2.994,3.003c-1.658,0-2.992-1.353-2.992-3.003C74.4,39.244,75.734,37.893,77.393,37.893z M73.619,55.781
			l3.891-6.515l1.232,2.072l2.656,4.442L73.619,55.781L73.619,55.781z M83.896,55.781l-3.234-5.571l5.062-5.673l11.188,11.244
			H83.896z"/>
		<rect x="30.478" y="34.973" fill="#B3B3B3" width="35.729" height="6.1"/>
		<rect x="30.478" y="44.115" fill="#B3B3B3" width="35.729" height="6.095"/>
		<rect x="30.478" y="53.26" fill="#B3B3B3" width="35.729" height="6.097"/>
		<rect x="30.478" y="62.4" fill="#B3B3B3" width="69.252" height="6.1"/>
	</g>
	<g>
		<path fill="#F15A24" d="M128.035,59.512c-0.112,0-0.225-0.04-0.314-0.121l-11.9-10.776c-0.189-0.173-0.207-0.469-0.031-0.659
			c0.174-0.193,0.469-0.208,0.66-0.034l11.9,10.776c0.191,0.174,0.205,0.469,0.032,0.66
			C128.289,59.46,128.162,59.512,128.035,59.512z"/>
		<path fill="#F15A24" d="M116.134,70.285c-0.128,0-0.254-0.053-0.347-0.154c-0.174-0.191-0.158-0.488,0.033-0.661l11.9-10.771
			c0.189-0.174,0.486-0.159,0.659,0.033c0.175,0.191,0.157,0.487-0.032,0.66l-11.9,10.773
			C116.357,70.245,116.246,70.285,116.134,70.285z"/>
	</g>
	<g>
		<path fill="#F15A24" d="M3.965,59.512c0.112,0,0.225-0.04,0.313-0.121L16.18,48.614c0.192-0.173,0.206-0.469,0.033-0.659
			c-0.174-0.193-0.47-0.208-0.661-0.034l-11.9,10.776c-0.192,0.174-0.207,0.469-0.033,0.66C3.711,59.46,3.838,59.512,3.965,59.512z"
			/>
		<path fill="#F15A24" d="M15.866,70.285c0.127,0,0.254-0.053,0.347-0.154c0.173-0.191,0.158-0.488-0.033-0.661L4.278,58.697
			c-0.191-0.174-0.487-0.159-0.66,0.033c-0.174,0.191-0.158,0.487,0.033,0.66l11.9,10.773
			C15.642,70.245,15.754,70.285,15.866,70.285z"/>
	</g>
</g>
</svg>
