<?xml version="1.0" encoding="utf-8"?>
<!-- Generator: Adobe Illustrator 16.0.0, SVG Export Plug-In . SVG Version: 6.00 Build 0)  -->
<!DOCTYPE svg PUBLIC "-//W3C//DTD SVG 1.1 Tiny//EN" "http://www.w3.org/Graphics/SVG/1.1/DTD/svg11-tiny.dtd">
<svg version="1.1" baseProfile="tiny" id="Layer_1" xmlns="http://www.w3.org/2000/svg" xmlns:xlink="http://www.w3.org/1999/xlink"
	 x="0px" y="0px" width="130px" height="130px" viewBox="0 0 130 130" xml:space="preserve">
<g>
	<line fill="none" x1="114.417" y1="80.18" x2="115.667" y2="83.93"/>
	<g>
		<polygon fill="#CCCCCC" points="117.909,44.483 117.909,43.903 27.383,43.903 27.383,23.588 117.329,23.588 117.329,44.483 
			117.909,44.483 117.909,43.903 117.909,44.483 118.491,44.483 118.491,22.428 26.221,22.428 26.221,45.063 118.491,45.063 
			118.491,44.483 		"/>
		<polygon fill="#CCCCCC" points="117.909,123.42 117.909,122.84 27.368,122.84 27.368,108.328 117.329,108.328 117.329,123.42 
			117.909,123.42 117.909,122.84 117.909,123.42 118.491,123.42 118.491,107.168 26.207,107.168 26.207,124 118.491,124 
			118.491,123.42 		"/>
		<polygon fill="#CCCCCC" points="102.818,104.848 103.4,104.848 103.4,47.965 117.329,47.965 117.329,104.266 102.818,104.266 
			102.818,104.848 103.4,104.848 102.818,104.848 102.818,105.426 118.491,105.426 118.491,46.807 102.238,46.807 102.238,105.426 
			102.818,105.426 		"/>
		<polygon fill="#F15A24" points="64.784,74.666 64.784,75.246 100.499,75.246 100.499,46.807 64.204,46.807 64.204,75.246 
			64.784,75.246 64.784,74.666 65.365,74.666 65.365,47.965 99.337,47.965 99.337,74.086 64.784,74.086 64.784,74.666 
			65.365,74.666 		"/>
		<g>
			<path fill="#B3B3B3" d="M84.249,51.733v9.643h12.344v-9.643H84.249z M87.327,52.925c0.674,0,1.221,0.551,1.221,1.223
				c0,0.673-0.547,1.225-1.221,1.225c-0.677,0-1.222-0.552-1.222-1.225C86.105,53.476,86.65,52.925,87.327,52.925z M85.788,60.221
				l1.588-2.657l0.502,0.846l1.084,1.812L85.788,60.221L85.788,60.221z M89.979,60.221l-1.316-2.272l2.062-2.313l4.563,4.586
				L89.979,60.221L89.979,60.221z"/>
			<rect x="68.191" y="51.733" fill="#B3B3B3" width="14.572" height="2.488"/>
			<rect x="68.191" y="55.463" fill="#B3B3B3" width="14.572" height="2.485"/>
			<rect x="68.191" y="59.192" fill="#B3B3B3" width="14.572" height="2.486"/>
			<rect x="68.191" y="62.921" fill="#B3B3B3" width="28.246" height="2.487"/>
		</g>
		<polygon fill="#F15A24" points="26.784,74.666 26.784,75.246 62.499,75.246 62.499,46.807 26.204,46.807 26.204,75.246 
			26.784,75.246 26.784,74.666 27.365,74.666 27.365,47.965 61.338,47.965 61.338,74.086 26.784,74.086 26.784,74.666 
			27.365,74.666 		"/>
		<g>
			<path fill="#B3B3B3" d="M46.25,51.733v9.643h12.344v-9.643H46.25z M49.328,52.925c0.673,0,1.221,0.551,1.221,1.223
				c0,0.673-0.548,1.225-1.221,1.225c-0.677,0-1.221-0.552-1.221-1.225C48.107,53.476,48.651,52.925,49.328,52.925z M47.789,60.221
				l1.587-2.657l0.502,0.846l1.084,1.812L47.789,60.221L47.789,60.221z M51.98,60.221l-1.319-2.272l2.065-2.313l4.563,4.586
				L51.98,60.221L51.98,60.221z"/>
			<rect x="30.192" y="51.733" fill="#B3B3B3" width="14.573" height="2.488"/>
			<rect x="30.192" y="55.463" fill="#B3B3B3" width="14.573" height="2.485"/>
			<rect x="30.192" y="59.192" fill="#B3B3B3" width="14.573" height="2.486"/>
			<rect x="30.192" y="62.921" fill="#B3B3B3" width="28.246" height="2.487"/>
		</g>
		<polygon fill="#F15A24" points="64.784,104.832 64.784,105.414 100.499,105.414 100.499,76.975 64.204,76.975 64.204,105.414 
			64.784,105.414 64.784,104.832 65.365,104.832 65.365,78.133 99.337,78.133 99.337,104.252 64.784,104.252 64.784,104.832 
			65.365,104.832 		"/>
		<g>
			<path fill="#B3B3B3" d="M84.249,81.9v9.643h12.344V81.9H84.249z M87.327,83.092c0.674,0,1.221,0.551,1.221,1.223
				c0,0.676-0.547,1.227-1.221,1.227c-0.677,0-1.222-0.551-1.222-1.227C86.105,83.643,86.65,83.092,87.327,83.092z M85.788,90.389
				l1.588-2.658l0.502,0.848l1.084,1.812h-3.174V90.389z M89.979,90.389l-1.316-2.271l2.062-2.312l4.563,4.586h-5.31V90.389z"/>
			<rect x="68.191" y="81.9" fill="#B3B3B3" width="14.572" height="2.488"/>
			<rect x="68.191" y="85.631" fill="#B3B3B3" width="14.572" height="2.484"/>
			<rect x="68.191" y="89.359" fill="#B3B3B3" width="14.572" height="2.486"/>
			<rect x="68.191" y="93.088" fill="#B3B3B3" width="28.246" height="2.488"/>
		</g>
		<polygon fill="#F15A24" points="26.784,104.832 26.784,105.414 62.499,105.414 62.499,76.975 26.204,76.975 26.204,105.414 
			26.784,105.414 26.784,104.832 27.365,104.832 27.365,78.133 61.338,78.133 61.338,104.252 26.784,104.252 26.784,104.832 
			27.365,104.832 		"/>
		<g>
			<path fill="#B3B3B3" d="M46.25,81.9v9.643h12.344V81.9H46.25z M49.328,83.092c0.673,0,1.221,0.551,1.221,1.223
				c0,0.676-0.548,1.227-1.221,1.227c-0.677,0-1.221-0.551-1.221-1.227C48.107,83.643,48.651,83.092,49.328,83.092z M47.789,90.389
				l1.587-2.658l0.502,0.848l1.084,1.812h-3.173V90.389z M51.98,90.389l-1.319-2.271l2.065-2.312l4.563,4.586H51.98V90.389z"/>
			<rect x="30.192" y="81.9" fill="#B3B3B3" width="14.573" height="2.488"/>
			<rect x="30.192" y="85.631" fill="#B3B3B3" width="14.573" height="2.484"/>
			<rect x="30.192" y="89.359" fill="#B3B3B3" width="14.573" height="2.486"/>
			<rect x="30.192" y="93.088" fill="#B3B3B3" width="28.246" height="2.488"/>
		</g>
		<circle fill="#FFFFFF" stroke="#F15A24" stroke-miterlimit="10" cx="27.667" cy="22" r="16"/>
		<g>
			<path fill="#F05A29" d="M32.081,14.346v-3.401h-3.4v3.401h-3.397v-3.401h-3.401v3.401h-3.4v16.998h17V14.346H32.081z
				 M20.939,22.887c0,0,5.483-7.463,12.227,0C33.166,22.887,27.683,30.526,20.939,22.887z"/>
			<path fill="#F05A29" d="M27.052,20.622c-1.272,0-2.303,1.033-2.303,2.306c0,1.271,1.03,2.303,2.303,2.303
				c1.273,0,2.305-1.033,2.305-2.303C29.356,21.655,28.325,20.622,27.052,20.622z M27.052,24.445c-0.838,0-1.518-0.681-1.518-1.518
				c0-0.841,0.68-1.521,1.518-1.521c0.84,0,1.52,0.68,1.52,1.521C28.571,23.765,27.892,24.445,27.052,24.445z"/>
		</g>
	</g>
</g>
</svg>
