<?xml version="1.0" encoding="utf-8"?>
<!-- Generator: Adobe Illustrator 16.0.0, SVG Export Plug-In . SVG Version: 6.00 Build 0)  -->
<!DOCTYPE svg PUBLIC "-//W3C//DTD SVG 1.1 Tiny//EN" "http://www.w3.org/Graphics/SVG/1.1/DTD/svg11-tiny.dtd">
<svg version="1.1" baseProfile="tiny" id="Layer_1" xmlns="http://www.w3.org/2000/svg" xmlns:xlink="http://www.w3.org/1999/xlink"
	 x="0px" y="0px" width="120px" height="120px" viewBox="0 0 120 120" xml:space="preserve">
<g>
	<g>
		<g>
			<path fill="#B3B3B3" d="M20.332,30.033h3.289c1.498,0,2.586,0.213,3.263,0.64c0.677,0.426,1.016,1.104,1.016,2.034
				c0,0.631-0.148,1.148-0.444,1.554c-0.296,0.404-0.69,0.647-1.182,0.729v0.072c0.669,0.149,1.152,0.429,1.449,0.839
				c0.296,0.409,0.444,0.954,0.444,1.633c0,0.964-0.348,1.716-1.044,2.255c-0.696,0.54-1.642,0.81-2.837,0.81h-3.953L20.332,30.033
				L20.332,30.033z M22.572,34.217h1.301c0.607,0,1.046-0.094,1.319-0.281c0.272-0.188,0.408-0.499,0.408-0.933
				c0-0.404-0.148-0.694-0.444-0.871c-0.296-0.176-0.765-0.264-1.406-0.264h-1.178V34.217z M22.572,35.995v2.753h1.459
				c0.617,0,1.072-0.117,1.366-0.354c0.293-0.236,0.441-0.598,0.441-1.084c0-0.877-0.626-1.315-1.879-1.315H22.572z"/>
			<path fill="#B3B3B3" d="M45.709,38.969c-0.204,0.752,0.063,1.065,0.611,1.065h0.58c0.094,0,0.109,0.063,0.094,0.157l-0.047,0.329
				c-0.016,0.094-0.031,0.125-0.188,0.125c-0.172,0-0.909-0.047-2.664-0.047c-1.395,0-2.147,0.047-2.319,0.047
				c-0.11,0-0.141-0.047-0.125-0.156l0.079-0.36c0.016-0.063,0.031-0.095,0.125-0.095h0.517c0.925,0,0.987-0.313,1.207-1.128
				l1.958-7.209c0.204-0.768-0.063-1.034-0.329-1.034h-0.721c-0.125,0-0.157-0.031-0.141-0.125l0.079-0.392
				c0.016-0.063,0.063-0.095,0.204-0.095c0.188,0,1.019,0.048,2.429,0.048c1.364,0,2.038-0.048,2.257-0.048
				c0.157,0,0.204,0.063,0.172,0.188l-0.078,0.298c-0.016,0.078-0.047,0.125-0.172,0.125H48.75c-0.408,0-0.831,0.157-1.082,1.082
				L45.709,38.969z"/>
			<path fill="#B3B3B3" d="M74.354,30.033v6.836c0,1.205-0.36,2.151-1.092,2.841c-0.727,0.688-1.727,1.033-2.998,1.033
				c-1.271,0-2.257-0.347-2.953-1.041c-0.692-0.693-1.043-1.647-1.043-2.861v-6.808h1.229v6.895c0,0.881,0.239,1.559,0.724,2.03
				c0.48,0.473,1.189,0.708,2.125,0.708c0.893,0,1.576-0.237,2.062-0.712c0.479-0.474,0.723-1.154,0.723-2.041v-6.88H74.354z"/>
			<path fill="#B3B3B3" d="M64.922,42.08v-0.737h10.775v0.737H64.922z"/>
		</g>
		<g>
			
				<rect x="20.028" y="54.456" fill="#B3B3B3" stroke="#B3B3B3" stroke-width="0.7011" stroke-miterlimit="10" width="11.116" height="0.729"/>
			
				<rect x="20.028" y="57.73" fill="#B3B3B3" stroke="#B3B3B3" stroke-width="0.7011" stroke-miterlimit="10" width="11.116" height="0.729"/>
			
				<rect x="20.028" y="57.73" fill="#B3B3B3" stroke="#B3B3B3" stroke-width="0.7011" stroke-miterlimit="10" width="14.21" height="0.729"/>
			
				<rect x="20.028" y="61.007" fill="#B3B3B3" stroke="#B3B3B3" stroke-width="0.7011" stroke-miterlimit="10" width="12.39" height="0.728"/>
			
				<rect x="20.028" y="64.281" fill="#B3B3B3" stroke="#B3B3B3" stroke-width="0.7011" stroke-miterlimit="10" width="15.362" height="0.729"/>
			
				<rect x="53.897" y="54.456" fill="#B3B3B3" stroke="#B3B3B3" stroke-width="0.7011" stroke-miterlimit="10" width="11.117" height="0.729"/>
			
				<rect x="53.897" y="57.73" fill="#B3B3B3" stroke="#B3B3B3" stroke-width="0.7011" stroke-miterlimit="10" width="11.117" height="0.729"/>
			
				<rect x="52.35" y="57.73" fill="#B3B3B3" stroke="#B3B3B3" stroke-width="0.7011" stroke-miterlimit="10" width="14.21" height="0.729"/>
			
				<rect x="53.259" y="61.007" fill="#B3B3B3" stroke="#B3B3B3" stroke-width="0.7011" stroke-miterlimit="10" width="12.392" height="0.728"/>
			
				<rect x="51.774" y="64.281" fill="#B3B3B3" stroke="#B3B3B3" stroke-width="0.7011" stroke-miterlimit="10" width="15.361" height="0.729"/>
			
				<rect x="87.57" y="54.456" fill="#B3B3B3" stroke="#B3B3B3" stroke-width="0.7011" stroke-miterlimit="10" width="11.117" height="0.729"/>
			
				<rect x="87.57" y="57.73" fill="#B3B3B3" stroke="#B3B3B3" stroke-width="0.7011" stroke-miterlimit="10" width="11.117" height="0.729"/>
			
				<rect x="84.479" y="57.73" fill="#B3B3B3" stroke="#B3B3B3" stroke-width="0.7011" stroke-miterlimit="10" width="14.209" height="0.729"/>
			
				<rect x="86.297" y="61.007" fill="#B3B3B3" stroke="#B3B3B3" stroke-width="0.7011" stroke-miterlimit="10" width="12.391" height="0.728"/>
			
				<rect x="83.324" y="64.281" fill="#B3B3B3" stroke="#B3B3B3" stroke-width="0.7011" stroke-miterlimit="10" width="15.363" height="0.729"/>
		</g>
		<rect x="88" y="40" fill="#B3B3B3" width="12" height="2"/>
		<g>
			<path fill="#B3B3B3" d="M25.017,86.779c0,0.582-0.206,1.043-0.618,1.383s-0.933,0.508-1.563,0.508
				c-0.776,0-1.394-0.23-1.854-0.689c-0.46-0.461-0.691-1.139-0.691-2.037c0-0.819,0.127-1.534,0.382-2.145
				c0.254-0.605,0.563-1.107,0.927-1.508c0.364-0.4,0.751-0.721,1.163-0.963c0.412-0.242,0.775-0.412,1.091-0.51l0.981,1.455
				c-0.582,0.266-1.054,0.617-1.418,1.053c-0.363,0.438-0.521,0.971-0.472,1.6c0.63-0.121,1.132,0,1.508,0.363
				C24.829,85.654,25.017,86.15,25.017,86.779z M30.905,86.779c0,0.582-0.206,1.043-0.618,1.383
				c-0.413,0.34-0.933,0.508-1.563,0.508c-0.776,0-1.394-0.23-1.854-0.689c-0.46-0.461-0.69-1.139-0.69-2.037
				c0-0.819,0.127-1.534,0.382-2.145c0.254-0.605,0.563-1.107,0.927-1.508c0.363-0.4,0.751-0.721,1.163-0.963
				c0.412-0.242,0.775-0.412,1.09-0.51l0.981,1.455c-0.582,0.266-1.054,0.617-1.417,1.053c-0.363,0.438-0.521,0.971-0.473,1.6
				c0.63-0.121,1.133,0,1.509,0.363C30.717,85.654,30.905,86.15,30.905,86.779z"/>
		</g>
		<g>
			<path fill="#B3B3B3" d="M96.246,38.356l-1.066-2.725h-3.434l-1.055,2.725h-1.008l3.387-8.602h0.838l3.369,8.602H96.246z
				 M94.869,34.735l-0.996-2.654c-0.129-0.336-0.262-0.748-0.398-1.236c-0.086,0.375-0.209,0.787-0.369,1.236l-1.008,2.654H94.869z"
				/>
		</g>
	</g>
	<g>
		<g>
			<g>
				<path fill="#CCCCCC" d="M110,97H11V22h99V97z M12,96h97V23H12V96z"/>
			</g>
			<g>
				<rect x="12" y="47" fill="#CCCCCC" width="97" height="1"/>
			</g>
			<g>
				<rect x="12" y="71" fill="#CCCCCC" width="97" height="1"/>
			</g>
		</g>
		<g>
			<g>
				<path fill="#CCCCCC" d="M110,97H11V22h99V97z M12,96h97V23H12V96z"/>
			</g>
			<g>
				<rect x="12" y="47" fill="#CCCCCC" width="97" height="1"/>
			</g>
			<g>
				<rect x="12" y="71" fill="#CCCCCC" width="97" height="1"/>
			</g>
		</g>
		<g>
			<g>
				<path fill="none" stroke="#CCCCCC" stroke-width="0.5" stroke-miterlimit="10" d="M110,97H11V22h99V97z M12,96h97V23H12V96z"/>
			</g>
			<g>
				<rect x="12" y="47" fill="none" stroke="#CCCCCC" stroke-width="0.5" stroke-miterlimit="10" width="97" height="1"/>
			</g>
			<g>
				<rect x="12" y="71" fill="none" stroke="#CCCCCC" stroke-width="0.5" stroke-miterlimit="10" width="97" height="1"/>
			</g>
		</g>
	</g>
	<path fill="#B3B3B3" d="M46.54,76.898V92.32h19.744V76.898H46.54z M51.462,78.803c1.077,0,1.953,0.883,1.953,1.956
		c0,1.077-0.876,1.959-1.953,1.959c-1.082,0-1.952-0.882-1.952-1.959C49.51,79.686,50.38,78.803,51.462,78.803z M49,90.475
		l2.538-4.25l0.804,1.354l1.733,2.896H49z M55.705,90.475l-2.11-3.636l3.303-3.7l7.297,7.336H55.705z"/>
	<g>
		
			<rect x="84.301" y="79.177" fill="#B3B3B3" stroke="#B3B3B3" stroke-width="0.7111" stroke-miterlimit="10" width="14.413" height="0.738"/>
		
			<rect x="84.301" y="84.311" fill="#B3B3B3" stroke="#B3B3B3" stroke-width="0.7111" stroke-miterlimit="10" width="14.413" height="0.737"/>
		
			<rect x="84.301" y="89.441" fill="#B3B3B3" stroke="#B3B3B3" stroke-width="0.7111" stroke-miterlimit="10" width="14.413" height="0.738"/>
		<circle fill="#B3B3B3" cx="80.938" cy="79.063" r="1.563"/>
		<circle fill="#B3B3B3" cx="80.938" cy="84.063" r="1.563"/>
		<circle fill="#B3B3B3" cx="80.938" cy="89.063" r="1.563"/>
	</g>
</g>
</svg>
