<?xml version="1.0" encoding="utf-8"?>
<!-- Generator: Adobe Illustrator 16.0.0, SVG Export Plug-In . SVG Version: 6.00 Build 0)  -->
<!DOCTYPE svg PUBLIC "-//W3C//DTD SVG 1.1 Tiny//EN" "http://www.w3.org/Graphics/SVG/1.1/DTD/svg11-tiny.dtd">
<svg version="1.1" baseProfile="tiny" id="Layer_1" xmlns="http://www.w3.org/2000/svg" xmlns:xlink="http://www.w3.org/1999/xlink"
	 x="0px" y="0px" width="130px" height="130px" viewBox="0 0 130 130" xml:space="preserve">
<g>
	<g>
		<g>
			<polygon fill="#CCCCCC" points="112.71,108.34 112.71,107.76 22.182,107.76 22.182,22.24 112.13,22.24 112.13,108.34 
				112.71,108.34 112.71,107.76 112.71,108.34 113.291,108.34 113.291,21.08 21.021,21.08 21.021,108.92 113.291,108.92 
				113.291,108.34 			"/>
		</g>
		<g>
			<rect x="26.377" y="26.135" fill="none" width="65.25" height="25.5"/>
			<path fill="#B3B3B3" d="M35.798,35.252H33.73l-1.16-4.5c-0.043-0.16-0.116-0.491-0.22-0.993s-0.163-0.839-0.179-1.011
				c-0.023,0.211-0.082,0.55-0.176,1.017c-0.094,0.467-0.166,0.8-0.217,0.999l-1.154,4.488h-2.063l-2.186-8.566h1.787l1.096,4.676
				c0.191,0.863,0.33,1.611,0.416,2.244c0.023-0.223,0.077-0.567,0.161-1.034c0.084-0.467,0.163-0.829,0.237-1.087l1.248-4.799
				h1.717l1.248,4.799c0.055,0.215,0.123,0.543,0.205,0.984c0.082,0.441,0.145,0.82,0.188,1.137c0.039-0.305,0.102-0.685,0.188-1.14
				c0.086-0.455,0.164-0.823,0.234-1.104l1.09-4.676h1.787L35.798,35.252z"/>
			<path fill="#B3B3B3" d="M38.719,27.008c0-0.582,0.324-0.873,0.973-0.873s0.973,0.291,0.973,0.873
				c0,0.277-0.081,0.493-0.243,0.647c-0.162,0.154-0.405,0.229-0.729,0.229C39.043,27.887,38.719,27.594,38.719,27.008z
				 M40.582,35.252h-1.787v-6.551h1.787V35.252z"/>
			<path fill="#B3B3B3" d="M44.411,35.369c-0.77,0-1.374-0.299-1.813-0.896c-0.439-0.597-0.659-1.426-0.659-2.484
				c0-1.074,0.224-1.911,0.671-2.511c0.447-0.6,1.063-0.899,1.849-0.899c0.824,0,1.453,0.32,1.887,0.961h0.059
				c-0.09-0.488-0.135-0.924-0.135-1.307v-2.098h1.793v9.117H46.69l-0.346-0.85h-0.076C45.862,35.047,45.243,35.369,44.411,35.369z
				 M45.038,33.945c0.457,0,0.792-0.133,1.005-0.398c0.213-0.265,0.329-0.717,0.349-1.354V32c0-0.703-0.108-1.207-0.325-1.512
				c-0.217-0.305-0.569-0.457-1.058-0.457c-0.398,0-0.708,0.169-0.929,0.507c-0.221,0.338-0.331,0.829-0.331,1.474
				s0.111,1.128,0.334,1.45C44.306,33.784,44.624,33.945,45.038,33.945z"/>
			<path fill="#B3B3B3" d="M55.512,28.701v0.908l-1.025,0.264c0.188,0.293,0.281,0.621,0.281,0.984c0,0.703-0.245,1.251-0.735,1.644
				c-0.49,0.393-1.171,0.589-2.042,0.589l-0.322-0.018l-0.264-0.029c-0.184,0.141-0.275,0.297-0.275,0.469
				c0,0.258,0.328,0.387,0.984,0.387h1.113c0.719,0,1.267,0.154,1.644,0.463s0.565,0.762,0.565,1.359
				c0,0.766-0.319,1.359-0.958,1.781s-1.556,0.633-2.751,0.633c-0.914,0-1.612-0.159-2.095-0.478
				c-0.483-0.319-0.724-0.765-0.724-1.339c0-0.395,0.123-0.725,0.369-0.99c0.246-0.265,0.607-0.455,1.084-0.568
				c-0.184-0.078-0.344-0.206-0.48-0.384c-0.136-0.178-0.205-0.366-0.205-0.565c0-0.25,0.072-0.458,0.217-0.624
				s0.354-0.329,0.627-0.489c-0.344-0.148-0.616-0.387-0.817-0.715c-0.201-0.328-0.302-0.715-0.302-1.16
				c0-0.715,0.232-1.268,0.697-1.658c0.465-0.39,1.129-0.586,1.992-0.586c0.184,0,0.401,0.017,0.653,0.05
				c0.252,0.033,0.413,0.058,0.483,0.073L55.512,28.701L55.512,28.701z M50.456,36.178c0,0.246,0.118,0.439,0.354,0.58
				c0.236,0.141,0.567,0.211,0.993,0.211c0.641,0,1.143-0.088,1.506-0.264c0.363-0.176,0.545-0.416,0.545-0.721
				c0-0.246-0.107-0.416-0.322-0.51c-0.215-0.094-0.547-0.141-0.996-0.141H51.61c-0.328,0-0.603,0.077-0.823,0.231
				C50.567,35.718,50.456,35.924,50.456,36.178z M51.106,30.846c0,0.355,0.081,0.637,0.243,0.844S51.758,32,52.09,32
				c0.336,0,0.582-0.104,0.738-0.311c0.156-0.207,0.234-0.488,0.234-0.844c0-0.789-0.324-1.184-0.973-1.184
				C51.434,29.662,51.106,30.057,51.106,30.846z"/>
			<path fill="#B3B3B3" d="M59.435,35.369c-1.055,0-1.879-0.291-2.473-0.873c-0.594-0.582-0.891-1.406-0.891-2.473
				c0-1.098,0.274-1.946,0.823-2.546s1.308-0.899,2.276-0.899c0.926,0,1.646,0.264,2.162,0.791c0.516,0.527,0.773,1.256,0.773,2.186
				v0.867H57.88c0.02,0.508,0.17,0.904,0.451,1.189c0.281,0.285,0.676,0.428,1.184,0.428c0.395,0,0.768-0.041,1.119-0.123
				c0.351-0.082,0.719-0.213,1.102-0.393v1.383c-0.313,0.156-0.646,0.271-1.002,0.349S59.947,35.369,59.435,35.369z M59.183,29.85
				c-0.379,0-0.676,0.12-0.891,0.36s-0.338,0.581-0.369,1.022h2.508c-0.008-0.441-0.123-0.782-0.346-1.022
				S59.562,29.85,59.183,29.85z"/>
			<path fill="#B3B3B3" d="M66.2,33.945c0.313,0,0.688-0.068,1.125-0.205v1.33c-0.445,0.199-0.992,0.299-1.642,0.299
				c-0.717,0-1.234-0.181-1.562-0.542c-0.327-0.361-0.489-0.903-0.489-1.626v-3.158h-0.855v-0.756l0.984-0.598l0.516-1.383h1.143
				v1.395h1.834v1.342H65.42v3.158c0,0.254,0.071,0.441,0.214,0.563C65.777,33.886,65.965,33.945,66.2,33.945z"/>
			<path fill="#B3B3B3" d="M73.1,33.307c0,0.672-0.23,1.184-0.699,1.535c-0.467,0.351-1.166,0.527-2.096,0.527
				c-0.478,0-0.884-0.032-1.22-0.097s-0.649-0.159-0.942-0.284v-1.477c0.332,0.156,0.707,0.287,1.123,0.393s0.78,0.158,1.098,0.158
				c0.648,0,0.975-0.188,0.975-0.563c0-0.141-0.043-0.255-0.129-0.343c-0.086-0.088-0.232-0.188-0.443-0.299
				c-0.213-0.111-0.492-0.241-0.846-0.39c-0.504-0.211-0.873-0.406-1.107-0.586c-0.235-0.18-0.408-0.386-0.518-0.618
				s-0.162-0.519-0.162-0.858c0-0.582,0.229-1.032,0.68-1.351c0.449-0.319,1.09-0.478,1.918-0.478c0.789,0,1.558,0.172,2.303,0.516
				l-0.538,1.289c-0.328-0.141-0.636-0.256-0.921-0.346c-0.284-0.09-0.575-0.135-0.872-0.135c-0.527,0-0.791,0.143-0.791,0.428
				c0,0.16,0.086,0.299,0.256,0.416c0.17,0.117,0.541,0.291,1.114,0.521c0.513,0.207,0.888,0.4,1.125,0.58
				c0.238,0.18,0.414,0.387,0.527,0.621C73.043,32.7,73.1,32.982,73.1,33.307z"/>
		</g>
	</g>
	<g>
		<polygon fill="#CCCCCC" points="112.541,58.795 112.541,58.354 21.896,58.354 21.896,40.801 112.102,40.801 112.102,58.795 
			112.541,58.795 112.541,58.354 112.541,58.795 112.98,58.795 112.98,39.921 21.015,39.921 21.015,59.235 112.98,59.235 
			112.98,58.795 		"/>
	</g>
	<g>
		<polygon fill="#CCCCCC" points="112.541,108.257 112.541,107.816 21.896,107.816 21.896,90.264 112.102,90.264 112.102,108.257 
			112.541,108.257 112.541,107.816 112.541,108.257 112.98,108.257 112.98,89.384 21.015,89.384 21.015,108.697 112.98,108.697 
			112.98,108.257 		"/>
	</g>
	<g>
		<path fill="#B3B3B3" d="M29.248,106.309c-0.562,0-1.07-0.318-1.295-0.812l-3.206-6.801c-0.22-0.463-0.321-1.006-0.321-1.711
			c0-2.656,2.164-4.82,4.822-4.82c2.66,0,4.822,2.164,4.822,4.82c0,0.705-0.102,1.248-0.32,1.711l-3.199,6.806
			C30.315,105.99,29.805,106.309,29.248,106.309z M29.248,92.807c-2.303,0-4.178,1.875-4.178,4.178c0,0.605,0.082,1.062,0.259,1.438
			l3.208,6.807c0.121,0.265,0.405,0.438,0.711,0.438c0.311,0,0.593-0.173,0.721-0.439l3.199-6.804
			c0.176-0.374,0.259-0.83,0.259-1.438C33.427,94.682,31.553,92.807,29.248,92.807z M29.248,99.557
			c-1.418,0-2.572-1.154-2.572-2.572s1.154-2.569,2.572-2.569s2.572,1.151,2.572,2.569S30.666,99.557,29.248,99.557z M29.248,95.057
			c-1.063,0-1.928,0.863-1.928,1.928c0,1.063,0.865,1.931,1.928,1.931c1.064,0,1.929-0.865,1.929-1.931
			C31.177,95.92,30.313,95.057,29.248,95.057z"/>
	</g>
	<g>
		<polyline fill="none" stroke="#B3B3B3" stroke-width="0.7425" stroke-miterlimit="10" points="111.846,81.041 111.846,81.799 
			111.088,81.799 		"/>
		
			<line fill="none" stroke="#B3B3B3" stroke-miterlimit="10" stroke-dasharray="2,2" x1="109.667" y1="81.5" x2="22.667" y2="81.5"/>
		<polyline fill="none" stroke="#B3B3B3" stroke-width="0.7425" stroke-miterlimit="10" points="22.295,81.799 21.537,81.799 
			21.537,81.041 		"/>
		<line fill="none" stroke="#B3B3B3" stroke-miterlimit="10" stroke-dasharray="1,1" x1="21.167" y1="80" x2="21.167" y2="65"/>
		<polyline fill="none" stroke="#B3B3B3" stroke-width="0.7425" stroke-miterlimit="10" points="21.537,64.739 21.537,63.98 
			22.295,63.98 		"/>
		
			<line fill="none" stroke="#B3B3B3" stroke-miterlimit="10" stroke-dasharray="2,2" x1="23.667" y1="63.5" x2="110.667" y2="63.5"/>
		<polyline fill="none" stroke="#B3B3B3" stroke-width="0.7425" stroke-miterlimit="10" points="111.088,63.98 111.846,63.98 
			111.846,64.739 		"/>
		<line fill="none" stroke="#B3B3B3" stroke-miterlimit="10" stroke-dasharray="1,1" x1="112.167" y1="66" x2="112.167" y2="80"/>
	</g>
	<rect x="17.167" y="68.5" fill="#FFFFFF" stroke="#F15A24" stroke-miterlimit="10" width="90" height="19"/>
	<path fill="#B3B3B3" stroke="#B3B3B3" stroke-width="0.1896" stroke-miterlimit="10" d="M31.852,72.312h-0.508V71.8
		c0-0.569-0.465-1.034-1.035-1.034c-0.57,0-1.035,0.465-1.035,1.034v0.513h-5.67V71.8c0-0.569-0.463-1.034-1.034-1.034
		c-0.571,0-1.034,0.465-1.034,1.034v0.513h-0.521c-0.567,0.004-1.03,0.471-1.03,1.039v2.318v3.094v3.098v3.1
		c0,0.146,0.119,0.264,0.263,0.264h3.097h3.1h3.092h3.097c0.144,0,0.261-0.117,0.261-0.264v-3.1v-3.098V75.67v-2.318
		C32.893,72.782,32.43,72.316,31.852,72.312 M26.182,78.502h-2.574v-2.568h2.574V78.502z M29.273,78.502h-2.57v-2.568h2.57V78.502z
		 M32.369,78.502h-2.572v-2.568h2.572V78.502z M23.082,78.502h-2.573v-2.568h2.573V78.502z M20.508,79.025h2.574V81.6h-2.574V79.025
		z M23.607,79.025h2.574V81.6h-2.574V79.025z M26.704,79.025h2.569V81.6h-2.569V79.025z M29.797,79.025h2.572V81.6h-2.572V79.025z
		 M29.797,71.802c0-0.284,0.229-0.512,0.512-0.512c0.281,0,0.51,0.228,0.51,0.512v0.774v0.775c0,0.278-0.229,0.51-0.51,0.51
		c-0.283,0-0.512-0.229-0.512-0.51v-0.775V71.802z M22.058,71.802c0-0.284,0.229-0.512,0.512-0.512c0.282,0,0.511,0.228,0.511,0.512
		v0.774v0.775c0,0.278-0.229,0.51-0.511,0.51c-0.283,0-0.512-0.229-0.512-0.51v-0.775V71.802z M20.508,73.352
		c0-0.281,0.229-0.512,0.518-0.515h0.509v0.515c0,0.569,0.463,1.033,1.034,1.033c0.571,0,1.034-0.464,1.034-1.033v-0.515h5.67v0.515
		c0,0.569,0.465,1.033,1.035,1.033c0.57,0,1.035-0.464,1.035-1.033v-0.515h0.516c0.281,0.003,0.51,0.231,0.51,0.515v2.061h-2.793
		h-0.041h-0.039h-3.012h-0.041h-0.04h-3.06h-2.835V73.352z M20.508,82.125h2.574v2.572h-2.574V82.125z M23.607,82.125h2.574v2.572
		h-2.574V82.125z M26.704,82.125h2.569v2.572h-2.569V82.125z M32.369,84.697h-2.572v-2.573h2.572V84.697z"/>
	<polygon fill="#B3B3B3" points="99.346,46.884 107.658,46.882 103.486,53.374 	"/>
	<polygon fill="#B3B3B3" points="92.529,75.48 100.844,75.479 96.672,81.973 	"/>
	<polygon fill="#B3B3B3" points="100.012,96.157 108.326,96.156 104.154,102.646 	"/>
	<g>
		<path fill="#B3B3B3" stroke="#B3B3B3" stroke-width="0.3304" stroke-miterlimit="10" d="M32.922,47.328
			c-1.654,0-2.999,1.347-2.999,3.001c0,1.654,1.345,2.997,2.999,2.997c1.653,0,3-1.343,3-2.997
			C35.922,48.675,34.575,47.328,32.922,47.328 M32.922,52.784c-1.355,0-2.459-1.102-2.459-2.455c0-1.355,1.104-2.458,2.459-2.458
			c1.354,0,2.458,1.103,2.458,2.458C35.38,51.683,34.276,52.784,32.922,52.784"/>
		<path fill="#B3B3B3" stroke="#B3B3B3" stroke-width="0.3304" stroke-miterlimit="10" d="M40.232,45.499h-4.426l-0.824-1.647
			c-0.046-0.092-0.139-0.15-0.241-0.15h-3.638c-0.104,0-0.197,0.059-0.242,0.15l-0.824,1.647h-4.426
			c-0.15,0-0.271,0.121-0.271,0.271v9.114c0,0.15,0.121,0.271,0.271,0.271h14.621c0.148,0,0.27-0.121,0.27-0.271V45.77
			C40.502,45.62,40.381,45.499,40.232,45.499 M39.961,54.615h-14.08v-8.573h4.322c0.104,0,0.197-0.06,0.244-0.15l0.822-1.649h3.304
			l0.823,1.649c0.047,0.091,0.141,0.15,0.243,0.15h4.321L39.961,54.615L39.961,54.615z"/>
	</g>
</g>
</svg>
