<?xml version="1.0" encoding="utf-8"?>
<!-- Generator: Adobe Illustrator 16.0.0, SVG Export Plug-In . SVG Version: 6.00 Build 0)  -->
<!DOCTYPE svg PUBLIC "-//W3C//DTD SVG 1.1 Tiny//EN" "http://www.w3.org/Graphics/SVG/1.1/DTD/svg11-tiny.dtd">
<svg version="1.1" baseProfile="tiny" id="Layer_1" xmlns="http://www.w3.org/2000/svg" xmlns:xlink="http://www.w3.org/1999/xlink"
	 x="0px" y="0px" width="132px" height="120px" viewBox="0 0 132 120" xml:space="preserve">
<g>
	<g>
		<path fill="#CCCCCC" stroke="#CCCCCC" stroke-width="0.5" stroke-miterlimit="10" d="M65.999,98.303h-0.005
			c-0.28-0.004-28.067-0.268-36.591-1.084c-0.443-0.082-0.93-0.139-1.479-0.205c-2.684-0.32-7.175-0.859-10.687-4.541
			c-3.294-3.338-4.362-10.639-4.406-10.947c-0.012-0.096-1.077-8.834-1.077-17.463v-8.155c0-8.629,1.065-17.373,1.076-17.461
			c0.045-0.317,1.113-7.615,4.413-10.958c3.804-3.983,8.084-4.401,10.383-4.625c0.251-0.024,0.48-0.047,0.686-0.071
			c14.91-1.079,37.439-1.092,37.664-1.092c0.275,0,22.801,0.013,37.692,1.089c0.229,0.027,0.457,0.05,0.707,0.074
			c2.299,0.224,6.578,0.642,10.385,4.632c3.299,3.336,4.367,10.634,4.41,10.942c0.012,0.097,1.078,8.841,1.078,17.47v8.155
			c0,8.629-1.066,17.367-1.076,17.455c-0.045,0.316-1.113,7.617-4.418,10.963c-3.799,3.984-8.078,4.4-10.375,4.625
			c-0.252,0.023-0.482,0.047-0.688,0.07C88.775,98.256,66.225,98.303,65.999,98.303z M66.026,22.697
			c-0.275,0-22.768,0.013-37.619,1.087c-0.189,0.022-0.426,0.046-0.684,0.071c-2.323,0.227-6.209,0.605-9.763,4.327
			c-3.076,3.116-4.129,10.32-4.139,10.393c-0.01,0.077-1.067,8.763-1.067,17.329v8.157c0,8.567,1.058,17.248,1.068,17.334
			c0.009,0.062,1.065,7.272,4.132,10.383c3.27,3.43,7.373,3.918,10.088,4.244c0.575,0.067,1.082,0.129,1.501,0.209
			c8.418,0.805,36.064,1.067,36.457,1.071c0.382-0.002,22.792-0.051,37.594-1.12c0.189-0.021,0.426-0.048,0.686-0.072
			c2.32-0.226,6.205-0.604,9.757-4.324c3.077-3.115,4.135-10.326,4.146-10.398c0.01-0.074,1.066-8.756,1.066-17.32v-8.157
			c0-8.568-1.061-17.252-1.066-17.338c-0.012-0.063-1.063-7.271-4.139-10.378c-3.561-3.728-7.441-4.106-9.768-4.333
			c-0.258-0.025-0.492-0.049-0.705-0.074C88.741,22.71,66.25,22.697,66.026,22.697z"/>
	</g>
	<g>
		<path fill="#CCCCCC" d="M54.403,74.766l-0.006-31.851l30.628,15.981L54.403,74.766z M55.397,44.565l0.006,28.556l27.457-14.229
			L55.397,44.565z"/>
	</g>
</g>
</svg>
