<?xml version="1.0" encoding="utf-8"?>
<!-- Generator: Adobe Illustrator 16.0.0, SVG Export Plug-In . SVG Version: 6.00 Build 0)  -->
<!DOCTYPE svg PUBLIC "-//W3C//DTD SVG 1.1//EN" "http://www.w3.org/Graphics/SVG/1.1/DTD/svg11.dtd">
<svg version="1.1" id="Layer_1" xmlns="http://www.w3.org/2000/svg" xmlns:xlink="http://www.w3.org/1999/xlink" x="0px" y="0px"
	 width="130px" height="111.5px" viewBox="0 18.5 130 111.5" enable-background="new 0 18.5 130 111.5" xml:space="preserve">
<path fill="#CCCCCC" d="M65,122.4c-25.6,0-46.4-20.801-46.4-46.4c0-25.6,20.8-46.4,46.4-46.4c25.6,0,46.4,20.8,46.4,46.4
	C111.4,101.6,90.6,122.4,65,122.4z M65,30.6C40,30.6,19.6,51,19.6,76S40,121.4,65,121.4S110.4,101,110.4,76S90,30.6,65,30.6z"/>
<path fill="#F15A24" d="M65,115.8C43,115.8,25.2,98,25.2,76S43,36.2,65,36.2s39.8,17.9,39.8,39.8C104.8,97.9,87,115.8,65,115.8z
	 M65,37.2c-21.4,0-38.8,17.4-38.8,38.8c0,21.4,17.4,38.8,38.8,38.8c21.4,0,38.8-17.399,38.8-38.8C103.8,54.6,86.4,37.2,65,37.2z"/>
<path fill="#CCCCCC" d="M88.2,99.4H36.5V99c-0.1-0.4-1.7-10.9,3.9-17.7c2.8-3.5,7-5.399,12.4-5.7H53l0.2,0.2
	c5.6,5.601,8.4,8.3,9.4,9.2l9.5-9.4h0.2c0.3,0,6.9,0.102,11.601,5.301C87.5,85,89,91.1,88.3,99L88.2,99.4z M37.4,98.4h49.9
	C87.9,91,86.5,85.4,83,81.6c-4-4.398-9.6-4.898-10.7-5l-9.9,9.7L62.1,86c0,0-2.7-2.6-9.6-9.4c-5,0.301-8.8,2.102-11.4,5.301
	C36.5,87.7,37.2,96.4,37.4,98.4z M88.2,99.4H36.5V99c-0.1-0.4-1.7-10.9,3.9-17.7c2.8-3.5,7-5.399,12.4-5.7H53l0.2,0.2
	c5.6,5.601,8.4,8.3,9.4,9.2l9.5-9.4h0.2c0.3,0,6.9,0.102,11.601,5.301C87.5,85,89,91.1,88.3,99L88.2,99.4z M37.4,98.4h49.9
	C87.9,91,86.5,85.4,83,81.6c-4-4.398-9.6-4.898-10.7-5l-9.9,9.7L62.1,86c0,0-2.7-2.6-9.6-9.4c-5,0.301-8.8,2.102-11.4,5.301
	C36.5,87.7,37.2,96.4,37.4,98.4z M93.7,92.3c-1.7,0-3-0.1-3-0.1l0.1-1c0,0,2.4,0.1,5.3,0C96,83.8,94.2,78.6,90.7,75.5
	c-3.5-3-7.601-2.8-8.601-2.7L80.4,75L79.6,74.4l1.9-2.602h0.2c0.2,0,5.3-0.8,9.5,2.9C95,78,97,83.7,97,91.6v0.5h-0.5
	C95.6,92.3,94.5,92.3,93.7,92.3L93.7,92.3z M93.7,92.3c-1.7,0-3-0.1-3-0.1l0.1-1c0,0,2.4,0.1,5.3,0C96,83.8,94.2,78.6,90.7,75.5
	c-3.5-3-7.601-2.8-8.601-2.7L80.4,75L79.6,74.4l1.9-2.602h0.2c0.2,0,5.3-0.8,9.5,2.9C95,78,97,83.7,97,91.6v0.5h-0.5
	C95.6,92.3,94.5,92.3,93.7,92.3L93.7,92.3z M79,70.9L78.6,70C83.2,67.9,86.2,63.3,86.2,58.2c0-7.1-5.8-12.9-12.9-12.9
	c-1.399,0-2.899,0.2-4.2,0.7l-0.3-0.9c1.5-0.5,3-0.8,4.601-0.8C81.1,44.3,87.3,50.5,87.3,58.2C87.2,63.7,84,68.7,79,70.9z M79,70.9
	L78.6,70C83.2,67.9,86.2,63.3,86.2,58.2c0-7.1-5.8-12.9-12.9-12.9c-1.399,0-2.899,0.2-4.2,0.7l-0.3-0.9c1.5-0.5,3-0.8,4.601-0.8
	C81.1,44.3,87.3,50.5,87.3,58.2C87.2,63.7,84,68.7,79,70.9z M62.3,76.8c-7.7,0-13.9-6.2-13.9-13.9S54.6,49,62.3,49
	c7.7,0,13.9,6.2,13.9,13.9C76.3,70.5,70,76.8,62.3,76.8z M62.3,49.9c-7.1,0-12.9,5.8-12.9,12.9c0,7.101,5.8,12.9,12.9,12.9
	c7.101,0,12.9-5.8,12.9-12.9C75.3,55.7,69.5,49.9,62.3,49.9z M62.3,76.8c-7.7,0-13.9-6.2-13.9-13.9S54.6,49,62.3,49
	c7.7,0,13.9,6.2,13.9,13.9C76.3,70.5,70,76.8,62.3,76.8z M62.3,49.9c-7.1,0-12.9,5.8-12.9,12.9c0,7.101,5.8,12.9,12.9,12.9
	c7.101,0,12.9-5.8,12.9-12.9C75.3,55.7,69.5,49.9,62.3,49.9z"/>
</svg>
