<?xml version="1.0" encoding="utf-8"?>
<!-- Generator: Adobe Illustrator 16.0.0, SVG Export Plug-In . SVG Version: 6.00 Build 0)  -->
<!DOCTYPE svg PUBLIC "-//W3C//DTD SVG 1.1//EN" "http://www.w3.org/Graphics/SVG/1.1/DTD/svg11.dtd">
<svg version="1.1" id="Layer_1" xmlns="http://www.w3.org/2000/svg" xmlns:xlink="http://www.w3.org/1999/xlink" x="0px" y="0px"
	 width="130px" height="130px" viewBox="0 0 130 130" enable-background="new 0 0 130 130" xml:space="preserve">
<g>
	<polygon fill="#CCCCCC" points="109.96,44.466 109.96,43.886 19.433,43.886 19.433,23.57 109.38,23.57 109.38,44.466 
		109.96,44.466 109.96,43.886 109.96,44.466 110.541,44.466 110.541,22.41 18.271,22.41 18.271,45.046 110.541,45.046 
		110.541,44.466 	"/>
	<polygon fill="#CCCCCC" points="109.96,123.4 109.96,122.82 19.418,122.82 19.418,108.311 109.38,108.311 109.38,123.4 
		109.96,123.4 109.96,122.82 109.96,123.4 110.541,123.4 110.541,107.148 18.257,107.148 18.257,123.98 110.541,123.98 
		110.541,123.4 	"/>
	<polygon fill="#CCCCCC" points="94.869,104.828 95.451,104.828 95.451,47.947 109.38,47.947 109.38,104.248 94.869,104.248 
		94.869,104.828 95.451,104.828 94.869,104.828 94.869,105.408 110.541,105.408 110.541,46.789 94.289,46.789 94.289,105.408 
		94.869,105.408 	"/>
	<polygon fill="#F15A24" points="18.834,104.982 18.834,105.562 92.531,105.562 92.531,46.789 18.254,46.789 18.254,105.562 
		18.834,105.562 18.834,104.982 19.415,104.982 19.415,47.947 91.371,47.947 91.371,104.402 18.834,104.402 18.834,104.982 
		19.415,104.982 	"/>
	<g>
		<rect x="22.325" y="51.332" fill="none" width="69.985" height="27.35"/>
		<path fill="#B3B3B3" d="M26.531,59.482l-1.844-6.007H24.64c0.066,1.222,0.1,2.037,0.1,2.445v3.562h-1.45v-7.656h2.21l1.812,5.854
			h0.031l1.922-5.854h2.21v7.656h-1.514v-3.624c0-0.171,0.002-0.368,0.008-0.592c0.006-0.224,0.029-0.817,0.071-1.78h-0.047
			l-1.974,5.996H26.531z"/>
		<path fill="#B3B3B3" d="M32.332,53.627h1.749l1.105,3.295c0.095,0.286,0.159,0.625,0.194,1.016h0.032
			c0.038-0.359,0.113-0.698,0.225-1.016l1.084-3.295h1.712l-2.477,6.604c-0.227,0.61-0.551,1.068-0.971,1.372
			c-0.421,0.304-0.913,0.456-1.475,0.456c-0.276,0-0.546-0.03-0.812-0.09v-1.267c0.192,0.045,0.401,0.067,0.628,0.067
			c0.283,0,0.53-0.086,0.741-0.259c0.211-0.173,0.376-0.434,0.495-0.783l0.094-0.288L32.332,53.627z"/>
		<path fill="#B3B3B3" d="M25.542,70.312c-1.823,0-2.734-1-2.734-3c0-0.996,0.248-1.756,0.744-2.28
			c0.496-0.525,1.206-0.788,2.131-0.788c0.677,0,1.285,0.133,1.823,0.397l-0.472,1.236c-0.251-0.102-0.485-0.186-0.702-0.249
			s-0.433-0.097-0.649-0.097c-0.831,0-1.247,0.59-1.247,1.771c0,1.146,0.416,1.718,1.247,1.718c0.307,0,0.592-0.041,0.854-0.123
			c0.262-0.082,0.524-0.211,0.786-0.386v1.367c-0.258,0.164-0.519,0.277-0.783,0.341C26.275,70.281,25.943,70.312,25.542,70.312z"/>
		<path fill="#B3B3B3" d="M32.719,70.208l-0.215-0.749H32.42c-0.171,0.271-0.414,0.482-0.728,0.631
			c-0.314,0.149-0.672,0.223-1.074,0.223c-0.688,0-1.207-0.184-1.556-0.553c-0.349-0.367-0.523-0.896-0.523-1.589v-3.818h1.597v3.42
			c0,0.422,0.075,0.736,0.225,0.951c0.15,0.211,0.39,0.313,0.718,0.313c0.447,0,0.77-0.147,0.969-0.447
			c0.199-0.299,0.298-0.794,0.298-1.483v-2.754h1.598v5.855H32.719z"/>
		<path fill="#B3B3B3" d="M39.598,68.47c0,0.601-0.208,1.058-0.626,1.372c-0.417,0.313-1.041,0.471-1.872,0.471
			c-0.426,0-0.789-0.025-1.089-0.086c-0.3-0.058-0.582-0.143-0.843-0.254v-1.32c0.297,0.143,0.631,0.26,1.003,0.354
			c0.372,0.097,0.699,0.144,0.982,0.144c0.58,0,0.87-0.168,0.87-0.502c0-0.127-0.039-0.229-0.115-0.31
			c-0.077-0.079-0.209-0.168-0.398-0.271c-0.189-0.1-0.44-0.215-0.754-0.348c-0.45-0.188-0.781-0.363-0.992-0.521
			c-0.211-0.16-0.365-0.348-0.461-0.555c-0.096-0.207-0.144-0.463-0.144-0.768c0-0.521,0.202-0.923,0.605-1.207
			c0.403-0.285,0.975-0.427,1.715-0.427c0.706,0,1.392,0.153,2.058,0.461l-0.481,1.151c-0.293-0.125-0.567-0.229-0.822-0.312
			s-0.515-0.12-0.78-0.12c-0.472,0-0.707,0.127-0.707,0.385c0,0.144,0.076,0.268,0.228,0.371c0.152,0.103,0.484,0.26,0.998,0.467
			c0.458,0.186,0.793,0.355,1.006,0.519s0.37,0.346,0.471,0.556C39.547,67.93,39.598,68.18,39.598,68.47z"/>
		<path fill="#B3B3B3" d="M43.204,69.04c0.279,0,0.614-0.062,1.005-0.185v1.188c-0.398,0.18-0.887,0.27-1.466,0.27
			c-0.639,0-1.104-0.162-1.396-0.484s-0.438-0.809-0.438-1.453v-2.823h-0.765v-0.675l0.88-0.534l0.461-1.236h1.021v1.246h1.64v1.199
			h-1.64v2.823c0,0.227,0.064,0.395,0.191,0.503C42.824,68.986,42.995,69.04,43.204,69.04z"/>
		<path fill="#B3B3B3" d="M50.606,67.27c0,0.953-0.251,1.699-0.754,2.236c-0.503,0.538-1.203,0.807-2.1,0.807
			c-0.562,0-1.058-0.123-1.487-0.369c-0.43-0.243-0.759-0.6-0.99-1.061s-0.346-0.998-0.346-1.613c0-0.955,0.25-1.699,0.749-2.229
			c0.499-0.531,1.201-0.796,2.105-0.796c0.562,0,1.058,0.122,1.487,0.366c0.43,0.244,0.76,0.596,0.99,1.053
			C50.491,66.119,50.606,66.655,50.606,67.27z M46.558,67.27c0,0.58,0.095,1.021,0.286,1.315c0.19,0.296,0.5,0.444,0.93,0.444
			c0.426,0,0.732-0.147,0.919-0.442s0.28-0.733,0.28-1.317c0-0.578-0.094-1.014-0.283-1.304s-0.498-0.435-0.927-0.435
			c-0.426,0-0.733,0.144-0.921,0.432S46.558,66.688,46.558,67.27z"/>
		<path fill="#B3B3B3" d="M57.062,70.208h-1.598v-3.42c0-0.422-0.071-0.739-0.212-0.95c-0.142-0.212-0.364-0.316-0.668-0.316
			c-0.408,0-0.705,0.149-0.89,0.449c-0.185,0.301-0.278,0.795-0.278,1.482v2.755h-1.597v-5.855h1.22l0.215,0.749h0.089
			c0.157-0.269,0.384-0.479,0.681-0.631c0.296-0.152,0.637-0.228,1.021-0.228c0.876,0,1.47,0.286,1.781,0.858h0.141
			c0.157-0.272,0.389-0.483,0.694-0.634c0.305-0.149,0.649-0.225,1.034-0.225c0.662,0,1.164,0.17,1.506,0.511
			c0.34,0.34,0.51,0.886,0.51,1.636v3.818h-1.604v-3.42c0-0.422-0.07-0.739-0.211-0.95c-0.144-0.212-0.364-0.317-0.668-0.317
			c-0.393,0-0.685,0.143-0.877,0.42c-0.194,0.278-0.291,0.725-0.291,1.33v2.938H57.062z"/>
		<path fill="#B3B3B3" d="M67.391,69.04c0.278,0,0.613-0.062,1.006-0.185v1.188c-0.396,0.18-0.888,0.27-1.467,0.27
			c-0.64,0-1.104-0.162-1.396-0.484s-0.438-0.809-0.438-1.453v-2.823H64.33v-0.675l0.88-0.534l0.461-1.236h1.021v1.246h1.644v1.199
			h-1.644v2.823c0,0.227,0.064,0.395,0.191,0.503C67.012,68.986,67.182,69.04,67.391,69.04z"/>
		<path fill="#B3B3B3" d="M68.634,64.353h1.748l1.104,3.295c0.096,0.285,0.16,0.625,0.193,1.016h0.03
			c0.038-0.359,0.113-0.698,0.228-1.016l1.084-3.295h1.713l-2.479,6.604c-0.228,0.609-0.551,1.068-0.971,1.372
			c-0.421,0.304-0.912,0.456-1.476,0.456c-0.274,0-0.548-0.03-0.812-0.09v-1.27c0.189,0.047,0.398,0.067,0.628,0.067
			c0.283,0,0.528-0.086,0.742-0.261c0.211-0.174,0.375-0.435,0.491-0.781l0.097-0.288L68.634,64.353z"/>
		<path fill="#B3B3B3" d="M78.682,70.312c-0.688,0-1.228-0.248-1.619-0.748H76.98c0.055,0.486,0.082,0.771,0.082,0.849v2.373h-1.599
			v-8.433h1.302l0.225,0.76h0.072c0.375-0.579,0.928-0.869,1.66-0.869c0.689,0,1.231,0.267,1.625,0.801
			c0.391,0.534,0.586,1.275,0.586,2.227c0,0.625-0.095,1.168-0.274,1.629c-0.185,0.461-0.444,0.812-0.783,1.055
			C79.536,70.191,79.139,70.312,78.682,70.312z M78.21,65.521c-0.396,0-0.685,0.121-0.864,0.361
			c-0.182,0.243-0.275,0.646-0.283,1.202v0.173c0,0.631,0.097,1.078,0.28,1.354c0.188,0.271,0.482,0.408,0.888,0.408
			c0.719,0,1.074-0.59,1.074-1.771c0-0.576-0.089-1.008-0.265-1.296C78.863,65.665,78.587,65.521,78.21,65.521z"/>
		<path fill="#B3B3B3" d="M84.796,70.312c-0.942,0-1.68-0.262-2.211-0.779c-0.53-0.52-0.795-1.258-0.795-2.21
			c0-0.981,0.244-1.739,0.735-2.275c0.49-0.536,1.168-0.804,2.033-0.804c0.828,0,1.474,0.235,1.934,0.707
			c0.461,0.471,0.691,1.122,0.691,1.953v0.775h-3.776c0.018,0.451,0.151,0.807,0.403,1.062s0.604,0.383,1.058,0.383
			c0.354,0,0.688-0.037,1.001-0.108c0.314-0.074,0.643-0.189,0.984-0.353V69.9c-0.279,0.14-0.578,0.242-0.896,0.312
			C85.641,70.277,85.253,70.312,84.796,70.312z M84.57,65.379c-0.34,0-0.604,0.107-0.797,0.322c-0.191,0.215-0.303,0.52-0.33,0.914
			h2.242c-0.01-0.396-0.11-0.699-0.312-0.914C85.178,65.486,84.909,65.379,84.57,65.379z"/>
	</g>
	<g>
		<circle fill="#FFFFFF" stroke="#F15A24" stroke-miterlimit="10" cx="19.459" cy="22.02" r="16"/>
		<g>
			<path fill="#F05A29" d="M24.348,14.365v-3.401h-3.401v3.401H17.55v-3.401h-3.401v3.401H10.75v16.998h17V14.365H24.348z
				 M13.205,22.906c0,0,5.483-7.463,12.227,0C25.432,22.906,19.948,30.546,13.205,22.906z"/>
			<path fill="#F05A29" d="M19.317,20.642c-1.271,0-2.303,1.033-2.303,2.306c0,1.27,1.031,2.303,2.303,2.303
				c1.274,0,2.306-1.033,2.306-2.303C21.623,21.675,20.592,20.642,19.317,20.642z M19.317,24.465c-0.837,0-1.518-0.681-1.518-1.518
				c0-0.841,0.681-1.521,1.518-1.521c0.84,0,1.521,0.68,1.521,1.521C20.838,23.784,20.157,24.465,19.317,24.465z"/>
		</g>
	</g>
	<path fill="#B3B3B3" d="M55.35,75.404v11.098h14.207V75.404H55.35z M58.893,76.775c0.773,0,1.404,0.633,1.404,1.406
		c0,0.772-0.631,1.407-1.404,1.407c-0.779,0-1.406-0.635-1.406-1.407C57.486,77.408,58.113,76.775,58.893,76.775z M57.12,85.172
		l1.827-3.059l0.578,0.975l1.246,2.084H57.12z M61.945,85.172l-1.521-2.615l2.378-2.662l5.253,5.277H61.945z"/>
	<path fill="#B3B3B3" d="M71.85,75.404v11.098h14.209V75.404H71.85z M75.393,76.775c0.773,0,1.404,0.633,1.404,1.406
		c0,0.772-0.631,1.407-1.404,1.407c-0.779,0-1.406-0.635-1.406-1.407C73.986,77.408,74.613,76.775,75.393,76.775z M73.621,85.172
		l1.826-3.059l0.578,0.975l1.246,2.084H73.621z M78.445,85.172l-1.521-2.615l2.378-2.662l5.253,5.277H78.445z"/>
	<path fill="#B3B3B3" d="M52.932,86.625v-10.9c0-0.225-0.184-0.41-0.41-0.41H23.696c-0.227,0-0.409,0.188-0.409,0.41V99.73
		c0,0.225,0.183,0.41,0.409,0.41h28.825c0.227,0,0.41-0.188,0.41-0.41V86.633c0,0,0.002-0.002,0.002-0.004L52.932,86.625z
		 M39.805,86.219h-4.688v-4.578h4.688V86.219z M52.113,86.219H40.625v-4.578h11.488V86.219z M34.298,86.219h-4.687v-4.578h4.687
		V86.219z M29.611,87.039h4.687v4.793h-4.687V87.039z M29.611,92.65h4.687v6.67h-4.687V92.65z M35.118,92.65h4.688v6.67h-4.688
		V92.65z M35.118,87.039h4.688v4.793h-4.688V87.039z M40.625,87.039h11.488v4.793H40.625V87.039z M52.113,80.82H29.612v-4.688
		h22.501V80.82z M28.792,80.82h-4.686v-4.688h4.686V80.82z M24.106,81.641h4.686v17.68h-4.686V81.641z M40.625,92.65h11.488v6.67
		H40.625V92.65z"/>
	<rect x="55.625" y="88.92" fill="#B3B3B3" width="27.324" height="2.488"/>
	<rect x="55.625" y="93.215" fill="#B3B3B3" width="30.445" height="2.486"/>
	<rect x="55.625" y="97.512" fill="#B3B3B3" width="23.068" height="2.486"/>
</g>
</svg>
