<?xml version="1.0" encoding="utf-8"?>
<!-- Generator: Adobe Illustrator 16.0.0, SVG Export Plug-In . SVG Version: 6.00 Build 0)  -->
<!DOCTYPE svg PUBLIC "-//W3C//DTD SVG 1.1//EN" "http://www.w3.org/Graphics/SVG/1.1/DTD/svg11.dtd">
<svg version="1.1" id="Layer_1" xmlns="http://www.w3.org/2000/svg" xmlns:xlink="http://www.w3.org/1999/xlink" x="0px" y="0px"
	 width="130px" height="130px" viewBox="0 0 130 130" enable-background="new 0 0 130 130" xml:space="preserve">
<g>
	<rect x="29.667" y="90" fill="#B3B3B3" width="58" height="10"/>
	<polygon fill="#CCCCCC" points="113.085,43.965 113.085,43.385 22.557,43.385 22.557,23.07 112.505,23.07 112.505,43.965 
		113.085,43.965 113.085,43.385 113.085,43.965 113.666,43.965 113.666,21.91 21.396,21.91 21.396,44.545 113.666,44.545 
		113.666,43.965 	"/>
	<polygon fill="#CCCCCC" points="113.085,122.9 113.085,122.32 22.543,122.32 22.543,107.811 112.505,107.811 112.505,122.9 
		113.085,122.9 113.085,122.32 113.085,122.9 113.666,122.9 113.666,106.648 21.382,106.648 21.382,123.48 113.666,123.48 
		113.666,122.9 	"/>
	<polygon fill="#CCCCCC" points="97.994,104.328 98.576,104.328 98.576,47.447 112.505,47.447 112.505,103.748 97.994,103.748 
		97.994,104.328 98.576,104.328 97.994,104.328 97.994,104.908 113.666,104.908 113.666,46.289 97.414,46.289 97.414,104.908 
		97.994,104.908 	"/>
	<polygon fill="#F15A24" points="21.959,104.482 21.959,105.062 95.656,105.062 95.656,46.289 21.379,46.289 21.379,105.062 
		21.959,105.062 21.959,104.482 22.539,104.482 22.539,47.447 94.496,47.447 94.496,103.902 21.959,103.902 21.959,104.482 
		22.539,104.482 	"/>
	<g>
		<circle fill="#FFFFFF" stroke="#F15A24" stroke-miterlimit="10" cx="22.334" cy="22.52" r="16"/>
		<g>
			<path fill="#F05A29" d="M27.217,14.898v-3.4h-3.399v3.4h-3.4v-3.4h-3.399v3.4h-3.4v17.32h17v-17.32H27.217z M25.952,27.717
				l-0.003,0.012c-0.002,0.035-0.008,0.07-0.018,0.104v0.004l-0.003,0.008c-0.007,0.029-0.019,0.062-0.03,0.09l-0.005,0.012
				l-0.007,0.014c-0.014,0.027-0.029,0.059-0.047,0.088l-0.004,0.004v0.002c-0.02,0.031-0.042,0.063-0.066,0.092l-0.008,0.012
				l-0.012,0.012c-0.022,0.027-0.047,0.055-0.072,0.078l-0.011,0.012l-0.005,0.004c-0.031,0.031-0.066,0.063-0.104,0.09l-0.011,0.01
				l-0.017,0.012c-0.041,0.033-0.084,0.063-0.131,0.094l-0.003,0.002l-0.01,0.006c-0.058,0.037-0.118,0.074-0.184,0.109h-0.003
				l-0.012,0.008c-0.037,0.018-0.074,0.037-0.113,0.055l-0.041,0.02c-0.031,0.016-0.063,0.029-0.095,0.043l-0.019,0.008
				l-0.017,0.006c-0.072,0.031-0.147,0.059-0.226,0.086l-0.034,0.012c-0.077,0.025-0.159,0.053-0.243,0.076L24.389,28.9l-0.02,0.006
				c-0.097,0.025-0.197,0.051-0.301,0.074l-0.037,0.008c-0.104,0.023-0.212,0.043-0.322,0.061l-0.021,0.006l-0.018,0.002
				c-0.09,0.016-0.182,0.029-0.275,0.039l-0.048,0.008c-0.094,0.01-0.188,0.02-0.286,0.027l-0.021,0.002l-0.024,0.004
				c-0.112,0.008-0.228,0.016-0.345,0.02h-0.023l-0.03,0.002c-0.096,0.002-0.191,0.004-0.288,0.006h-0.018
				c-0.051,0-0.102,0-0.152-0.002c-0.053,0-0.104-0.002-0.156-0.004h-0.018c-0.082-0.004-0.164-0.006-0.244-0.012l-0.022-0.002
				l-0.045-0.004c-0.062-0.004-0.123-0.008-0.183-0.014l-0.044-0.004l-0.022-0.002c-0.077-0.008-0.152-0.016-0.227-0.025h-0.012
				L21.15,29.09c-0.063-0.008-0.123-0.018-0.185-0.025l-0.034-0.006L20.9,29.055c-0.076-0.014-0.15-0.025-0.225-0.039l-0.003-0.002
				l-0.013-0.002c-0.074-0.014-0.145-0.029-0.217-0.045l-0.031-0.006l-0.021-0.006c-0.08-0.018-0.157-0.037-0.232-0.057
				l-0.018-0.004l-0.023-0.008c-0.088-0.025-0.176-0.049-0.259-0.076l-0.013-0.006l-0.039-0.014
				c-0.035-0.012-0.069-0.023-0.104-0.035l-0.06-0.023c-0.033-0.01-0.064-0.023-0.098-0.037l-0.037-0.014l-0.02-0.01l-0.062-0.025
				l-0.067-0.029l-0.059-0.027l-0.062-0.031l-0.058-0.029l-0.058-0.031l-0.054-0.031l-0.054-0.031l-0.052-0.031l-0.049-0.031
				l-0.049-0.035l-0.045-0.031l-0.045-0.037l-0.04-0.033l-0.042-0.037l-0.035-0.031l-0.039-0.039l-0.031-0.033l-0.034-0.043
				l-0.026-0.033L18.5,27.979l-0.023-0.031l-0.025-0.045l-0.018-0.031l-0.021-0.047L18.4,27.794l-0.015-0.049l-0.011-0.029
				l-0.011-0.055l-0.005-0.025c-0.003-0.025-0.005-0.053-0.005-0.08l-0.02-2.213c0,0.027,0.002,0.053,0.006,0.08l0.006,0.033
				l0.009,0.047l0.013,0.037l0.012,0.039l0.018,0.041l0.018,0.039l0.021,0.037l0.022,0.039l0.026,0.037l0.025,0.037l0.03,0.035
				l0.03,0.039l0.034,0.035l0.036,0.035l0.037,0.035l0.041,0.035l0.041,0.033l0.045,0.035l0.045,0.033l0.047,0.035l0.049,0.031
				l0.052,0.033l0.052,0.029l0.057,0.031l0.056,0.031l0.06,0.031l0.059,0.027l0.063,0.029l0.063,0.029l0.065,0.027l0.056,0.023
				c0.031,0.012,0.064,0.023,0.098,0.037l0.061,0.021c0.033,0.012,0.067,0.025,0.102,0.037l0.054,0.018
				c0.084,0.027,0.171,0.053,0.261,0.076l0.038,0.012c0.076,0.02,0.154,0.039,0.233,0.057l0.053,0.012
				c0.07,0.016,0.143,0.031,0.215,0.045l0.018,0.004c0.074,0.014,0.149,0.027,0.226,0.039l0.062,0.008
				c0.063,0.01,0.125,0.02,0.188,0.025l0.046,0.008c0.074,0.008,0.15,0.018,0.227,0.023l0.064,0.006
				c0.062,0.006,0.123,0.01,0.187,0.016l0.064,0.004c0.081,0.004,0.163,0.008,0.245,0.01c0.059,0.004,0.115,0.006,0.174,0.006
				c0.057,0,0.113,0,0.169,0c0.097,0,0.194-0.002,0.288-0.006l0.055-0.002c0.117-0.004,0.231-0.01,0.346-0.02l0.045-0.004
				c0.097-0.008,0.192-0.018,0.287-0.029l0.047-0.006c0.094-0.012,0.186-0.023,0.276-0.039l0.034-0.006
				c0.112-0.018,0.221-0.039,0.326-0.063l0.037-0.008c0.104-0.023,0.205-0.049,0.302-0.076l0.032-0.008
				c0.084-0.023,0.166-0.049,0.245-0.076l0.032-0.01c0.076-0.027,0.152-0.057,0.225-0.086l0.038-0.018
				c0.03-0.012,0.061-0.025,0.091-0.039l0.043-0.021c0.041-0.02,0.084-0.041,0.123-0.062c0.068-0.035,0.132-0.072,0.191-0.111
				l0.008-0.006c0.048-0.031,0.092-0.064,0.134-0.096l0.024-0.018c0.037-0.031,0.073-0.063,0.105-0.092l0.014-0.014
				c0.025-0.027,0.051-0.053,0.073-0.08l0.02-0.023c0.023-0.031,0.047-0.061,0.066-0.092l0.005-0.006
				c0.018-0.031,0.033-0.061,0.047-0.09l0.01-0.025c0.014-0.029,0.023-0.059,0.032-0.09l0.003-0.01
				c0.008-0.035,0.014-0.068,0.018-0.105l0.004-0.057l0.02,2.213L25.952,27.717z M25.952,24.545l-0.003,0.012
				c-0.002,0.035-0.008,0.07-0.018,0.105v0.002l-0.003,0.008c-0.007,0.031-0.019,0.061-0.03,0.09l-0.005,0.014l-0.007,0.012
				c-0.014,0.029-0.029,0.059-0.047,0.088l-0.004,0.006l0,0c-0.02,0.031-0.042,0.063-0.066,0.094l-0.008,0.008l-0.012,0.014
				c-0.022,0.027-0.047,0.053-0.072,0.08l-0.011,0.01l-0.005,0.004c-0.031,0.031-0.066,0.063-0.104,0.09l-0.011,0.012l-0.017,0.01
				c-0.041,0.033-0.084,0.064-0.131,0.094L25.395,25.3l-0.01,0.008c-0.058,0.037-0.118,0.072-0.184,0.107h-0.003l-0.012,0.008
				c-0.037,0.02-0.074,0.037-0.113,0.057l-0.042,0.018c-0.03,0.016-0.062,0.029-0.094,0.041l-0.019,0.01l-0.017,0.006
				c-0.072,0.029-0.147,0.059-0.226,0.086l-0.033,0.01c-0.078,0.029-0.16,0.055-0.244,0.078l-0.014,0.004l-0.02,0.006
				c-0.097,0.025-0.197,0.051-0.301,0.074l-0.037,0.008c-0.104,0.023-0.212,0.043-0.322,0.061l-0.021,0.006l-0.018,0.002
				c-0.09,0.016-0.182,0.027-0.275,0.039l-0.048,0.008c-0.094,0.01-0.188,0.02-0.286,0.027l-0.021,0.002l-0.024,0.002
				c-0.112,0.01-0.228,0.016-0.345,0.02l-0.023,0.002h-0.03c-0.096,0.004-0.191,0.006-0.288,0.006h-0.018c-0.051,0-0.102,0-0.152,0
				c-0.053,0-0.104-0.002-0.156-0.004l-0.018-0.002c-0.082-0.002-0.164-0.006-0.244-0.01l-0.022-0.002l-0.045-0.004
				c-0.062-0.004-0.123-0.008-0.183-0.014l-0.044-0.004l-0.022-0.002c-0.077-0.008-0.152-0.016-0.227-0.025h-0.012l-0.037-0.006
				c-0.063-0.008-0.123-0.018-0.185-0.025l-0.034-0.006L20.9,25.883c-0.076-0.014-0.15-0.025-0.225-0.039l-0.003-0.002L20.66,25.84
				c-0.074-0.014-0.145-0.029-0.217-0.045l-0.031-0.006l-0.021-0.006c-0.08-0.018-0.157-0.037-0.232-0.059l-0.018-0.004
				l-0.022-0.004c-0.089-0.025-0.176-0.051-0.26-0.08l-0.013-0.002l-0.039-0.014c-0.035-0.012-0.069-0.025-0.104-0.037l-0.061-0.021
				c-0.033-0.012-0.064-0.025-0.096-0.037l-0.039-0.016l-0.02-0.008l-0.062-0.027l-0.066-0.029L19.3,25.418l-0.062-0.031
				l-0.059-0.029l-0.057-0.031l-0.055-0.031l-0.054-0.031l-0.052-0.031l-0.049-0.031l-0.049-0.033l-0.045-0.033L18.773,25.1
				l-0.04-0.033l-0.042-0.037l-0.035-0.031l-0.039-0.039l-0.031-0.033l-0.034-0.041l-0.026-0.033L18.5,24.809l-0.023-0.033
				l-0.025-0.043L18.434,24.7l-0.021-0.045L18.4,24.624l-0.015-0.049l-0.011-0.029l-0.011-0.055l-0.005-0.025
				c-0.003-0.027-0.005-0.053-0.005-0.082l-0.02-2.213c0,0.027,0.002,0.055,0.006,0.08l0.006,0.035l0.009,0.045l0.013,0.037
				l0.012,0.041l0.018,0.039l0.018,0.039l0.021,0.037l0.022,0.039l0.026,0.037l0.025,0.039l0.03,0.035l0.03,0.039l0.034,0.033
				l0.036,0.037l0.037,0.035l0.041,0.035l0.041,0.033l0.045,0.035l0.045,0.031l0.047,0.035l0.049,0.031l0.052,0.033l0.052,0.031
				l0.057,0.031l0.056,0.029l0.06,0.031L19.28,23.2l0.063,0.031l0.063,0.027l0.065,0.027l0.056,0.023
				c0.031,0.014,0.064,0.025,0.098,0.039l0.061,0.02c0.033,0.014,0.067,0.025,0.102,0.037l0.054,0.018
				c0.084,0.027,0.171,0.053,0.261,0.078l0.038,0.01c0.076,0.021,0.154,0.039,0.233,0.059l0.053,0.012
				c0.07,0.016,0.143,0.031,0.215,0.045l0.018,0.004c0.074,0.014,0.149,0.025,0.226,0.037l0.062,0.01
				c0.063,0.008,0.125,0.018,0.188,0.027l0.046,0.006c0.074,0.008,0.15,0.016,0.227,0.023l0.064,0.006
				c0.062,0.006,0.123,0.01,0.187,0.016h0.065c0.081,0.006,0.163,0.01,0.246,0.012c0.057,0.004,0.113,0.006,0.172,0.006
				c0.057,0,0.113,0,0.17,0c0.096,0,0.193-0.002,0.289-0.006l0.053-0.002c0.117-0.004,0.232-0.01,0.346-0.02l0.045-0.004
				c0.098-0.008,0.193-0.018,0.287-0.029l0.048-0.006c0.093-0.012,0.185-0.025,0.276-0.039l0.033-0.006
				c0.113-0.02,0.221-0.039,0.326-0.063l0.037-0.008c0.105-0.023,0.206-0.049,0.303-0.076l0.031-0.008
				c0.084-0.025,0.166-0.051,0.246-0.076l0.031-0.012c0.076-0.027,0.152-0.055,0.225-0.086l0.039-0.016
				c0.031-0.012,0.061-0.027,0.09-0.039l0.043-0.02c0.042-0.02,0.085-0.043,0.124-0.064c0.067-0.035,0.132-0.072,0.19-0.111
				l0.008-0.006c0.049-0.029,0.092-0.063,0.135-0.096l0.023-0.018c0.038-0.029,0.074-0.061,0.105-0.092l0.014-0.014
				c0.027-0.025,0.051-0.053,0.074-0.08l0.02-0.023c0.023-0.029,0.047-0.061,0.066-0.092l0.004-0.008
				c0.019-0.027,0.033-0.057,0.047-0.088l0.011-0.023c0.013-0.031,0.023-0.061,0.032-0.09l0.003-0.01
				c0.009-0.035,0.015-0.072,0.018-0.105l0.003-0.059l0.02,2.215L25.952,24.545z M25.952,21.373l-0.003,0.012
				c-0.002,0.035-0.008,0.07-0.018,0.105v0.002L25.929,21.5c-0.007,0.029-0.019,0.061-0.03,0.09l-0.005,0.014l-0.007,0.012
				c-0.014,0.029-0.029,0.059-0.047,0.09l-0.004,0.004l0,0c-0.02,0.031-0.042,0.063-0.066,0.094l-0.008,0.01l-0.012,0.012
				c-0.022,0.027-0.047,0.053-0.072,0.08l-0.011,0.012l-0.005,0.004c-0.031,0.029-0.066,0.061-0.104,0.09l-0.011,0.01l-0.017,0.012
				c-0.041,0.029-0.084,0.063-0.131,0.092l-0.003,0.004l-0.01,0.006c-0.058,0.037-0.118,0.072-0.184,0.107l-0.003,0.002
				l-0.012,0.006c-0.037,0.02-0.074,0.037-0.113,0.057l-0.042,0.018c-0.03,0.016-0.062,0.029-0.094,0.043l-0.019,0.008l-0.017,0.006
				c-0.072,0.029-0.147,0.059-0.226,0.086l-0.034,0.01c-0.077,0.027-0.159,0.055-0.243,0.078l-0.014,0.004l-0.02,0.006
				c-0.097,0.025-0.197,0.053-0.301,0.074l-0.037,0.008c-0.104,0.021-0.212,0.043-0.322,0.063l-0.021,0.004l-0.018,0.002
				c-0.09,0.016-0.183,0.027-0.275,0.039l-0.049,0.006c-0.093,0.012-0.188,0.021-0.285,0.029l-0.021,0.002l-0.024,0.002
				c-0.112,0.008-0.229,0.016-0.346,0.021h-0.022h-0.03c-0.097,0.004-0.192,0.006-0.289,0.006H22.31c-0.051,0-0.101,0-0.151,0
				c-0.053,0-0.104-0.002-0.156-0.004l-0.018-0.002c-0.082-0.002-0.164-0.006-0.245-0.012h-0.022l-0.044-0.004
				c-0.062-0.006-0.124-0.01-0.184-0.014l-0.043-0.004l-0.022-0.002c-0.077-0.008-0.152-0.016-0.227-0.025h-0.012l-0.037-0.006
				c-0.063-0.008-0.123-0.018-0.185-0.025l-0.035-0.006L20.9,22.711c-0.076-0.014-0.151-0.025-0.225-0.039l-0.004-0.002
				l-0.013-0.002c-0.073-0.014-0.145-0.029-0.216-0.045l-0.031-0.006l-0.022-0.006c-0.079-0.018-0.156-0.037-0.231-0.059
				l-0.018-0.004l-0.023-0.008c-0.088-0.023-0.176-0.049-0.26-0.076l-0.012-0.002l-0.04-0.016c-0.034-0.012-0.069-0.023-0.104-0.035
				l-0.06-0.023c-0.033-0.01-0.065-0.023-0.098-0.035l-0.037-0.016l-0.021-0.008l-0.061-0.027l-0.067-0.029l-0.059-0.027
				l-0.063-0.031l-0.057-0.029l-0.058-0.031l-0.055-0.031l-0.054-0.031l-0.051-0.031l-0.049-0.033l-0.049-0.033l-0.045-0.033
				l-0.046-0.035l-0.04-0.033l-0.041-0.037l-0.036-0.031l-0.038-0.039l-0.031-0.033l-0.035-0.041l-0.027-0.033l-0.028-0.041
				l-0.022-0.033l-0.025-0.043l-0.019-0.033l-0.021-0.045l-0.014-0.031L18.383,21.4l-0.009-0.029l-0.011-0.055l-0.006-0.023
				c-0.003-0.025-0.004-0.055-0.004-0.082l-0.018-1.928c0-0.006-0.002-0.014-0.002-0.02c0-0.006,0.002-0.012,0.002-0.018
				l-0.002-0.248c0,0.027,0.002,0.055,0.005,0.08l0.007,0.035l0.004,0.02c0.16-0.791,1.789-1.391,3.779-1.359
				c1.992,0.031,3.627,0.682,3.789,1.479c0.005-0.025,0.01-0.053,0.013-0.08l0.003-0.057l0.02,2.213L25.952,21.373z"/>
		</g>
	</g>
	<rect x="30.167" y="52.5" fill="#F2F2F2" stroke="#B3B3B3" stroke-miterlimit="10" width="57" height="6"/>
	<rect x="30.167" y="61.5" fill="#F2F2F2" stroke="#B3B3B3" stroke-miterlimit="10" width="57" height="16"/>
	<g>
		<path fill="#FFFFFF" d="M46.074,96.006c0,0.561-0.201,1.002-0.605,1.326c-0.402,0.322-0.965,0.482-1.684,0.482
			c-0.663,0-1.249-0.123-1.759-0.373v-1.226c0.419,0.188,0.773,0.318,1.063,0.396c0.291,0.076,0.557,0.115,0.797,0.115
			c0.289,0,0.51-0.057,0.664-0.166c0.154-0.108,0.232-0.274,0.232-0.494c0-0.121-0.034-0.229-0.102-0.323
			c-0.068-0.095-0.168-0.187-0.301-0.272c-0.131-0.089-0.398-0.229-0.805-0.423c-0.379-0.178-0.664-0.35-0.854-0.514
			c-0.19-0.164-0.342-0.354-0.455-0.572c-0.113-0.218-0.17-0.473-0.17-0.767c0-0.549,0.187-0.979,0.559-1.295
			c0.373-0.313,0.888-0.473,1.545-0.473c0.322,0,0.631,0.037,0.924,0.113s0.6,0.186,0.92,0.322l-0.425,1.021
			c-0.331-0.135-0.604-0.229-0.822-0.282c-0.216-0.056-0.43-0.08-0.64-0.08c-0.248,0-0.439,0.059-0.572,0.176
			c-0.134,0.113-0.2,0.268-0.2,0.453c0,0.115,0.026,0.219,0.081,0.305c0.053,0.086,0.139,0.17,0.257,0.25
			c0.116,0.082,0.396,0.229,0.835,0.438c0.58,0.275,0.979,0.558,1.193,0.836C45.964,95.259,46.074,95.602,46.074,96.006z"/>
		<path fill="#FFFFFF" d="M50.376,97.73l-0.175-0.607h-0.067c-0.139,0.221-0.335,0.391-0.591,0.512
			c-0.254,0.121-0.545,0.18-0.871,0.18c-0.557,0-0.979-0.146-1.262-0.444c-0.283-0.302-0.424-0.729-0.424-1.289V92.98h1.295v2.773
			c0,0.344,0.061,0.602,0.184,0.771c0.121,0.172,0.315,0.258,0.582,0.258c0.361,0,0.624-0.121,0.785-0.363
			c0.162-0.242,0.242-0.645,0.242-1.205V92.98h1.296v4.75H50.376z"/>
		<path fill="#FFFFFF" d="M55.284,92.891c0.562,0,1,0.221,1.317,0.658c0.316,0.438,0.476,1.037,0.476,1.799
			c0,0.785-0.164,1.394-0.491,1.822c-0.326,0.43-0.771,0.645-1.336,0.645c-0.558,0-0.995-0.198-1.313-0.604h-0.089l-0.217,0.521
			h-0.989v-6.606h1.295v1.537c0,0.192-0.017,0.51-0.051,0.938h0.051C54.24,93.127,54.689,92.891,55.284,92.891z M54.868,93.928
			c-0.32,0-0.554,0.1-0.701,0.295c-0.147,0.197-0.224,0.523-0.229,0.979v0.139c0,0.513,0.076,0.877,0.228,1.101
			c0.152,0.221,0.392,0.33,0.72,0.33c0.267,0,0.479-0.121,0.635-0.367c0.158-0.244,0.236-0.604,0.236-1.068
			s-0.079-0.818-0.238-1.051C55.359,94.045,55.143,93.928,54.868,93.928z"/>
		<path fill="#FFFFFF" d="M62.312,97.73h-1.295v-2.773c0-0.342-0.058-0.6-0.172-0.771c-0.115-0.17-0.296-0.258-0.542-0.258
			c-0.331,0-0.572,0.123-0.722,0.367c-0.15,0.242-0.226,0.643-0.226,1.201v2.234H58.06v-4.75h0.99l0.174,0.604h0.072
			c0.127-0.217,0.312-0.39,0.553-0.512c0.24-0.123,0.516-0.188,0.829-0.188c0.711,0,1.19,0.234,1.442,0.697h0.114
			c0.127-0.221,0.313-0.391,0.562-0.514c0.248-0.121,0.527-0.186,0.842-0.186c0.535,0,0.943,0.141,1.221,0.416
			c0.273,0.274,0.414,0.721,0.414,1.327v3.099h-1.299v-2.773c0-0.342-0.06-0.6-0.175-0.771c-0.112-0.172-0.295-0.258-0.542-0.258
			c-0.314,0-0.555,0.115-0.711,0.34c-0.156,0.229-0.234,0.588-0.234,1.08V97.73L62.312,97.73z"/>
		<path fill="#FFFFFF" d="M66.461,91.754c0-0.422,0.234-0.633,0.705-0.633s0.705,0.211,0.705,0.633c0,0.201-0.059,0.357-0.176,0.469
			c-0.117,0.112-0.293,0.168-0.529,0.168C66.695,92.391,66.461,92.178,66.461,91.754z M67.812,97.73h-1.295v-4.75h1.295V97.73z"/>
		<path fill="#FFFFFF" d="M71.086,96.783c0.227,0,0.498-0.049,0.814-0.148v0.963c-0.322,0.146-0.719,0.217-1.189,0.217
			c-0.518,0-0.896-0.131-1.132-0.393c-0.237-0.262-0.354-0.654-0.354-1.178v-2.289h-0.619v-0.549l0.713-0.434l0.373-1.002h0.828
			v1.01h1.33v0.975h-1.33v2.289c0,0.184,0.056,0.32,0.155,0.408C70.777,96.738,70.916,96.783,71.086,96.783z"/>
	</g>
	<g>
		<rect x="37.667" y="81" fill="#B3B3B3" width="10" height="2"/>
		<rect x="37.667" y="84" fill="#B3B3B3" width="14" height="2"/>
		<rect x="67.667" y="81" fill="#B3B3B3" width="19" height="2"/>
		<rect x="67.667" y="84" fill="#B3B3B3" width="14" height="2"/>
		<circle fill="#F2F2F2" stroke="#B3B3B3" stroke-width="1.1553" stroke-miterlimit="10" cx="32.792" cy="82.644" r="2.792"/>
		<circle fill="#B3B3B3" cx="32.792" cy="82.644" r="1.292"/>
		<rect x="58.167" y="80.5" fill="#F2F2F2" stroke="#B3B3B3" stroke-miterlimit="10" width="6" height="6"/>
		<line fill="none" stroke="#B3B3B3" stroke-miterlimit="10" x1="58.168" y1="80.518" x2="63.459" y2="85.811"/>
		<line fill="none" stroke="#B3B3B3" stroke-miterlimit="10" x1="63.459" y1="80.518" x2="58.168" y2="85.811"/>
	</g>
</g>
</svg>
