<?xml version="1.0" encoding="utf-8"?>
<!-- Generator: Adobe Illustrator 16.0.0, SVG Export Plug-In . SVG Version: 6.00 Build 0)  -->
<!DOCTYPE svg PUBLIC "-//W3C//DTD SVG 1.1//EN" "http://www.w3.org/Graphics/SVG/1.1/DTD/svg11.dtd">
<svg version="1.1" id="ddl-footer-cell" xmlns="http://www.w3.org/2000/svg" xmlns:xlink="http://www.w3.org/1999/xlink" x="0px"
	 y="0px" width="130px" height="117.5px" viewBox="0 12.5 130 117.5" enable-background="new 0 12.5 130 117.5"
	 xml:space="preserve">
<path fill="#CCCCCC" d="M110.6,123.2V122.6H20v-14.5h90V123.2H110.6V122.6V123.2h0.5V107H18.9v16.8h92.2v-0.6H110.6z"/>
<path fill="#CCCCCC" d="M110.6,44.3v-0.6H20V23.4h90v20.9H110.6v-0.6V44.3h0.5V22.2H18.9v22.7h92.2v-0.6H110.6z M95.5,104.6h0.6
	V47.8H110v56.3H95.5V104.6h0.6H95.5v0.602h15.6V46.6H94.9v58.6h0.6V104.6z"/>
<path fill="#CCCCCC" d="M57.4,74.5V75h35.8V46.6H56.9V75h0.5V74.5H58V47.8h34V73.9H57.4V74.5H58H57.4z M57.4,104.6v0.602h35.8V76.8
	H56.9v28.4h0.5V104.6H58V77.9h34V104H57.4V104.6H58H57.4z M19.4,104.6v0.602h35.8V76.8H18.9v28.4h0.5V104.6H20V77.9h34V104H19.4
	V104.6H20H19.4z"/>
<polygon fill="#F15A24" points="19.4,74.5 19.4,75 55.2,75 55.2,46.6 18.9,46.6 18.9,75 19.4,75 19.4,74.5 20,74.5 20,47.8 54,47.8 
	54,73.9 19.4,73.9 19.4,74.5 20,74.5 "/>
</svg>
