<?xml version="1.0" encoding="utf-8"?>
<!-- Generator: Adobe Illustrator 16.0.0, SVG Export Plug-In . SVG Version: 6.00 Build 0)  -->
<!DOCTYPE svg PUBLIC "-//W3C//DTD SVG 1.1 Tiny//EN" "http://www.w3.org/Graphics/SVG/1.1/DTD/svg11-tiny.dtd">
<svg version="1.1" baseProfile="tiny" id="ddl-footer-cell"
	 xmlns="http://www.w3.org/2000/svg" xmlns:xlink="http://www.w3.org/1999/xlink" x="0px" y="0px" width="130px" height="130px"
	 viewBox="0 0 130 130" xml:space="preserve">
<path fill="#CCCCCC" d="M110.6,115.2V114.6H20v-14.5h90V115.2H110.6V114.6V115.2h0.5V99H18.9v16.8h92.2v-0.6H110.6z"/>
<path fill="#CCCCCC" d="M95.5,96.6h0.6V39.8H110v56.3H95.5V96.6h0.6H95.5V97.2h15.6V38.6H94.9v58.6h0.6V96.6z"/>
<path fill="#CCCCCC" d="M57.4,66.5V67h35.8V38.6H56.9V67h0.5V66.5H58V39.8h34V65.9H57.4V66.5H58H57.4z M57.4,96.6V97.2h35.8V68.8
	H56.9v28.4h0.5V96.6H58V69.9h34V96H57.4V96.6H58H57.4z M19.4,96.6V97.2h35.8V68.8H18.9v28.4h0.5V96.6H20V69.9h34V96H19.4V96.6H20
	H19.4z"/>
<polygon fill="#F15A24" points="19.4,66.5 19.4,67 55.2,67 55.2,38.6 18.9,38.6 18.9,67 19.4,67 19.4,66.5 20,66.5 20,39.8 54,39.8 
	54,65.9 19.4,65.9 19.4,66.5 20,66.5 "/>
</svg>
