<?xml version="1.0" encoding="utf-8"?>
<!-- Generator: Adobe Illustrator 16.0.0, SVG Export Plug-In . SVG Version: 6.00 Build 0)  -->
<!DOCTYPE svg PUBLIC "-//W3C//DTD SVG 1.1//EN" "http://www.w3.org/Graphics/SVG/1.1/DTD/svg11.dtd">
<svg version="1.1" id="Layer_1" xmlns="http://www.w3.org/2000/svg" xmlns:xlink="http://www.w3.org/1999/xlink" x="0px" y="0px"
	 width="130px" height="115.5px" viewBox="0 14.5 130 115.5" enable-background="new 0 14.5 130 115.5" xml:space="preserve">
<g>
	<polygon fill="#CCCCCC" points="110.562,44.49 110.562,43.91 20.035,43.91 20.035,23.594 109.98,23.594 109.98,44.49 
		110.562,44.49 110.562,43.91 110.562,44.49 111.145,44.49 111.145,22.434 18.873,22.434 18.873,45.07 111.145,45.07 111.145,44.49 
			"/>
	<polygon fill="#CCCCCC" points="110.562,123.427 110.562,122.848 20.021,122.848 20.021,108.337 109.98,108.337 109.98,123.427 
		110.562,123.427 110.562,122.848 110.562,123.427 111.145,123.427 111.145,107.175 18.859,107.175 18.859,124.007 111.145,124.007 
		111.145,123.427 	"/>
	<polygon fill="#CCCCCC" points="95.473,104.854 96.055,104.854 96.055,47.971 109.98,47.971 109.98,104.273 95.473,104.273 
		95.473,104.854 96.055,104.854 95.473,104.854 95.473,105.436 111.145,105.436 111.145,46.813 94.893,46.813 94.893,105.436 
		95.473,105.436 	"/>
	<polygon fill="#F15A24" points="57.437,74.673 57.437,75.255 93.15,75.255 93.15,46.813 56.856,46.813 56.856,75.255 
		57.437,75.255 57.437,74.673 58.018,74.673 58.018,47.971 91.988,47.971 91.988,74.093 57.437,74.093 57.437,74.673 58.018,74.673 
			"/>
	<polygon fill="#F15A24" points="19.437,74.673 19.437,75.255 55.151,75.255 55.151,46.813 18.856,46.813 18.856,75.255 
		19.437,75.255 19.437,74.673 20.018,74.673 20.018,47.971 53.99,47.971 53.99,74.093 19.437,74.093 19.437,74.673 20.018,74.673 	
		"/>
	<polygon fill="#F15A24" points="57.437,104.841 57.437,105.421 93.15,105.421 93.15,76.98 56.856,76.98 56.856,105.421 
		57.437,105.421 57.437,104.841 58.018,104.841 58.018,78.141 91.988,78.141 91.988,104.261 57.437,104.261 57.437,104.841 
		58.018,104.841 	"/>
	<polygon fill="#F15A24" points="19.437,104.841 19.437,105.421 55.151,105.421 55.151,76.98 18.856,76.98 18.856,105.421 
		19.437,105.421 19.437,104.841 20.018,104.841 20.018,78.141 53.99,78.141 53.99,104.261 19.437,104.261 19.437,104.841 
		20.018,104.841 	"/>
</g>
</svg>
