<?xml version="1.0" encoding="utf-8"?>
<!-- Generator: Adobe Illustrator 16.0.0, SVG Export Plug-In . SVG Version: 6.00 Build 0)  -->
<!DOCTYPE svg PUBLIC "-//W3C//DTD SVG 1.1 Tiny//EN" "http://www.w3.org/Graphics/SVG/1.1/DTD/svg11-tiny.dtd">
<svg version="1.1" baseProfile="tiny" id="ddl-footer-cell"
	 xmlns="http://www.w3.org/2000/svg" xmlns:xlink="http://www.w3.org/1999/xlink" x="0px" y="0px" width="130px" height="117.5px"
	 viewBox="0 0 130 117.5" xml:space="preserve">
<path fill="#F05A29" d="M110.6,28v-0.6H20V7.1h90V28H110.6v-0.6V28h0.5V5.9H18.9v22.7h92.2V28H110.6z"/>
<path fill="#CCCCCC" d="M57.4,58.2v0.5h35.8V30.3H56.9v28.4h0.5V58.2H58V31.5h34v26.101H57.4V58.2H58H57.4z M19.4,58.2v0.5h35.8
	V30.3H18.9v28.4h0.5V58.2H20V31.5h34v26.101H19.4V58.2H20H19.4z M57.4,88.3v0.603h35.8V60.5H56.9v28.4h0.5V88.3H58V61.601h34v26.1
	H57.4V88.3H58H57.4z M19.4,88.3v0.603h35.8V60.5H18.9v28.4h0.5V88.3H20V61.601h34v26.1H19.4V88.3H20H19.4z"/>
<polygon fill="#CCCCCC" points="110.6,112.9 110.6,112.301 20,112.301 20,92 110,92 110,112.9 110.6,112.9 110.6,112.301 
	110.6,112.9 111.1,112.9 111.1,90.801 18.9,90.801 18.9,113.5 111.1,113.5 111.1,112.9 "/>
<polygon fill="#CCCCCC" points="95.5,88.3 96.1,88.3 96.1,31.5 110,31.5 110,87.8 95.5,87.8 95.5,88.3 96.1,88.3 95.5,88.3 
	95.5,88.902 111.1,88.902 111.1,30.3 94.9,30.3 94.9,88.9 95.5,88.9 "/>
</svg>
