<?xml version="1.0" encoding="utf-8"?>
<!-- Generator: Adobe Illustrator 16.0.0, SVG Export Plug-In . SVG Version: 6.00 Build 0)  -->
<!DOCTYPE svg PUBLIC "-//W3C//DTD SVG 1.1//EN" "http://www.w3.org/Graphics/SVG/1.1/DTD/svg11.dtd">
<svg version="1.1" id="Layer_1" xmlns="http://www.w3.org/2000/svg" xmlns:xlink="http://www.w3.org/1999/xlink" x="0px" y="0px"
	 width="130px" height="91.5px" viewBox="0 38.5 130 91.5" enable-background="new 0 38.5 130 91.5" xml:space="preserve">
<g>
	<g>
		<path fill="#CCCCCC" stroke="#CCCCCC" stroke-width="0.5" stroke-miterlimit="10" d="M64.998,123.714h-0.005
			c-0.28-0.004-28.067-0.269-36.591-1.084c-0.443-0.082-0.93-0.139-1.479-0.205c-2.684-0.319-7.175-0.858-10.687-4.541
			c-3.294-3.338-4.361-10.639-4.406-10.946c-0.012-0.097-1.076-8.834-1.076-17.465v-8.158c0-8.629,1.064-17.375,1.076-17.46
			c0.045-0.317,1.112-7.615,4.412-10.958c3.805-3.983,8.084-4.401,10.383-4.625c0.251-0.024,0.48-0.047,0.686-0.071
			c14.91-1.079,37.439-1.092,37.664-1.092c0.275,0,22.8,0.013,37.691,1.089c0.229,0.027,0.457,0.05,0.707,0.074
			c2.299,0.224,6.578,0.642,10.385,4.632c3.299,3.336,4.367,10.634,4.41,10.942c0.012,0.097,1.078,8.843,1.078,17.472v8.158
			c0,8.631-1.066,17.367-1.076,17.457c-0.045,0.314-1.113,7.615-4.418,10.963c-3.799,3.982-8.078,4.398-10.375,4.625
			c-0.252,0.021-0.482,0.047-0.688,0.068C87.775,123.667,65.225,123.714,64.998,123.714z M65.025,48.106
			c-0.275,0-22.768,0.013-37.619,1.087c-0.189,0.022-0.426,0.046-0.684,0.071c-2.322,0.227-6.209,0.605-9.763,4.327
			c-3.076,3.116-4.129,10.32-4.14,10.393c-0.01,0.077-1.066,8.763-1.066,17.331v8.158c0,8.567,1.057,17.248,1.068,17.334
			c0.009,0.062,1.064,7.272,4.132,10.383c3.27,3.429,7.372,3.918,10.088,4.244c0.575,0.067,1.082,0.129,1.501,0.209
			c8.418,0.803,36.064,1.067,36.457,1.071c0.382-0.002,22.791-0.051,37.594-1.121c0.189-0.022,0.427-0.047,0.687-0.071
			c2.32-0.226,6.205-0.604,9.755-4.326c3.08-3.114,4.135-10.325,4.146-10.397c0.01-0.075,1.067-8.756,1.067-17.321v-8.158
			c0-8.569-1.06-17.253-1.067-17.339c-0.011-0.063-1.064-7.271-4.138-10.378c-3.56-3.728-7.442-4.106-9.767-4.333
			c-0.258-0.025-0.493-0.049-0.705-0.074C87.74,48.119,65.25,48.106,65.025,48.106z"/>
	</g>
	<g>
		<path fill="#ED1C24" d="M53.402,100.177l-0.006-31.854l30.629,15.983L53.402,100.177z M54.396,69.975l0.006,28.56l27.456-14.229
			L54.396,69.975z"/>
	</g>
</g>
</svg>
