<?xml version="1.0" encoding="utf-8"?>
<!-- Generator: Adobe Illustrator 16.0.0, SVG Export Plug-In . SVG Version: 6.00 Build 0)  -->
<!DOCTYPE svg PUBLIC "-//W3C//DTD SVG 1.1//EN" "http://www.w3.org/Graphics/SVG/1.1/DTD/svg11.dtd">
<svg version="1.1" id="Layer_1" xmlns="http://www.w3.org/2000/svg" xmlns:xlink="http://www.w3.org/1999/xlink" x="0px" y="0px"
	 width="130px" height="111.5px" viewBox="0 18.5 130 111.5" enable-background="new 0 18.5 130 111.5" xml:space="preserve">
<g>
	<g>
		<polygon fill="#CCCCCC" points="108.079,123.705 108.079,123.125 17.536,123.125 17.536,108.615 107.499,108.615 107.499,123.705 
			108.079,123.705 108.079,123.125 108.079,123.705 108.659,123.705 108.659,107.453 16.376,107.453 16.376,124.285 
			108.659,124.285 108.659,123.705 		"/>
		<polygon fill="#CCCCCC" points="92.988,105.133 93.568,105.133 93.568,48.252 107.499,48.252 107.499,104.553 92.988,104.553 
			92.988,105.133 93.568,105.133 92.988,105.133 92.988,105.713 108.659,105.713 108.659,47.094 92.408,47.094 92.408,105.713 
			92.988,105.713 		"/>
		<polygon fill="#CCCCCC" points="16.952,105.287 16.952,105.867 90.648,105.867 90.648,47.094 16.372,47.094 16.372,105.867 
			16.952,105.867 16.952,105.287 17.533,105.287 17.533,48.252 89.488,48.252 89.488,104.707 16.952,104.707 16.952,105.287 
			17.533,105.287 		"/>
		<g>
			<rect x="19.667" y="28" fill="#FFFFFF" width="93" height="27"/>
			<polygon fill="#F15A24" points="113.016,55.957 113.016,55.346 20.613,55.346 20.613,28.938 112.402,28.938 112.402,55.957 
				113.016,55.957 113.016,55.346 113.016,55.957 113.628,55.957 113.628,27.715 19.39,27.715 19.39,56.568 113.628,56.568 
				113.628,55.957 			"/>
			<line fill="none" stroke="#B3B3B3" stroke-width="3" stroke-miterlimit="10" x1="23.667" y1="35.5" x2="42.667" y2="35.5"/>
			<line fill="none" stroke="#B3B3B3" stroke-width="3" stroke-miterlimit="10" x1="47.667" y1="35.5" x2="63.667" y2="35.5"/>
			<line fill="none" stroke="#B3B3B3" stroke-width="2" stroke-miterlimit="10" x1="47.667" y1="41" x2="59.667" y2="41"/>
			<line fill="none" stroke="#B3B3B3" stroke-width="2" stroke-miterlimit="10" x1="47.667" y1="45" x2="60.667" y2="45"/>
			<line fill="none" stroke="#B3B3B3" stroke-width="2" stroke-miterlimit="10" x1="47.667" y1="49" x2="57.667" y2="49"/>
			<line fill="none" stroke="#B3B3B3" stroke-width="3" stroke-miterlimit="10" x1="68.667" y1="35.5" x2="85.667" y2="35.5"/>
			<line fill="none" stroke="#B3B3B3" stroke-width="3" stroke-miterlimit="10" x1="90.667" y1="35.5" x2="108.667" y2="35.5"/>
		</g>
	</g>
	<polygon fill="#F15A24" points="70.604,38.939 62.899,34.959 63.38,43.6 66.118,41.795 68.238,45.193 69.757,44.285 67.479,41.023 
			"/>
</g>
</svg>
