<?xml version="1.0" encoding="utf-8"?>
<!-- Generator: Adobe Illustrator 16.0.0, SVG Export Plug-In . SVG Version: 6.00 Build 0)  -->
<!DOCTYPE svg PUBLIC "-//W3C//DTD SVG 1.1//EN" "http://www.w3.org/Graphics/SVG/1.1/DTD/svg11.dtd">
<svg version="1.1" id="Layer_1" xmlns="http://www.w3.org/2000/svg" xmlns:xlink="http://www.w3.org/1999/xlink" x="0px" y="0px"
	 width="130px" height="92.5px" viewBox="0 37.5 130 92.5" enable-background="new 0 37.5 130 92.5" xml:space="preserve">
<g>
	<g>
		<g>
			<path fill="#CCCCCC" d="M103.667,124h-77V47h77V124z M27.667,123h75V48h-75V123z"/>
		</g>
		<g>
			<path fill="#CCCCCC" d="M103.667,124h-77V47h77V124z M27.667,123h75V48h-75V123z"/>
		</g>
		<g>
			<path fill="none" stroke="#CCCCCC" stroke-width="0.5" stroke-miterlimit="10" d="M103.667,124h-77V47h77V124z M27.667,123h75V48
				h-75V123z"/>
		</g>
	</g>
	<g>
		<g>
			<path fill="#CCCCCC" d="M94.667,114h-59V55h59V114z M36.667,113h57V56h-57V113z"/>
		</g>
		<g>
			<path fill="#CCCCCC" d="M94.667,114h-59V55h59V114z M36.667,113h57V56h-57V113z"/>
		</g>
		<g>
			<path fill="none" stroke="#CCCCCC" stroke-width="0.5" stroke-miterlimit="10" d="M94.667,114h-59V55h59V114z M36.667,113h57V56
				h-57V113z"/>
		</g>
	</g>
	<polygon fill="#CCCCCC" stroke="#CCCCCC" stroke-width="0.5" stroke-miterlimit="10" points="36.197,113.564 35.356,113.023 
		51.629,87.7 66.961,112.568 66.109,113.094 51.611,89.577 	"/>
	<polygon fill="#CCCCCC" stroke="#CCCCCC" stroke-width="0.5" stroke-miterlimit="10" points="93.404,112.396 70.85,75.418 
		56.674,96.499 55.844,95.939 70.891,73.564 94.258,111.874 	"/>
	<path fill="#CCCCCC" stroke="#CCCCCC" stroke-width="0.5" stroke-miterlimit="10" d="M51.852,71.744
		c-3.089,0-5.602-2.514-5.602-5.604s2.513-5.604,5.602-5.604c3.09,0,5.604,2.514,5.604,5.604S54.941,71.744,51.852,71.744z
		 M51.852,61.539c-2.537,0-4.602,2.064-4.602,4.604c0,2.539,2.064,4.604,4.602,4.604c2.539,0,4.604-2.062,4.604-4.604
		C56.456,63.603,54.391,61.539,51.852,61.539z"/>
</g>
</svg>
