<?xml version="1.0" encoding="utf-8"?>
<!-- Generator: Adobe Illustrator 16.0.0, SVG Export Plug-In . SVG Version: 6.00 Build 0)  -->
<!DOCTYPE svg PUBLIC "-//W3C//DTD SVG 1.1//EN" "http://www.w3.org/Graphics/SVG/1.1/DTD/svg11.dtd">
<svg version="1.1" id="Layer_1" xmlns="http://www.w3.org/2000/svg" xmlns:xlink="http://www.w3.org/1999/xlink" x="0px" y="0px"
	 width="130px" height="90.5px" viewBox="0 39.5 130 90.5" enable-background="new 0 39.5 130 90.5" xml:space="preserve">
<g>
	<g>
		<g>
			<g>
				<path fill="#CCCCCC" d="M104.667,124h-84V49h84V124z M21.667,123h82V50h-82V123z"/>
			</g>
			<g>
				<path fill="#CCCCCC" d="M104.667,124h-84V49h84V124z M21.667,123h82V50h-82V123z"/>
			</g>
			<g>
				<path fill="none" stroke="#CCCCCC" stroke-width="0.5" stroke-miterlimit="10" d="M104.667,124h-84V49h84V124z M21.667,123h82
					V50h-82V123z"/>
			</g>
		</g>
		<g>
			<circle fill="#B3B3B3" cx="52.425" cy="109.99" r="2.893"/>
			<circle fill="#B3B3B3" cx="62.946" cy="109.99" r="2.893"/>
			<circle fill="#B3B3B3" cx="73.468" cy="109.99" r="2.894"/>
		</g>
	</g>
	<g>
		<path fill="#B3B3B3" d="M68.848,60.473v23.642h30.264V60.473H68.848z M76.393,63.393c1.65,0,2.994,1.352,2.994,2.998
			c0,1.65-1.344,3.004-2.994,3.004c-1.658,0-2.992-1.354-2.992-3.004C73.4,64.744,74.734,63.393,76.393,63.393z M72.619,81.281
			l3.891-6.516l1.232,2.071l2.656,4.44h-7.779V81.281z M82.896,81.281l-3.234-5.571l5.062-5.673l11.188,11.244H82.896z"/>
		<rect x="29.478" y="60.473" fill="#B3B3B3" width="35.729" height="6.1"/>
		<rect x="29.478" y="69.615" fill="#B3B3B3" width="35.729" height="6.095"/>
		<rect x="29.478" y="78.76" fill="#B3B3B3" width="35.729" height="6.098"/>
		<rect x="29.478" y="87.9" fill="#B3B3B3" width="69.252" height="6.1"/>
	</g>
	<g>
		<path fill="#F15A24" d="M127.035,85.012c-0.112,0-0.225-0.039-0.314-0.121l-11.9-10.774c-0.189-0.175-0.207-0.47-0.031-0.659
			c0.174-0.191,0.469-0.208,0.66-0.034l11.9,10.776c0.191,0.174,0.205,0.469,0.032,0.658
			C127.289,84.96,127.162,85.012,127.035,85.012z"/>
		<path fill="#F15A24" d="M115.134,95.785c-0.128,0-0.254-0.053-0.347-0.154c-0.174-0.191-0.158-0.488,0.033-0.66l11.9-10.771
			c0.189-0.176,0.486-0.159,0.659,0.031c0.175,0.191,0.157,0.487-0.032,0.66l-11.9,10.773
			C115.357,95.745,115.246,95.785,115.134,95.785z"/>
	</g>
	<g>
		<path fill="#F15A24" d="M2.965,85.012c0.112,0,0.225-0.039,0.313-0.121L15.18,74.114c0.192-0.173,0.206-0.47,0.033-0.659
			c-0.174-0.193-0.47-0.208-0.661-0.034l-11.9,10.776c-0.192,0.174-0.207,0.469-0.033,0.66C2.711,84.96,2.838,85.012,2.965,85.012z"
			/>
		<path fill="#F15A24" d="M14.866,95.785c0.127,0,0.254-0.053,0.347-0.154c0.173-0.191,0.158-0.488-0.033-0.66L3.278,84.197
			c-0.191-0.174-0.487-0.159-0.66,0.033c-0.174,0.189-0.158,0.485,0.033,0.66l11.9,10.771
			C14.642,95.745,14.754,95.785,14.866,95.785z"/>
	</g>
</g>
</svg>
