<?xml version="1.0" encoding="utf-8"?>
<!-- Generator: Adobe Illustrator 16.0.0, SVG Export Plug-In . SVG Version: 6.00 Build 0)  -->
<!DOCTYPE svg PUBLIC "-//W3C//DTD SVG 1.1//EN" "http://www.w3.org/Graphics/SVG/1.1/DTD/svg11.dtd">
<svg version="1.1" id="Layer_1" xmlns="http://www.w3.org/2000/svg" xmlns:xlink="http://www.w3.org/1999/xlink" x="0px" y="0px"
	 width="130px" height="116.5px" viewBox="0 13.5 130 116.5" enable-background="new 0 13.5 130 116.5" xml:space="preserve">
<g>
	<polygon fill="#CCCCCC" points="110.562,44.211 110.562,43.631 20.035,43.631 20.035,23.316 109.982,23.316 109.982,44.211 
		110.562,44.211 110.562,43.631 110.562,44.211 111.145,44.211 111.145,22.156 18.873,22.156 18.873,44.792 111.145,44.792 
		111.145,44.211 	"/>
	<polygon fill="#CCCCCC" points="110.562,123.139 110.562,122.559 20.021,122.559 20.021,108.048 109.982,108.048 109.982,123.139 
		110.562,123.139 110.562,122.559 110.562,123.139 111.145,123.139 111.145,106.886 18.859,106.886 18.859,123.718 111.145,123.718 
		111.145,123.139 	"/>
	<polygon fill="#CCCCCC" points="95.473,104.564 96.055,104.564 96.055,47.693 109.982,47.693 109.982,103.984 95.473,103.984 
		95.473,104.564 96.055,104.564 95.473,104.564 95.473,105.146 111.145,105.146 111.145,46.535 94.893,46.535 94.893,105.146 
		95.473,105.146 	"/>
	<polygon fill="#F15A24" points="19.437,104.721 19.437,105.3 93.134,105.3 93.134,46.535 18.856,46.535 18.856,105.3 19.437,105.3 
		19.437,104.721 20.018,104.721 20.018,47.693 91.975,47.693 91.975,104.141 19.437,104.141 19.437,104.721 20.018,104.721 	"/>
	<g>
		<rect x="23.779" y="53.06" fill="none" width="65.25" height="25.492"/>
		<path fill="#B3B3B3" d="M24.677,53.515h2.222c1.012,0,1.747,0.145,2.205,0.432c0.458,0.289,0.686,0.747,0.686,1.375
			c0,0.427-0.1,0.776-0.3,1.05c-0.2,0.274-0.466,0.438-0.798,0.493v0.049c0.453,0.101,0.779,0.29,0.979,0.566
			c0.2,0.276,0.3,0.645,0.3,1.104c0,0.651-0.235,1.159-0.706,1.523c-0.471,0.364-1.109,0.547-1.917,0.547h-2.671V53.515z
			 M26.19,56.342h0.879c0.41,0,0.707-0.063,0.891-0.19s0.276-0.337,0.276-0.63c0-0.273-0.1-0.47-0.3-0.589
			c-0.2-0.118-0.517-0.178-0.95-0.178H26.19V56.342z M26.19,57.543v1.86h0.986c0.417,0,0.724-0.08,0.923-0.239
			c0.199-0.159,0.298-0.403,0.298-0.732c0-0.593-0.423-0.889-1.27-0.889H26.19L26.19,57.543z"/>
		<path fill="#B3B3B3" d="M31.295,60.653v-7.139h1.514v5.889h2.896v1.25H31.295z"/>
		<path fill="#B3B3B3" d="M43.324,57.074c0,1.182-0.293,2.09-0.879,2.725c-0.586,0.635-1.426,0.952-2.52,0.952
			c-1.094,0-1.934-0.317-2.52-0.952c-0.586-0.635-0.879-1.546-0.879-2.734s0.294-2.096,0.881-2.722
			c0.587-0.627,1.43-0.94,2.527-0.94c1.097,0,1.936,0.315,2.517,0.947C43.032,54.982,43.324,55.89,43.324,57.074z M38.114,57.074
			c0,0.798,0.151,1.398,0.454,1.802c0.303,0.404,0.755,0.605,1.357,0.605c1.208,0,1.812-0.803,1.812-2.407
			c0-1.608-0.601-2.412-1.802-2.412c-0.602,0-1.056,0.202-1.362,0.608C38.267,55.675,38.114,56.276,38.114,57.074z"/>
		<path fill="#B3B3B3" d="M47.414,56.645h2.832v3.701c-0.459,0.149-0.891,0.255-1.296,0.315c-0.405,0.06-0.819,0.09-1.243,0.09
			c-1.078,0-1.9-0.316-2.468-0.949c-0.568-0.634-0.852-1.543-0.852-2.728c0-1.152,0.33-2.051,0.989-2.695s1.573-0.967,2.742-0.967
			c0.732,0,1.439,0.146,2.119,0.439l-0.503,1.211c-0.521-0.261-1.063-0.391-1.626-0.391c-0.654,0-1.178,0.22-1.572,0.659
			s-0.591,1.03-0.591,1.772c0,0.774,0.159,1.366,0.476,1.774c0.317,0.409,0.779,0.613,1.384,0.613c0.316,0,0.636-0.032,0.962-0.098
			v-1.489h-1.353V56.645z"/>
	</g>
	<g>
		<rect x="24.812" y="65.964" fill="#B3B3B3" width="55.75" height="2.484"/>
		<rect x="24.812" y="69.688" fill="#B3B3B3" width="62" height="2.482"/>
	</g>
	<g>
		<rect x="24.812" y="93.239" fill="#B3B3B3" width="61.967" height="2.487"/>
		<rect x="24.812" y="96.971" fill="#B3B3B3" width="39.25" height="2.483"/>
	</g>
	<g>
		<rect x="24.812" y="77.391" fill="#B3B3B3" width="55.75" height="2.487"/>
		<rect x="24.812" y="81.12" fill="#B3B3B3" width="62" height="2.483"/>
		<rect x="24.812" y="84.85" fill="#B3B3B3" width="49.25" height="2.485"/>
	</g>
</g>
</svg>
