<?xml version="1.0" encoding="utf-8"?>
<!-- Generator: Adobe Illustrator 16.0.0, SVG Export Plug-In . SVG Version: 6.00 Build 0)  -->
<!DOCTYPE svg PUBLIC "-//W3C//DTD SVG 1.1//EN" "http://www.w3.org/Graphics/SVG/1.1/DTD/svg11.dtd">
<svg version="1.1" id="Layer_1" xmlns="http://www.w3.org/2000/svg" xmlns:xlink="http://www.w3.org/1999/xlink" x="0px" y="0px"
	 width="130px" height="92.5px" viewBox="0 37.5 130 92.5" enable-background="new 0 37.5 130 92.5" xml:space="preserve">
<g>
	<g>
		<g>
			<path fill="#B3B3B3" d="M24.832,56.533h3.288c1.498,0,2.586,0.213,3.263,0.64c0.677,0.426,1.016,1.104,1.016,2.034
				c0,0.631-0.148,1.148-0.444,1.554c-0.296,0.404-0.69,0.647-1.182,0.729v0.072c0.669,0.149,1.152,0.429,1.448,0.839
				c0.297,0.409,0.445,0.954,0.445,1.633c0,0.964-0.349,1.716-1.045,2.255c-0.695,0.54-1.642,0.811-2.836,0.811h-3.953V56.533z
				 M27.072,60.717h1.301c0.607,0,1.047-0.094,1.318-0.281c0.272-0.188,0.408-0.499,0.408-0.933c0-0.404-0.147-0.694-0.443-0.871
				c-0.297-0.176-0.766-0.264-1.406-0.264h-1.178V60.717z M27.072,62.495v2.753h1.459c0.617,0,1.072-0.117,1.367-0.354
				c0.293-0.236,0.44-0.598,0.44-1.084c0-0.877-0.626-1.315-1.88-1.315H27.072z"/>
			<path fill="#B3B3B3" d="M50.209,65.469c-0.203,0.752,0.063,1.065,0.611,1.065h0.58c0.094,0,0.109,0.063,0.094,0.157l-0.047,0.328
				c-0.016,0.095-0.031,0.125-0.188,0.125c-0.173,0-0.91-0.047-2.664-0.047c-1.396,0-2.147,0.047-2.32,0.047
				c-0.109,0-0.141-0.047-0.125-0.155l0.078-0.36c0.016-0.062,0.031-0.095,0.125-0.095h0.518c0.925,0,0.987-0.313,1.207-1.128
				l1.959-7.209c0.203-0.768-0.063-1.034-0.33-1.034h-0.721c-0.125,0-0.156-0.031-0.141-0.125l0.078-0.392
				c0.016-0.063,0.063-0.095,0.204-0.095c0.188,0,1.019,0.048,2.429,0.048c1.363,0,2.037-0.048,2.257-0.048
				c0.157,0,0.204,0.063,0.173,0.188l-0.078,0.298c-0.017,0.078-0.048,0.125-0.173,0.125H53.25c-0.408,0-0.831,0.157-1.082,1.082
				L50.209,65.469z"/>
			<path fill="#B3B3B3" d="M78.854,56.533v6.836c0,1.205-0.361,2.15-1.092,2.841c-0.727,0.688-1.727,1.033-2.998,1.033
				c-1.271,0-2.257-0.347-2.953-1.041c-0.693-0.693-1.043-1.647-1.043-2.861v-6.808h1.229v6.895c0,0.881,0.239,1.559,0.724,2.03
				c0.48,0.474,1.189,0.708,2.125,0.708c0.893,0,1.576-0.236,2.061-0.712c0.479-0.474,0.723-1.154,0.723-2.041v-6.88H78.854z"/>
			<path fill="#B3B3B3" d="M69.422,68.58v-0.737h10.775v0.737H69.422z"/>
		</g>
		<g>
			
				<rect x="24.528" y="80.956" fill="#B3B3B3" stroke="#B3B3B3" stroke-width="0.7011" stroke-miterlimit="10" width="11.116" height="0.729"/>
			
				<rect x="24.528" y="84.23" fill="#B3B3B3" stroke="#B3B3B3" stroke-width="0.7011" stroke-miterlimit="10" width="11.116" height="0.729"/>
			
				<rect x="24.528" y="84.23" fill="#B3B3B3" stroke="#B3B3B3" stroke-width="0.7011" stroke-miterlimit="10" width="14.21" height="0.729"/>
			
				<rect x="24.528" y="87.507" fill="#B3B3B3" stroke="#B3B3B3" stroke-width="0.7011" stroke-miterlimit="10" width="12.39" height="0.728"/>
			
				<rect x="24.528" y="90.781" fill="#B3B3B3" stroke="#B3B3B3" stroke-width="0.7011" stroke-miterlimit="10" width="15.362" height="0.729"/>
			
				<rect x="58.396" y="80.956" fill="#B3B3B3" stroke="#B3B3B3" stroke-width="0.7011" stroke-miterlimit="10" width="11.116" height="0.729"/>
			
				<rect x="58.396" y="84.23" fill="#B3B3B3" stroke="#B3B3B3" stroke-width="0.7011" stroke-miterlimit="10" width="11.116" height="0.729"/>
			
				<rect x="56.85" y="84.23" fill="#B3B3B3" stroke="#B3B3B3" stroke-width="0.7011" stroke-miterlimit="10" width="14.21" height="0.729"/>
			
				<rect x="57.76" y="87.507" fill="#B3B3B3" stroke="#B3B3B3" stroke-width="0.7011" stroke-miterlimit="10" width="12.391" height="0.728"/>
			
				<rect x="56.273" y="90.781" fill="#B3B3B3" stroke="#B3B3B3" stroke-width="0.7011" stroke-miterlimit="10" width="15.361" height="0.729"/>
			
				<rect x="92.07" y="80.956" fill="#B3B3B3" stroke="#B3B3B3" stroke-width="0.7011" stroke-miterlimit="10" width="11.117" height="0.729"/>
			
				<rect x="92.07" y="84.23" fill="#B3B3B3" stroke="#B3B3B3" stroke-width="0.7011" stroke-miterlimit="10" width="11.117" height="0.729"/>
			
				<rect x="88.979" y="84.23" fill="#B3B3B3" stroke="#B3B3B3" stroke-width="0.7011" stroke-miterlimit="10" width="14.209" height="0.729"/>
			
				<rect x="90.797" y="87.507" fill="#B3B3B3" stroke="#B3B3B3" stroke-width="0.7011" stroke-miterlimit="10" width="12.391" height="0.728"/>
			
				<rect x="87.824" y="90.781" fill="#B3B3B3" stroke="#B3B3B3" stroke-width="0.7011" stroke-miterlimit="10" width="15.363" height="0.729"/>
		</g>
		<rect x="92.667" y="67" fill="#B3B3B3" width="12" height="2"/>
		<g>
			<path fill="#B3B3B3" d="M29.518,113.279c0,0.582-0.207,1.043-0.619,1.383s-0.933,0.508-1.563,0.508
				c-0.775,0-1.394-0.23-1.854-0.689c-0.461-0.461-0.691-1.139-0.691-2.037c0-0.82,0.128-1.535,0.383-2.145
				c0.254-0.605,0.563-1.107,0.926-1.508c0.364-0.4,0.752-0.721,1.164-0.963c0.412-0.242,0.775-0.412,1.09-0.51l0.982,1.455
				c-0.582,0.266-1.055,0.617-1.418,1.053c-0.363,0.438-0.521,0.971-0.473,1.6c0.63-0.121,1.133,0,1.508,0.363
				C29.329,112.154,29.518,112.65,29.518,113.279z M35.405,113.279c0,0.582-0.206,1.043-0.618,1.383s-0.933,0.508-1.563,0.508
				c-0.775,0-1.395-0.23-1.854-0.689c-0.461-0.461-0.691-1.139-0.691-2.037c0-0.82,0.127-1.535,0.383-2.145
				c0.254-0.605,0.563-1.107,0.926-1.508c0.363-0.4,0.752-0.721,1.164-0.963c0.411-0.242,0.775-0.412,1.09-0.51l0.981,1.455
				c-0.581,0.266-1.054,0.617-1.417,1.053c-0.363,0.438-0.521,0.971-0.473,1.6c0.629-0.121,1.133,0,1.508,0.363
				C35.217,112.154,35.405,112.65,35.405,113.279z"/>
		</g>
		<g>
			<path fill="#B3B3B3" d="M100.746,64.856l-1.066-2.725h-3.434l-1.055,2.725h-1.008l3.387-8.602h0.838l3.369,8.602H100.746z
				 M99.369,61.235l-0.996-2.654c-0.129-0.336-0.262-0.748-0.398-1.236c-0.086,0.375-0.209,0.787-0.369,1.236l-1.008,2.654H99.369z"
				/>
		</g>
	</g>
	<g>
		<g>
			<g>
				<path fill="#CCCCCC" d="M114.667,124h-99V49h99V124z M16.667,123h97V50h-97V123z"/>
			</g>
			<g>
				<rect x="16.667" y="74" fill="#CCCCCC" width="97" height="1"/>
			</g>
			<g>
				<rect x="16.667" y="98" fill="#CCCCCC" width="97" height="1"/>
			</g>
		</g>
		<g>
			<g>
				<path fill="#CCCCCC" d="M114.667,124h-99V49h99V124z M16.667,123h97V50h-97V123z"/>
			</g>
			<g>
				<rect x="16.667" y="74" fill="#CCCCCC" width="97" height="1"/>
			</g>
			<g>
				<rect x="16.667" y="98" fill="#CCCCCC" width="97" height="1"/>
			</g>
		</g>
		<g>
			<g>
				<path fill="none" stroke="#CCCCCC" stroke-width="0.5" stroke-miterlimit="10" d="M114.667,124h-99V49h99V124z M16.667,123h97
					V50h-97V123z"/>
			</g>
			<g>
				<rect x="16.667" y="74" fill="none" stroke="#CCCCCC" stroke-width="0.5" stroke-miterlimit="10" width="97" height="1"/>
			</g>
			<g>
				<rect x="16.667" y="98" fill="none" stroke="#CCCCCC" stroke-width="0.5" stroke-miterlimit="10" width="97" height="1"/>
			</g>
		</g>
	</g>
	<path fill="#B3B3B3" d="M51.039,103.398v15.422h19.744v-15.422H51.039z M55.962,105.303c1.077,0,1.953,0.883,1.953,1.956
		c0,1.077-0.876,1.959-1.953,1.959c-1.082,0-1.952-0.882-1.952-1.959C54.01,106.186,54.88,105.303,55.962,105.303z M53.5,116.975
		l2.539-4.25l0.803,1.353l1.733,2.897H53.5z M60.205,116.975l-2.11-3.636l3.304-3.7l7.298,7.336H60.205z"/>
	<g>
		
			<rect x="88.801" y="105.677" fill="#B3B3B3" stroke="#B3B3B3" stroke-width="0.7111" stroke-miterlimit="10" width="14.413" height="0.738"/>
		
			<rect x="88.801" y="110.811" fill="#B3B3B3" stroke="#B3B3B3" stroke-width="0.7111" stroke-miterlimit="10" width="14.413" height="0.737"/>
		
			<rect x="88.801" y="115.941" fill="#B3B3B3" stroke="#B3B3B3" stroke-width="0.7111" stroke-miterlimit="10" width="14.413" height="0.738"/>
		<circle fill="#B3B3B3" cx="85.438" cy="105.563" r="1.563"/>
		<circle fill="#B3B3B3" cx="85.438" cy="110.563" r="1.563"/>
		<circle fill="#B3B3B3" cx="85.438" cy="115.563" r="1.563"/>
	</g>
</g>
</svg>
