<?xml version="1.0" encoding="utf-8"?>
<!-- Generator: Adobe Illustrator 16.0.0, SVG Export Plug-In . SVG Version: 6.00 Build 0)  -->
<!DOCTYPE svg PUBLIC "-//W3C//DTD SVG 1.1//EN" "http://www.w3.org/Graphics/SVG/1.1/DTD/svg11.dtd">
<svg version="1.1" id="Layer_1" xmlns="http://www.w3.org/2000/svg" xmlns:xlink="http://www.w3.org/1999/xlink" x="0px" y="0px"
	 width="130px" height="102.5px" viewBox="0 27.5 130 102.5" enable-background="new 0 27.5 130 102.5" xml:space="preserve">
<g>
	<g>
		<polygon fill="#CCCCCC" points="110.21,123.34 110.21,122.76 19.683,122.76 19.683,37.24 109.63,37.24 109.63,123.34 
			110.21,123.34 110.21,122.76 110.21,123.34 110.792,123.34 110.792,36.08 18.521,36.08 18.521,123.92 110.792,123.92 
			110.792,123.34 		"/>
		<g>
			<rect x="18.667" y="63" fill="#CCCCCC" width="92" height="1"/>
		</g>
	</g>
	<polygon fill="#B3B3B3" points="94.654,45.929 105.62,45.927 100.118,54.488 	"/>
	<g>
		<path fill="#B3B3B3" d="M33.11,58.166h-3.119l-0.466-2.794c-0.327-0.105-0.648-0.239-0.959-0.397l-2.306,1.647l-2.206-2.206
			l1.647-2.308c-0.157-0.307-0.291-0.629-0.397-0.958l-2.795-0.466v-3.12l2.795-0.465c0.106-0.329,0.239-0.648,0.397-0.959
			l-1.647-2.307l2.206-2.206l2.305,1.647c0.309-0.157,0.63-0.289,0.96-0.396l0.466-2.795h3.119l0.466,2.794
			c0.327,0.105,0.648,0.239,0.958,0.397l2.307-1.647l2.206,2.206L37.4,46.14c0.157,0.307,0.29,0.629,0.397,0.959l2.795,0.465v3.121
			l-2.795,0.464c-0.106,0.327-0.239,0.649-0.397,0.958l1.647,2.308l-2.206,2.204l-2.305-1.646c-0.309,0.158-0.63,0.29-0.96,0.397
			L33.11,58.166z M30.636,57.405h1.83l0.438-2.631l0.231-0.065c0.434-0.122,0.851-0.296,1.243-0.515l0.21-0.117l2.17,1.547
			l1.294-1.293l-1.551-2.169l0.118-0.209c0.221-0.397,0.394-0.816,0.515-1.244l0.065-0.232l2.63-0.437v-1.83l-2.63-0.438
			l-0.065-0.234c-0.122-0.434-0.296-0.85-0.515-1.241l-0.118-0.21l1.551-2.17l-1.294-1.294l-2.17,1.55l-0.21-0.119
			c-0.396-0.22-0.815-0.394-1.243-0.515l-0.231-0.064l-0.438-2.63h-1.83l-0.438,2.63l-0.231,0.066
			c-0.434,0.122-0.851,0.296-1.243,0.513l-0.21,0.119l-2.17-1.55l-1.294,1.294l1.55,2.17l-0.117,0.21
			c-0.221,0.396-0.393,0.813-0.514,1.241L25.9,47.772l-2.629,0.438v1.83l2.63,0.438l0.066,0.232
			c0.121,0.434,0.295,0.851,0.514,1.243l0.117,0.21l-1.55,2.171l1.294,1.293l2.17-1.55l0.21,0.117
			c0.396,0.222,0.815,0.396,1.242,0.517l0.232,0.064L30.636,57.405z"/>
		<path fill="#B3B3B3" d="M31.551,52.67c-1.956,0-3.546-1.591-3.546-3.545s1.59-3.545,3.546-3.545c1.954,0,3.546,1.591,3.546,3.545
			S33.505,52.67,31.551,52.67z M31.552,46.835c-1.262,0-2.289,1.025-2.289,2.289c0,1.262,1.027,2.29,2.289,2.29
			c1.262,0,2.288-1.028,2.288-2.29C33.84,47.86,32.813,46.835,31.552,46.835z"/>
	</g>
	<g>
		<rect x="46.229" y="44.533" fill="none" width="65.251" height="25.5"/>
		<path fill="#B3B3B3" d="M55.648,53.652H53.58l-1.16-4.5c-0.043-0.16-0.116-0.491-0.22-0.993s-0.163-0.839-0.179-1.011
			c-0.023,0.211-0.082,0.55-0.176,1.017c-0.094,0.467-0.166,0.8-0.217,0.999l-1.154,4.488h-2.063l-2.186-8.566h1.787l1.096,4.676
			c0.191,0.863,0.33,1.611,0.416,2.244c0.023-0.223,0.077-0.567,0.161-1.034c0.084-0.467,0.163-0.829,0.237-1.087l1.248-4.799h1.717
			l1.248,4.799c0.055,0.215,0.123,0.543,0.205,0.984c0.082,0.441,0.145,0.82,0.188,1.137c0.039-0.305,0.102-0.685,0.188-1.14
			c0.086-0.455,0.164-0.823,0.234-1.104l1.09-4.676h1.787L55.648,53.652z"/>
		<path fill="#B3B3B3" d="M58.569,45.408c0-0.582,0.324-0.873,0.973-0.873s0.973,0.291,0.973,0.873c0,0.277-0.081,0.493-0.243,0.647
			c-0.162,0.154-0.405,0.231-0.729,0.231C58.894,46.287,58.569,45.994,58.569,45.408z M60.433,53.652h-1.787v-6.551h1.787V53.652z"
			/>
		<path fill="#B3B3B3" d="M64.262,53.77c-0.77,0-1.374-0.299-1.813-0.896c-0.439-0.597-0.659-1.426-0.659-2.484
			c0-1.074,0.224-1.911,0.671-2.511c0.447-0.6,1.063-0.899,1.849-0.899c0.824,0,1.454,0.32,1.887,0.961h0.059
			c-0.09-0.488-0.135-0.924-0.135-1.307v-2.098h1.793v9.117h-1.371l-0.346-0.85h-0.076C65.713,53.447,65.094,53.77,64.262,53.77z
			 M64.889,52.346c0.457,0,0.792-0.133,1.005-0.398c0.213-0.265,0.328-0.717,0.349-1.354V50.4c0-0.703-0.108-1.207-0.325-1.512
			c-0.217-0.305-0.569-0.457-1.058-0.457c-0.398,0-0.708,0.169-0.929,0.507c-0.221,0.338-0.331,0.83-0.331,1.474
			s0.111,1.128,0.334,1.45C64.157,52.184,64.475,52.346,64.889,52.346z"/>
		<path fill="#B3B3B3" d="M75.361,47.102v0.908l-1.024,0.264c0.188,0.293,0.281,0.621,0.281,0.984c0,0.703-0.244,1.251-0.734,1.644
			c-0.489,0.393-1.172,0.589-2.043,0.589l-0.321-0.018l-0.265-0.029c-0.185,0.141-0.274,0.297-0.274,0.469
			c0,0.258,0.328,0.387,0.983,0.387h1.113c0.719,0,1.269,0.154,1.646,0.463s0.563,0.762,0.563,1.359
			c0,0.766-0.318,1.359-0.957,1.781c-0.64,0.422-1.558,0.633-2.752,0.633c-0.914,0-1.611-0.159-2.095-0.478
			c-0.482-0.319-0.726-0.765-0.726-1.339c0-0.395,0.123-0.725,0.369-0.99s0.606-0.455,1.084-0.568
			c-0.185-0.078-0.344-0.206-0.479-0.384c-0.135-0.178-0.205-0.366-0.205-0.565c0-0.25,0.072-0.458,0.218-0.624
			s0.354-0.329,0.627-0.489c-0.345-0.148-0.615-0.387-0.815-0.715c-0.201-0.328-0.304-0.715-0.304-1.16
			c0-0.715,0.231-1.268,0.697-1.658c0.465-0.39,1.129-0.586,1.991-0.586c0.185,0,0.401,0.017,0.653,0.05
			c0.253,0.033,0.412,0.058,0.482,0.073L75.361,47.102L75.361,47.102z M70.307,54.578c0,0.246,0.118,0.439,0.354,0.58
			c0.235,0.141,0.565,0.211,0.991,0.211c0.642,0,1.144-0.088,1.507-0.264c0.362-0.176,0.545-0.416,0.545-0.721
			c0-0.246-0.106-0.416-0.322-0.51c-0.215-0.094-0.547-0.141-0.996-0.141H71.46c-0.328,0-0.603,0.077-0.821,0.231
			C70.418,54.118,70.307,54.324,70.307,54.578z M70.956,49.246c0,0.355,0.082,0.637,0.244,0.844
			c0.161,0.207,0.407,0.311,0.739,0.311c0.336,0,0.582-0.104,0.737-0.311c0.156-0.207,0.234-0.488,0.234-0.844
			c0-0.789-0.324-1.184-0.974-1.184C71.284,48.063,70.956,48.457,70.956,49.246z"/>
		<path fill="#B3B3B3" d="M79.286,53.77c-1.056,0-1.879-0.291-2.474-0.873s-0.892-1.406-0.892-2.473
			c0-1.098,0.272-1.946,0.822-2.546c0.549-0.6,1.309-0.899,2.276-0.899c0.926,0,1.646,0.264,2.162,0.791
			c0.517,0.527,0.772,1.256,0.772,2.186v0.867H77.73c0.021,0.508,0.17,0.904,0.451,1.189c0.28,0.285,0.676,0.428,1.185,0.428
			c0.396,0,0.768-0.041,1.118-0.123c0.352-0.082,0.72-0.213,1.103-0.393v1.383c-0.313,0.156-0.646,0.272-1.002,0.349
			C80.229,53.733,79.798,53.77,79.286,53.77z M79.034,48.25c-0.38,0-0.677,0.12-0.892,0.36c-0.216,0.24-0.338,0.581-0.369,1.022
			h2.509c-0.009-0.441-0.123-0.782-0.347-1.022C79.713,48.37,79.413,48.25,79.034,48.25z"/>
		<path fill="#B3B3B3" d="M86.05,52.346c0.313,0,0.688-0.068,1.125-0.205v1.33c-0.444,0.199-0.991,0.299-1.641,0.299
			c-0.716,0-1.234-0.181-1.562-0.542c-0.326-0.361-0.49-0.903-0.49-1.626v-3.158h-0.854v-0.756l0.983-0.598l0.517-1.383h1.144v1.395
			h1.834v1.342h-1.834v3.158c0,0.254,0.071,0.441,0.215,0.563C85.629,52.287,85.814,52.346,86.05,52.346z"/>
	</g>
</g>
</svg>
