<?xml version="1.0" encoding="utf-8"?>
<!-- Generator: Adobe Illustrator 16.0.0, SVG Export Plug-In . SVG Version: 6.00 Build 0)  -->
<!DOCTYPE svg PUBLIC "-//W3C//DTD SVG 1.1//EN" "http://www.w3.org/Graphics/SVG/1.1/DTD/svg11.dtd">
<svg version="1.1" id="Layer_1" xmlns="http://www.w3.org/2000/svg" xmlns:xlink="http://www.w3.org/1999/xlink" x="0px" y="0px"
	 width="130px" height="130px" viewBox="0 0 130 130" enable-background="new 0 0 130 130" xml:space="preserve">
<g>
	<line fill="none" x1="107.338" y1="80.18" x2="108.588" y2="83.93"/>
	<g>
		<polygon fill="#CCCCCC" points="110.83,44.483 110.83,43.903 20.304,43.903 20.304,23.588 110.25,23.588 110.25,44.483 
			110.83,44.483 110.83,43.903 110.83,44.483 111.412,44.483 111.412,22.428 19.142,22.428 19.142,45.063 111.412,45.063 
			111.412,44.483 		"/>
		<polygon fill="#CCCCCC" points="110.83,123.42 110.83,122.84 20.289,122.84 20.289,108.328 110.25,108.328 110.25,123.42 
			110.83,123.42 110.83,122.84 110.83,123.42 111.412,123.42 111.412,107.168 19.128,107.168 19.128,124 111.412,124 
			111.412,123.42 		"/>
		<polygon fill="#CCCCCC" points="95.74,104.848 96.322,104.848 96.322,47.965 110.25,47.965 110.25,104.266 95.74,104.266 
			95.74,104.848 96.322,104.848 95.74,104.848 95.74,105.426 111.412,105.426 111.412,46.807 95.16,46.807 95.16,105.426 
			95.74,105.426 		"/>
		<polygon fill="#F15A24" points="57.705,74.666 57.705,75.246 93.42,75.246 93.42,46.807 57.125,46.807 57.125,75.246 
			57.705,75.246 57.705,74.666 58.286,74.666 58.286,47.965 92.258,47.965 92.258,74.086 57.705,74.086 57.705,74.666 
			58.286,74.666 		"/>
		<g>
			<path fill="#B3B3B3" d="M77.17,51.733v9.643h12.344v-9.643H77.17z M80.248,52.925c0.674,0,1.221,0.551,1.221,1.223
				c0,0.673-0.547,1.225-1.221,1.225c-0.676,0-1.221-0.552-1.221-1.225C79.027,53.476,79.572,52.925,80.248,52.925z M78.709,60.221
				l1.588-2.657l0.502,0.846l1.084,1.812L78.709,60.221L78.709,60.221z M82.9,60.221l-1.318-2.272l2.064-2.313l4.562,4.586
				L82.9,60.221L82.9,60.221z"/>
			<rect x="61.113" y="51.733" fill="#B3B3B3" width="14.573" height="2.488"/>
			<rect x="61.113" y="55.463" fill="#B3B3B3" width="14.573" height="2.485"/>
			<rect x="61.113" y="59.192" fill="#B3B3B3" width="14.573" height="2.486"/>
			<rect x="61.113" y="62.921" fill="#B3B3B3" width="28.247" height="2.487"/>
		</g>
		<polygon fill="#F15A24" points="19.705,74.666 19.705,75.246 55.42,75.246 55.42,46.807 19.125,46.807 19.125,75.246 
			19.705,75.246 19.705,74.666 20.286,74.666 20.286,47.965 54.259,47.965 54.259,74.086 19.705,74.086 19.705,74.666 
			20.286,74.666 		"/>
		<g>
			<path fill="#B3B3B3" d="M39.171,51.733v9.643h12.344v-9.643H39.171z M42.249,52.925c0.673,0,1.221,0.551,1.221,1.223
				c0,0.673-0.548,1.225-1.221,1.225c-0.677,0-1.221-0.552-1.221-1.225C41.028,53.476,41.572,52.925,42.249,52.925z M40.71,60.221
				l1.587-2.657l0.502,0.846l1.084,1.812L40.71,60.221L40.71,60.221z M44.901,60.221l-1.319-2.272l2.065-2.313l4.563,4.586
				L44.901,60.221L44.901,60.221z"/>
			<rect x="23.113" y="51.733" fill="#B3B3B3" width="14.573" height="2.488"/>
			<rect x="23.113" y="55.463" fill="#B3B3B3" width="14.573" height="2.485"/>
			<rect x="23.113" y="59.192" fill="#B3B3B3" width="14.573" height="2.486"/>
			<rect x="23.113" y="62.921" fill="#B3B3B3" width="28.246" height="2.487"/>
		</g>
		<polygon fill="#F15A24" points="57.705,104.832 57.705,105.414 93.42,105.414 93.42,76.975 57.125,76.975 57.125,105.414 
			57.705,105.414 57.705,104.832 58.286,104.832 58.286,78.133 92.258,78.133 92.258,104.252 57.705,104.252 57.705,104.832 
			58.286,104.832 		"/>
		<g>
			<path fill="#B3B3B3" d="M77.17,81.9v9.643h12.344V81.9H77.17z M80.248,83.092c0.674,0,1.221,0.551,1.221,1.223
				c0,0.677-0.547,1.228-1.221,1.228c-0.676,0-1.221-0.551-1.221-1.228C79.027,83.643,79.572,83.092,80.248,83.092z M78.709,90.389
				l1.588-2.658l0.502,0.849l1.084,1.812h-3.174V90.389L78.709,90.389z M82.9,90.389l-1.318-2.271l2.064-2.312l4.562,4.586H82.9
				V90.389z"/>
			<rect x="61.113" y="81.9" fill="#B3B3B3" width="14.573" height="2.488"/>
			<rect x="61.113" y="85.631" fill="#B3B3B3" width="14.573" height="2.484"/>
			<rect x="61.113" y="89.359" fill="#B3B3B3" width="14.573" height="2.486"/>
			<rect x="61.113" y="93.088" fill="#B3B3B3" width="28.247" height="2.488"/>
		</g>
		<polygon fill="#F15A24" points="19.705,104.832 19.705,105.414 55.42,105.414 55.42,76.975 19.125,76.975 19.125,105.414 
			19.705,105.414 19.705,104.832 20.286,104.832 20.286,78.133 54.259,78.133 54.259,104.252 19.705,104.252 19.705,104.832 
			20.286,104.832 		"/>
		<g>
			<path fill="#B3B3B3" d="M39.171,81.9v9.643h12.344V81.9H39.171z M42.249,83.092c0.673,0,1.221,0.551,1.221,1.223
				c0,0.677-0.548,1.228-1.221,1.228c-0.677,0-1.221-0.551-1.221-1.228C41.028,83.643,41.572,83.092,42.249,83.092z M40.71,90.389
				l1.587-2.658l0.502,0.849l1.084,1.812H40.71V90.389z M44.901,90.389l-1.319-2.271l2.065-2.312l4.563,4.586h-5.309V90.389z"/>
			<rect x="23.113" y="81.9" fill="#B3B3B3" width="14.573" height="2.488"/>
			<rect x="23.113" y="85.631" fill="#B3B3B3" width="14.573" height="2.484"/>
			<rect x="23.113" y="89.359" fill="#B3B3B3" width="14.573" height="2.486"/>
			<rect x="23.113" y="93.088" fill="#B3B3B3" width="28.246" height="2.488"/>
		</g>
		<circle fill="#FFFFFF" stroke="#F15A24" stroke-miterlimit="10" cx="20.588" cy="22" r="16"/>
		<g>
			<path fill="#F05A29" d="M25.002,14.346v-3.401h-3.4v3.401h-3.397v-3.401h-3.401v3.401h-3.4v16.998h17V14.346H25.002z
				 M13.86,22.887c0,0,5.483-7.463,12.227,0C26.087,22.887,20.604,30.526,13.86,22.887z"/>
			<path fill="#F05A29" d="M19.973,20.622c-1.272,0-2.303,1.033-2.303,2.306c0,1.271,1.03,2.303,2.303,2.303
				s2.305-1.033,2.305-2.303C22.277,21.655,21.246,20.622,19.973,20.622z M19.973,24.445c-0.838,0-1.518-0.681-1.518-1.518
				c0-0.841,0.68-1.521,1.518-1.521c0.84,0,1.52,0.68,1.52,1.521C21.492,23.765,20.813,24.445,19.973,24.445z"/>
		</g>
	</g>
</g>
</svg>
