<?xml version="1.0" encoding="utf-8"?>
<!-- Generator: Adobe Illustrator 16.0.0, SVG Export Plug-In . SVG Version: 6.00 Build 0)  -->
<!DOCTYPE svg PUBLIC "-//W3C//DTD SVG 1.1//EN" "http://www.w3.org/Graphics/SVG/1.1/DTD/svg11.dtd">
<svg version="1.1" id="Layer_1" xmlns="http://www.w3.org/2000/svg" xmlns:xlink="http://www.w3.org/1999/xlink" x="0px" y="0px"
	 width="130px" height="130px" viewBox="0 0 130 130" enable-background="new 0 0 130 130" xml:space="preserve">
<g>
	<polygon fill="#CCCCCC" points="110.085,43.965 110.085,43.385 19.557,43.385 19.557,23.07 109.505,23.07 109.505,43.965 
		110.085,43.965 110.085,43.385 110.085,43.965 110.666,43.965 110.666,21.91 18.396,21.91 18.396,44.545 110.666,44.545 
		110.666,43.965 	"/>
	<polygon fill="#CCCCCC" points="110.085,122.9 110.085,122.32 19.543,122.32 19.543,107.811 109.505,107.811 109.505,122.9 
		110.085,122.9 110.085,122.32 110.085,122.9 110.666,122.9 110.666,106.648 18.382,106.648 18.382,123.48 110.666,123.48 
		110.666,122.9 	"/>
	<polygon fill="#CCCCCC" points="94.994,104.328 95.576,104.328 95.576,47.447 109.505,47.447 109.505,103.748 94.994,103.748 
		94.994,104.328 95.576,104.328 94.994,104.328 94.994,104.908 110.666,104.908 110.666,46.289 94.414,46.289 94.414,104.908 
		94.994,104.908 	"/>
	<polygon fill="#F15A24" points="18.959,104.482 18.959,105.062 92.656,105.062 92.656,46.289 18.379,46.289 18.379,105.062 
		18.959,105.062 18.959,104.482 19.539,104.482 19.539,47.447 91.496,47.447 91.496,103.902 18.959,103.902 18.959,104.482 
		19.539,104.482 	"/>
	<g>
		<rect x="23.302" y="52.814" fill="none" width="65.25" height="25.5"/>
		<path fill="#B3B3B3" d="M27.231,54.431c-0.57,0-1.011,0.214-1.323,0.642c-0.313,0.429-0.469,1.025-0.469,1.79
			c0,1.592,0.597,2.388,1.792,2.388c0.501,0,1.108-0.125,1.821-0.376v1.27c-0.586,0.244-1.24,0.366-1.963,0.366
			c-1.039,0-1.833-0.312-2.383-0.945c-0.55-0.629-0.825-1.533-0.825-2.712c0-0.742,0.135-1.393,0.405-1.95
			c0.27-0.559,0.658-0.986,1.165-1.285c0.506-0.297,1.1-0.446,1.78-0.446c0.693,0,1.39,0.168,2.09,0.503l-0.488,1.23
			c-0.267-0.127-0.536-0.237-0.806-0.332C27.757,54.479,27.492,54.431,27.231,54.431z"/>
		<path fill="#B3B3B3" d="M35.403,55.5c0,0.769-0.24,1.355-0.72,1.763c-0.48,0.408-1.163,0.61-2.048,0.61h-0.649v2.539h-1.514
			v-7.139h2.28c0.866,0,1.524,0.187,1.975,0.559C35.177,54.205,35.403,54.761,35.403,55.5z M31.985,56.633h0.498
			c0.465,0,0.814-0.092,1.045-0.275c0.231-0.185,0.347-0.452,0.347-0.804c0-0.354-0.097-0.617-0.291-0.786s-0.497-0.254-0.911-0.254
			h-0.688V56.633z"/>
		<path fill="#B3B3B3" d="M39.404,60.412H37.89v-5.879h-1.938v-1.26h5.391v1.26h-1.938L39.404,60.412L39.404,60.412z"/>
		<path fill="#B3B3B3" d="M48.189,60.412l-0.288-0.742h-0.039c-0.25,0.315-0.509,0.535-0.774,0.656
			c-0.265,0.123-0.611,0.184-1.038,0.184c-0.524,0-0.937-0.149-1.238-0.449c-0.301-0.3-0.452-0.726-0.452-1.279
			c0-0.579,0.203-1.007,0.608-1.281c0.405-0.275,1.017-0.428,1.833-0.457l0.947-0.029v-0.239c0-0.554-0.283-0.83-0.85-0.83
			c-0.436,0-0.949,0.132-1.538,0.396l-0.493-1.006c0.628-0.329,1.325-0.493,2.09-0.493c0.732,0,1.294,0.159,1.685,0.479
			c0.391,0.32,0.586,0.804,0.586,1.455v3.638h-1.039V60.412L48.189,60.412z M47.75,57.883l-0.576,0.02
			c-0.433,0.013-0.755,0.091-0.967,0.234s-0.317,0.361-0.317,0.654c0,0.42,0.241,0.63,0.723,0.63c0.345,0,0.621-0.1,0.828-0.298
			c0.207-0.198,0.31-0.462,0.31-0.791L47.75,57.883L47.75,57.883z"/>
		<path fill="#B3B3B3" d="M53.709,54.851c0.202,0,0.37,0.015,0.503,0.044L54.1,56.291c-0.121-0.032-0.267-0.049-0.439-0.049
			c-0.475,0-0.846,0.122-1.111,0.366c-0.265,0.244-0.398,0.586-0.398,1.025v2.778h-1.489v-5.459h1.128l0.22,0.918h0.073
			c0.169-0.306,0.398-0.553,0.686-0.74C53.057,54.944,53.371,54.851,53.709,54.851z"/>
		<path fill="#B3B3B3" d="M57.32,60.51c-1.699,0-2.549-0.933-2.549-2.798c0-0.928,0.231-1.637,0.693-2.126
			c0.462-0.49,1.125-0.735,1.987-0.735c0.631,0,1.197,0.124,1.699,0.371l-0.439,1.152c-0.234-0.095-0.453-0.172-0.654-0.231
			c-0.201-0.061-0.404-0.091-0.604-0.091c-0.775,0-1.162,0.55-1.162,1.65c0,1.067,0.387,1.602,1.162,1.602
			c0.286,0,0.552-0.038,0.796-0.114c0.244-0.077,0.487-0.196,0.731-0.359v1.274c-0.241,0.153-0.483,0.259-0.729,0.317
			C58.004,60.48,57.693,60.51,57.32,60.51z"/>
		<path fill="#B3B3B3" d="M65.184,60.412h-1.488v-3.188c0-0.788-0.293-1.182-0.879-1.182c-0.416,0-0.719,0.142-0.901,0.425
			c-0.187,0.283-0.276,0.742-0.276,1.377v2.568h-1.49v-7.598h1.488v1.548c0,0.12-0.014,0.403-0.033,0.85l-0.035,0.439h0.078
			c0.332-0.534,0.857-0.801,1.582-0.801c0.642,0,1.129,0.173,1.461,0.518c0.332,0.345,0.498,0.84,0.498,1.484v3.56H65.184z"/>
		<path fill="#B3B3B3" d="M66.555,53.542c0-0.485,0.271-0.728,0.812-0.728s0.811,0.242,0.811,0.728c0,0.231-0.064,0.411-0.201,0.54
			c-0.137,0.128-0.34,0.192-0.605,0.192C66.823,54.274,66.555,54.03,66.555,53.542z M68.105,60.412h-1.488v-5.459h1.488V60.412z"/>
		<path fill="#B3B3B3" d="M70.868,60.412l-2.08-5.459h1.558l1.055,3.11c0.117,0.394,0.19,0.767,0.224,1.118h0.026
			c0.019-0.313,0.088-0.686,0.222-1.118l1.051-3.11h1.56l-2.08,5.459H70.868z"/>
		<path fill="#B3B3B3" d="M77.628,60.51c-0.879,0-1.565-0.242-2.062-0.728c-0.494-0.486-0.741-1.172-0.741-2.061
			c0-0.915,0.229-1.622,0.687-2.122c0.457-0.499,1.09-0.749,1.896-0.749c0.771,0,1.371,0.22,1.802,0.659
			c0.431,0.439,0.646,1.047,0.646,1.821v0.723h-3.521c0.019,0.423,0.144,0.754,0.376,0.991c0.232,0.237,0.562,0.356,0.984,0.356
			c0.328,0,0.642-0.034,0.935-0.103c0.293-0.069,0.601-0.178,0.918-0.327v1.152c-0.261,0.13-0.538,0.228-0.835,0.29
			C78.415,60.479,78.055,60.51,77.628,60.51z M77.418,55.91c-0.314,0-0.562,0.1-0.742,0.301c-0.179,0.199-0.281,0.483-0.308,0.852
			h2.09c-0.006-0.368-0.103-0.652-0.288-0.852C77.984,56.01,77.732,55.91,77.418,55.91z"/>
	</g>
	<g>
		<rect x="24.334" y="65.719" fill="#B3B3B3" width="55.75" height="2.488"/>
		<rect x="24.334" y="69.449" fill="#B3B3B3" width="62" height="2.484"/>
	</g>
	<g>
		<rect x="24.334" y="93.002" fill="#B3B3B3" width="61.966" height="2.488"/>
		<rect x="24.334" y="96.732" fill="#B3B3B3" width="39.25" height="2.48"/>
	</g>
	<g>
		<rect x="24.334" y="77.152" fill="#B3B3B3" width="55.75" height="2.488"/>
		<rect x="24.334" y="80.883" fill="#B3B3B3" width="62" height="2.484"/>
		<rect x="24.334" y="84.611" fill="#B3B3B3" width="49.25" height="2.486"/>
	</g>
	<g>
		<circle fill="#FFFFFF" stroke="#F15A24" stroke-miterlimit="10" cx="19.334" cy="22.52" r="16"/>
		<g>
			<path fill="#F05A29" d="M24.223,15.148v-3.402h-3.401v3.402h-3.397v-3.402h-3.401v3.402h-3.399v16.998h17V15.148H24.223z
				 M13.08,23.689c0,0,5.483-7.463,12.227,0C25.307,23.689,19.823,31.328,13.08,23.689z"/>
			<path fill="#F05A29" d="M19.192,21.424c-1.272,0-2.303,1.033-2.303,2.307c0,1.27,1.03,2.303,2.303,2.303
				c1.274,0,2.306-1.033,2.306-2.303C21.498,22.457,20.467,21.424,19.192,21.424z M19.192,25.248c-0.837,0-1.518-0.682-1.518-1.518
				c0-0.842,0.681-1.521,1.518-1.521c0.84,0,1.521,0.68,1.521,1.521C20.713,24.566,20.032,25.248,19.192,25.248z"/>
		</g>
	</g>
</g>
</svg>
