<?xml version="1.0" encoding="utf-8"?>
<!-- Generator: Adobe Illustrator 16.0.0, SVG Export Plug-In . SVG Version: 6.00 Build 0)  -->
<!DOCTYPE svg PUBLIC "-//W3C//DTD SVG 1.1//EN" "http://www.w3.org/Graphics/SVG/1.1/DTD/svg11.dtd">
<svg version="1.1" id="Layer_1" xmlns="http://www.w3.org/2000/svg" xmlns:xlink="http://www.w3.org/1999/xlink" x="0px" y="0px"
	 width="130px" height="103.5px" viewBox="0 26.5 130 103.5" enable-background="new 0 26.5 130 103.5" xml:space="preserve">
<g>
	<g>
		<g>
			<polygon fill="#CCCCCC" points="112.48,123.34 112.48,122.76 21.953,122.76 21.953,37.24 111.9,37.24 111.9,123.34 
				112.48,123.34 112.48,122.76 112.48,123.34 113.062,123.34 113.062,36.08 20.792,36.08 20.792,123.92 113.062,123.92 
				113.062,123.34 			"/>
		</g>
		<g>
			<rect x="26.148" y="41.135" fill="none" width="65.25" height="25.5"/>
			<path fill="#B3B3B3" d="M35.569,50.252H33.5l-1.16-4.5c-0.043-0.16-0.116-0.491-0.22-0.993s-0.163-0.839-0.179-1.011
				c-0.023,0.211-0.082,0.55-0.176,1.017c-0.094,0.467-0.166,0.8-0.217,0.999l-1.154,4.488h-2.063l-2.186-8.566h1.787l1.096,4.676
				c0.191,0.863,0.33,1.611,0.416,2.244c0.023-0.223,0.077-0.567,0.161-1.034c0.084-0.467,0.163-0.829,0.237-1.087l1.248-4.799
				h1.717l1.248,4.799c0.055,0.215,0.123,0.543,0.205,0.984c0.082,0.441,0.145,0.82,0.188,1.137c0.039-0.305,0.102-0.685,0.188-1.14
				c0.086-0.455,0.164-0.823,0.234-1.104l1.09-4.676h1.787L35.569,50.252z"/>
			<path fill="#B3B3B3" d="M38.49,42.008c0-0.582,0.324-0.873,0.973-0.873s0.973,0.291,0.973,0.873c0,0.277-0.081,0.493-0.243,0.647
				c-0.162,0.154-0.405,0.229-0.729,0.229C38.814,42.887,38.49,42.594,38.49,42.008z M40.353,50.252h-1.787v-6.551h1.787V50.252z"/>
			<path fill="#B3B3B3" d="M44.182,50.369c-0.77,0-1.374-0.299-1.813-0.896c-0.439-0.597-0.659-1.426-0.659-2.484
				c0-1.074,0.224-1.911,0.671-2.511c0.447-0.6,1.063-0.899,1.849-0.899c0.824,0,1.453,0.32,1.887,0.961h0.059
				c-0.09-0.488-0.135-0.924-0.135-1.307v-2.098h1.793v9.117h-1.371l-0.346-0.85H46.04C45.633,50.047,45.014,50.369,44.182,50.369z
				 M44.809,48.945c0.457,0,0.792-0.133,1.005-0.398c0.213-0.265,0.329-0.717,0.349-1.354V47c0-0.703-0.108-1.207-0.325-1.512
				c-0.217-0.305-0.569-0.457-1.058-0.457c-0.398,0-0.708,0.169-0.929,0.507c-0.221,0.338-0.331,0.829-0.331,1.474
				s0.111,1.128,0.334,1.45C44.077,48.784,44.395,48.945,44.809,48.945z"/>
			<path fill="#B3B3B3" d="M55.283,43.701v0.908l-1.025,0.264c0.188,0.293,0.281,0.621,0.281,0.984c0,0.703-0.245,1.251-0.735,1.644
				c-0.49,0.393-1.171,0.589-2.042,0.589l-0.322-0.018l-0.264-0.029c-0.184,0.141-0.275,0.297-0.275,0.469
				c0,0.258,0.328,0.387,0.984,0.387h1.113c0.719,0,1.267,0.154,1.644,0.463s0.565,0.762,0.565,1.359
				c0,0.766-0.319,1.359-0.958,1.781s-1.556,0.633-2.751,0.633c-0.914,0-1.612-0.159-2.095-0.478
				c-0.483-0.319-0.724-0.765-0.724-1.339c0-0.395,0.123-0.725,0.369-0.99c0.246-0.265,0.607-0.455,1.084-0.568
				c-0.184-0.078-0.344-0.206-0.48-0.384c-0.136-0.178-0.205-0.366-0.205-0.565c0-0.25,0.072-0.458,0.217-0.624
				s0.354-0.329,0.627-0.489c-0.344-0.148-0.616-0.387-0.817-0.715c-0.201-0.328-0.302-0.715-0.302-1.16
				c0-0.715,0.232-1.268,0.697-1.658c0.465-0.39,1.129-0.586,1.992-0.586c0.184,0,0.401,0.017,0.653,0.05
				c0.252,0.033,0.413,0.058,0.483,0.073L55.283,43.701L55.283,43.701z M50.227,51.178c0,0.246,0.118,0.439,0.354,0.58
				c0.236,0.141,0.567,0.211,0.993,0.211c0.641,0,1.143-0.088,1.506-0.264c0.363-0.176,0.545-0.416,0.545-0.721
				c0-0.246-0.107-0.416-0.322-0.51c-0.215-0.094-0.547-0.141-0.996-0.141h-0.926c-0.328,0-0.603,0.077-0.823,0.231
				C50.338,50.718,50.227,50.924,50.227,51.178z M50.877,45.846c0,0.355,0.081,0.637,0.243,0.844S51.529,47,51.861,47
				c0.336,0,0.582-0.104,0.738-0.311c0.156-0.207,0.234-0.488,0.234-0.844c0-0.789-0.324-1.184-0.973-1.184
				C51.205,44.662,50.877,45.057,50.877,45.846z"/>
			<path fill="#B3B3B3" d="M59.206,50.369c-1.055,0-1.879-0.291-2.473-0.873c-0.594-0.582-0.891-1.406-0.891-2.473
				c0-1.098,0.274-1.946,0.823-2.546s1.308-0.899,2.276-0.899c0.926,0,1.646,0.264,2.162,0.791c0.516,0.527,0.773,1.256,0.773,2.186
				v0.867h-4.225c0.02,0.508,0.17,0.904,0.451,1.189c0.281,0.285,0.676,0.428,1.184,0.428c0.395,0,0.768-0.041,1.119-0.123
				c0.351-0.082,0.719-0.213,1.102-0.393v1.383c-0.313,0.156-0.646,0.271-1.002,0.349S59.718,50.369,59.206,50.369z M58.954,44.85
				c-0.379,0-0.676,0.12-0.891,0.36s-0.338,0.581-0.369,1.022h2.508c-0.008-0.441-0.123-0.782-0.346-1.022
				S59.333,44.85,58.954,44.85z"/>
			<path fill="#B3B3B3" d="M65.971,48.945c0.313,0,0.688-0.068,1.125-0.205v1.33c-0.445,0.199-0.992,0.299-1.641,0.299
				c-0.715,0-1.235-0.181-1.562-0.542c-0.327-0.361-0.489-0.903-0.489-1.626v-3.158h-0.855v-0.756l0.984-0.598l0.516-1.383h1.143
				v1.395h1.833v1.342h-1.833v3.158c0,0.254,0.071,0.441,0.214,0.563C65.549,48.886,65.736,48.945,65.971,48.945z"/>
			<path fill="#B3B3B3" d="M72.87,48.307c0,0.672-0.233,1.184-0.7,1.535c-0.467,0.351-1.165,0.527-2.095,0.527
				c-0.478,0-0.884-0.032-1.22-0.097s-0.649-0.159-0.942-0.284v-1.477c0.332,0.156,0.706,0.287,1.122,0.393s0.781,0.158,1.099,0.158
				c0.648,0,0.974-0.188,0.974-0.563c0-0.141-0.043-0.255-0.129-0.343c-0.086-0.088-0.233-0.188-0.444-0.299
				s-0.492-0.241-0.845-0.39c-0.504-0.211-0.875-0.406-1.109-0.586c-0.236-0.18-0.408-0.386-0.518-0.618
				c-0.106-0.232-0.16-0.519-0.16-0.858c0-0.582,0.227-1.032,0.678-1.351c0.449-0.319,1.091-0.478,1.919-0.478
				c0.789,0,1.558,0.172,2.303,0.516l-0.538,1.289c-0.328-0.141-0.636-0.256-0.921-0.346c-0.284-0.09-0.575-0.135-0.872-0.135
				c-0.527,0-0.791,0.143-0.791,0.428c0,0.16,0.086,0.299,0.256,0.416c0.17,0.117,0.541,0.291,1.114,0.521
				c0.513,0.207,0.888,0.4,1.125,0.58c0.238,0.18,0.414,0.387,0.527,0.621C72.814,47.7,72.87,47.982,72.87,48.307z"/>
		</g>
	</g>
	<g>
		<polygon fill="#CCCCCC" points="112.312,73.795 112.312,73.354 21.667,73.354 21.667,55.801 111.872,55.801 111.872,73.795 
			112.312,73.795 112.312,73.354 112.312,73.795 112.753,73.795 112.753,54.921 20.786,54.921 20.786,74.234 112.753,74.234 
			112.753,73.795 		"/>
	</g>
	<g>
		<polygon fill="#CCCCCC" points="112.312,123.257 112.312,122.816 21.667,122.816 21.667,105.264 111.872,105.264 111.872,123.257 
			112.312,123.257 112.312,122.816 112.312,123.257 112.753,123.257 112.753,104.384 20.786,104.384 20.786,123.697 
			112.753,123.697 112.753,123.257 		"/>
	</g>
	<g>
		<path fill="#B3B3B3" d="M29.019,121.309c-0.562,0-1.07-0.319-1.295-0.813l-3.206-6.8c-0.22-0.463-0.321-1.006-0.321-1.711
			c0-2.657,2.164-4.821,4.822-4.821c2.66,0,4.822,2.164,4.822,4.821c0,0.705-0.102,1.248-0.32,1.711l-3.199,6.805
			C30.086,120.99,29.576,121.309,29.019,121.309z M29.019,107.807c-2.303,0-4.178,1.875-4.178,4.178
			c0,0.605,0.082,1.062,0.259,1.437l3.208,6.806c0.121,0.265,0.405,0.438,0.711,0.438c0.311,0,0.593-0.173,0.721-0.44l3.199-6.803
			c0.176-0.374,0.259-0.83,0.259-1.438C33.198,109.682,31.324,107.807,29.019,107.807z M29.019,114.557
			c-1.418,0-2.572-1.154-2.572-2.572s1.154-2.57,2.572-2.57s2.572,1.152,2.572,2.57S30.437,114.557,29.019,114.557z M29.019,110.057
			c-1.063,0-1.928,0.863-1.928,1.928c0,1.063,0.865,1.93,1.928,1.93c1.064,0,1.929-0.865,1.929-1.93S30.083,110.057,29.019,110.057z
			"/>
	</g>
	<g>
		<polyline fill="none" stroke="#B3B3B3" stroke-width="0.7425" stroke-miterlimit="10" points="111.616,96.041 111.616,96.799 
			110.857,96.799 		"/>
		
			<line fill="none" stroke="#B3B3B3" stroke-miterlimit="10" stroke-dasharray="2,2" x1="109.667" y1="96.5" x2="22.667" y2="96.5"/>
		<polyline fill="none" stroke="#B3B3B3" stroke-width="0.7425" stroke-miterlimit="10" points="22.066,96.799 21.308,96.799 
			21.308,96.041 		"/>
		<line fill="none" stroke="#B3B3B3" stroke-miterlimit="10" stroke-dasharray="1,1" x1="21.167" y1="95" x2="21.167" y2="80"/>
		<polyline fill="none" stroke="#B3B3B3" stroke-width="0.7425" stroke-miterlimit="10" points="21.308,79.738 21.308,78.98 
			22.066,78.98 		"/>
		
			<line fill="none" stroke="#B3B3B3" stroke-miterlimit="10" stroke-dasharray="2,2" x1="23.667" y1="78.5" x2="109.667" y2="78.5"/>
		<polyline fill="none" stroke="#B3B3B3" stroke-width="0.7425" stroke-miterlimit="10" points="110.857,78.98 111.616,78.98 
			111.616,79.738 		"/>
		<line fill="none" stroke="#B3B3B3" stroke-miterlimit="10" stroke-dasharray="1,1" x1="111.167" y1="81" x2="111.167" y2="95"/>
	</g>
	<rect x="17.167" y="83.5" fill="#FFFFFF" stroke="#F15A24" stroke-miterlimit="10" width="90" height="19"/>
	<path fill="#B3B3B3" stroke="#B3B3B3" stroke-width="0.1896" stroke-miterlimit="10" d="M31.623,87.312h-0.508V86.8
		c0-0.569-0.465-1.034-1.035-1.034c-0.57,0-1.035,0.465-1.035,1.034v0.513h-5.67V86.8c0-0.569-0.463-1.034-1.034-1.034
		c-0.571,0-1.034,0.465-1.034,1.034v0.513h-0.521c-0.567,0.004-1.031,0.47-1.031,1.039v2.318v3.094v3.098v3.099
		c0,0.146,0.119,0.263,0.264,0.263h3.097h3.1h3.092h3.097c0.144,0,0.261-0.117,0.261-0.263v-3.099v-3.098V90.67v-2.318
		C32.664,87.782,32.201,87.316,31.623,87.312 M25.953,93.502h-2.574v-2.568h2.574V93.502z M29.044,93.502h-2.57v-2.568h2.57V93.502z
		 M32.14,93.502h-2.572v-2.568h2.572V93.502z M22.853,93.502H20.28v-2.568h2.573V93.502z M20.28,94.025h2.573V96.6H20.28V94.025z
		 M23.378,94.025h2.574V96.6h-2.574V94.025z M26.475,94.025h2.569V96.6h-2.569V94.025z M29.568,94.025h2.572V96.6h-2.572V94.025z
		 M29.568,86.802c0-0.284,0.229-0.512,0.512-0.512c0.281,0,0.51,0.228,0.51,0.512v0.774v0.775c0,0.279-0.229,0.51-0.51,0.51
		c-0.283,0-0.512-0.229-0.512-0.51v-0.775V86.802z M21.829,86.802c0-0.284,0.229-0.512,0.512-0.512c0.282,0,0.511,0.228,0.511,0.512
		v0.774v0.775c0,0.279-0.229,0.51-0.511,0.51c-0.283,0-0.512-0.229-0.512-0.51v-0.775V86.802z M20.28,88.352
		c0-0.281,0.229-0.512,0.518-0.515h0.509v0.515c0,0.569,0.463,1.033,1.034,1.033c0.571,0,1.034-0.464,1.034-1.033v-0.515h5.67v0.515
		c0,0.569,0.465,1.033,1.035,1.033c0.57,0,1.035-0.464,1.035-1.033v-0.515h0.516c0.281,0.003,0.51,0.231,0.51,0.515v2.06h-2.793
		h-0.041h-0.039h-3.012h-0.041h-0.04h-3.06H20.28V88.352z M20.28,97.125h2.573v2.572H20.28V97.125z M23.378,97.125h2.574v2.572
		h-2.574V97.125z M26.475,97.125h2.569v2.572h-2.569V97.125z M32.14,99.697h-2.572v-2.573h2.572V99.697z"/>
	<polygon fill="#B3B3B3" points="99.116,61.884 107.43,61.882 103.257,68.374 	"/>
	<polygon fill="#B3B3B3" points="92.3,90.48 100.613,90.479 96.441,96.973 	"/>
	<polygon fill="#B3B3B3" points="99.782,111.157 108.098,111.156 103.925,117.646 	"/>
	<g>
		<path fill="#B3B3B3" stroke="#B3B3B3" stroke-width="0.3304" stroke-miterlimit="10" d="M32.693,62.328
			c-1.654,0-2.999,1.347-2.999,3.001c0,1.653,1.345,2.997,2.999,2.997c1.653,0,3-1.344,3-2.997
			C35.693,63.675,34.346,62.328,32.693,62.328 M32.693,67.784c-1.355,0-2.459-1.103-2.459-2.455c0-1.355,1.104-2.458,2.459-2.458
			c1.354,0,2.458,1.103,2.458,2.458C35.151,66.684,34.047,67.784,32.693,67.784"/>
		<path fill="#B3B3B3" stroke="#B3B3B3" stroke-width="0.3304" stroke-miterlimit="10" d="M40.003,60.499h-4.426l-0.824-1.647
			c-0.046-0.092-0.139-0.15-0.241-0.15h-3.638c-0.104,0-0.197,0.059-0.242,0.15l-0.824,1.647h-4.426
			c-0.15,0-0.271,0.121-0.271,0.271v9.114c0,0.15,0.121,0.271,0.271,0.271h14.621c0.148,0,0.27-0.121,0.27-0.271V60.77
			C40.273,60.62,40.152,60.499,40.003,60.499 M39.732,69.615h-14.08v-8.573h4.322c0.104,0,0.197-0.06,0.244-0.15l0.822-1.649h3.304
			l0.823,1.649c0.047,0.091,0.141,0.15,0.243,0.15h4.321L39.732,69.615L39.732,69.615z"/>
	</g>
</g>
</svg>
